<svg id="圖層_1" data-name="圖層 1" xmlns="http://www.w3.org/2000/svg" xmlns:xlink="http://www.w3.org/1999/xlink" viewBox="0 0 784.94 107.64"><defs><style>.cls-1{fill:none;}.cls-2{opacity:0.3;}.cls-3{clip-path:url(#clip-path);}.cls-4{fill:#c99260;}</style><clipPath id="clip-path"><rect class="cls-1" width="784.94" height="107.64"/></clipPath></defs><title>company_history</title><g class="cls-2"><g class="cls-3"><path class="cls-4" d="M56.68,77.12A31.63,31.63,0,0,1,51,79.58a55.78,55.78,0,0,1-6.09,1.6q-3,.6-5.56.88a41.3,41.3,0,0,1-4.18.28A33.14,33.14,0,0,1,22.5,80a29.14,29.14,0,0,1-9.8-6.44,28.77,28.77,0,0,1-6.34-9.77A33.15,33.15,0,0,1,4.11,51.42,30.77,30.77,0,0,1,6.67,38.54a26.77,26.77,0,0,1,7.07-9.45A30.83,30.83,0,0,1,24.4,23.28a43.54,43.54,0,0,1,13.38-2,55.33,55.33,0,0,1,7.77.53q3.71.53,7.22,1.28a1.29,1.29,0,0,1,.73.43,1.35,1.35,0,0,1,.33.68c0,.47.08,1.07.13,1.8s.09,1.53.13,2.38.08,1.72.13,2.61.09,1.7.13,2.45.06,1.4.08,1.93,0,.87,0,1l-2.51.25a10.71,10.71,0,0,0-1.83-5.26,12.17,12.17,0,0,0-3.78-3.48,17,17,0,0,0-5-1.93,25.22,25.22,0,0,0-5.44-.6,23.09,23.09,0,0,0-9.5,1.8,18.5,18.5,0,0,0-6.71,5,21.1,21.1,0,0,0-4,7.52,32.14,32.14,0,0,0-1.33,9.45A36.53,36.53,0,0,0,16,60.21a24.87,24.87,0,0,0,4.89,8.9A22.79,22.79,0,0,0,29,75a27.86,27.86,0,0,0,11.38,2.15,33.24,33.24,0,0,0,7.57-.85A55.45,55.45,0,0,0,55.32,74Z"/><path class="cls-4" d="M91.58,21.3a32.32,32.32,0,0,1,11.68,2,24.53,24.53,0,0,1,8.9,5.79,25.73,25.73,0,0,1,5.69,9.3,36.38,36.38,0,0,1,2,12.48,37.77,37.77,0,0,1-2.23,13.48,26.73,26.73,0,0,1-6.34,9.85,27.23,27.23,0,0,1-9.9,6.06,38,38,0,0,1-12.9,2.08,31.47,31.47,0,0,1-11.7-2.08,24.8,24.8,0,0,1-8.92-5.94,26.11,26.11,0,0,1-5.66-9.42,37.34,37.34,0,0,1-2-12.58,37.18,37.18,0,0,1,2.23-13.38,26.05,26.05,0,0,1,6.34-9.72,26.93,26.93,0,0,1,9.9-5.91A39.26,39.26,0,0,1,91.58,21.3Zm-2.5,4.21a16.12,16.12,0,0,0-14.16,7.37,24,24,0,0,0-3.28,7.72,38.5,38.5,0,0,0-1.05,9.07A48,48,0,0,0,71.71,60a29.45,29.45,0,0,0,3.58,9.12,19.85,19.85,0,0,0,6.36,6.49,17.22,17.22,0,0,0,9.42,2.48A16.22,16.22,0,0,0,99.5,76a17.24,17.24,0,0,0,5.74-5.51,24.84,24.84,0,0,0,3.28-7.87,39.45,39.45,0,0,0,1.05-9.14,47,47,0,0,0-1.13-10.3,28.59,28.59,0,0,0-3.58-9,19.4,19.4,0,0,0-6.36-6.34A17.64,17.64,0,0,0,89.08,25.51Z"/><path class="cls-4" d="M181.28,35.08l-18.69,45.6a1,1,0,0,1-.9.65q-.9.1-2,.15t-2.28,0a1.1,1.1,0,0,1-1.1-.75l-17.54-46.3L133,80.63q-.1.6-.9.65t-2.23.18q-1.33.08-2.78.08-.7,0-.7-.55a1.77,1.77,0,0,1,0-.5l9.77-53.22-1.6-4.41a1.63,1.63,0,0,1-.1-.5q0-.8,1-1,.8-.15,1.88-.28l2.1-.23q1-.1,1.88-.15t1.25,0a1.15,1.15,0,0,1,.85.3,2.91,2.91,0,0,1,.55.85l17.94,47.25L180.33,27l-.5-4.16a.83.83,0,0,1,0-.4,1,1,0,0,1,1-1.05q.8-.15,1.85-.28l2.05-.23q1-.1,1.83-.15c.55,0,1,0,1.23,0a1.23,1.23,0,0,1,1.4,1.15l6.82,57.43a1.42,1.42,0,0,1,0,.33v.23a1,1,0,0,1-1,1.1q-.85.15-2,.28t-2.15.2q-1.05.07-1.93.1l-1.28,0a1.47,1.47,0,0,1-.75-.18.73.73,0,0,1-.35-.58Z"/><path class="cls-4" d="M221,53.92a34.59,34.59,0,0,0,7.09-1.2,14.47,14.47,0,0,0,5.19-2.63,10.84,10.84,0,0,0,3.18-4.38,17.22,17.22,0,0,0,1.08-6.46,15.06,15.06,0,0,0-1.1-5.91,12.34,12.34,0,0,0-3.06-4.38,13.15,13.15,0,0,0-4.69-2.71,18.54,18.54,0,0,0-6-.93,15.75,15.75,0,0,0-3.41.28q-1.15.28-1.15,1.93v52a1.29,1.29,0,0,1-1.2,1.4q-.85.15-1.88.28t-2,.2q-1,.07-1.8.1l-1.23,0q-1.2,0-1.2-1.25V30.12q0-2.56-1.1-3.38a4.64,4.64,0,0,0-2.86-.83,17.9,17.9,0,0,0-2.2.15l-.3-2.76q4.41-.75,9.57-1.4a93.67,93.67,0,0,1,11.63-.65q3,0,5.91.28a35.21,35.21,0,0,1,5.64,1,26.31,26.31,0,0,1,5,1.85,14.07,14.07,0,0,1,4,3,13.22,13.22,0,0,1,2.68,4.28,15.72,15.72,0,0,1,1,5.79,16.61,16.61,0,0,1-2.21,8.82,17.81,17.81,0,0,1-5.86,5.89,27.51,27.51,0,0,1-8.42,3.38,52.74,52.74,0,0,1-9.87,1.3Z"/><path class="cls-4" d="M257.91,59.89l-7.72,20.8a1,1,0,0,1-.9.65q-.9.1-2.05.15t-2.61,0q-.8,0-.8-.5a.56.56,0,0,1,0-.25l23-55-1.05-2.91a2.73,2.73,0,0,1-.1-.55q0-.75,1-.9.8-.15,1.88-.28l2.08-.23q1-.1,1.85-.15t1.25,0a1.53,1.53,0,0,1,1.45,1.15L297.5,79.38a2,2,0,0,1,.15.55q0,.85-1,1t-2,.28q-1.13.12-2.21.2t-2,.1l-1.3,0a1.13,1.13,0,0,1-1.15-.75l-8.17-21.25Zm1.6-4.26h18.79l-9.52-24.85Z"/><path class="cls-4" d="M312.88,20.85a1.1,1.1,0,0,1,.85.33q.3.33.7.83l34.63,46L347.81,23q0-.6.8-.65t2.41-.3q1.5-.15,2.91-.15.8,0,.8.75l-1.2,48.86v9.17q0,.6-.8.65t-2,.15q-1.13,0-2.28,0a1.21,1.21,0,0,1-.7-.18,2,2,0,0,1-.5-.58l-34.88-46.3,1.25,46.1q0,.6-.8.65t-2.48.25q-1.58.1-2.83.1-.8,0-.8-.75l1.25-52.22L303.81,23a.74.74,0,0,1-.2-.55q0-.65.9-.9t2.05-.28L309.1,21q1.28-.1,2.33-.15Z"/><path class="cls-4" d="M371.75,21.7a1.63,1.63,0,0,1,1.2.45,5.51,5.51,0,0,1,.9,1.3L388.09,49l12.13-24.7a3.63,3.63,0,0,1,.65-1,2.4,2.4,0,0,1,1.05-.55,10.13,10.13,0,0,1,1.5-.3l1.55-.18q.75-.07,1.38-.1l1,0q.9,0,.9.6a.89.89,0,0,1-.1.4c-.07.13-.13.28-.2.45l-18,30.17V79.53a1.29,1.29,0,0,1-1.2,1.4q-.85.15-1.88.28t-2,.2c-.65,0-1.25.08-1.8.1l-1.23,0q-1.2,0-1.2-1.25V54.72L366.74,30a10.71,10.71,0,0,0-2.36-3.13,4.21,4.21,0,0,0-2.71-.88,6.11,6.11,0,0,0-.9.08l-1.15.18-.3-2.76q2.21-.45,4.29-.78t3.78-.55q1.7-.23,2.86-.33T371.75,21.7Z"/><path class="cls-4" d="M480.9,24.21a1.33,1.33,0,0,1,1.2-1.4q.8-.15,1.83-.25l2-.18,1.83-.13q.83,0,1.23,0,1.2,0,1.2,1.25V79.53a1.29,1.29,0,0,1-1.2,1.4q-.85.15-1.88.28t-2,.2q-1,.07-1.8.1l-1.23,0q-1.2,0-1.2-1.25V51.72l-29.21.35V79.53a1.29,1.29,0,0,1-1.2,1.4q-.85.15-1.88.28t-2,.2q-1,.07-1.8.1l-1.23,0q-1.2,0-1.2-1.25V30.67a7.8,7.8,0,0,0-.28-2.28,3.18,3.18,0,0,0-.8-1.38,2.91,2.91,0,0,0-1.25-.7,6.14,6.14,0,0,0-1.63-.2,16.31,16.31,0,0,0-2.2.15l-.3-2.76q2.71-.5,5.14-.85t4.31-.55q1.88-.2,3.13-.3t1.6-.1a1.42,1.42,0,0,1,1.6,1.6V47.66H480.9Z"/><path class="cls-4" d="M499.79,23.5q2.71-.5,5.14-.85t4.31-.55q1.88-.2,3.13-.3t1.6-.1a1.42,1.42,0,0,1,1.6,1.6V79.53a1.29,1.29,0,0,1-1.2,1.4q-.85.15-1.88.28t-2,.2q-1,.07-1.8.1l-1.23,0q-1.2,0-1.2-1.25V30.67a7.8,7.8,0,0,0-.28-2.28,3.18,3.18,0,0,0-.8-1.38,2.91,2.91,0,0,0-1.25-.7,6.14,6.14,0,0,0-1.63-.2,16.31,16.31,0,0,0-2.2.15Z"/><path class="cls-4" d="M560,36.43a14.93,14.93,0,0,0-1.63-4.74,10.95,10.95,0,0,0-6.51-5.21,15.5,15.5,0,0,0-4.48-.63,17.4,17.4,0,0,0-4.51.58A10.89,10.89,0,0,0,539,28.27a9,9,0,0,0-2.63,3.21,10.32,10.32,0,0,0-1,4.66,7.28,7.28,0,0,0,1.15,4.13,10.81,10.81,0,0,0,3.08,3,24.43,24.43,0,0,0,4.43,2.28q2.51,1,5.21,2,3,1.15,6,2.48a24.31,24.31,0,0,1,5.39,3.23,15.17,15.17,0,0,1,3.86,4.61A13.76,13.76,0,0,1,566,64.55a17.65,17.65,0,0,1-1,6.11,14.66,14.66,0,0,1-2.71,4.64,16.21,16.21,0,0,1-4,3.33,23.67,23.67,0,0,1-5,2.18A31.37,31.37,0,0,1,547.82,82a47.13,47.13,0,0,1-5.69.35,56,56,0,0,1-6.69-.4,65,65,0,0,1-6.64-1.15,1.28,1.28,0,0,1-.73-.43,1.33,1.33,0,0,1-.33-.68q-.1-1.05-.2-3.08t-.18-4.13q-.07-2.11-.12-3.81t0-2l2.5-.25a13.91,13.91,0,0,0,1.58,5.21,11.52,11.52,0,0,0,3.11,3.63,12.64,12.64,0,0,0,4.31,2.11,19.47,19.47,0,0,0,5.24.68,20.39,20.39,0,0,0,4.86-.58A12.35,12.35,0,0,0,553,75.6a9.57,9.57,0,0,0,2.93-3.28,10,10,0,0,0,1.1-4.86,6.84,6.84,0,0,0-1.15-4,11.29,11.29,0,0,0-3.08-2.93,24.79,24.79,0,0,0-4.41-2.28l-5.14-2.05q-3-1.2-6-2.58a24.56,24.56,0,0,1-5.39-3.33A15.42,15.42,0,0,1,528,45.53a14.43,14.43,0,0,1-1.48-6.84,16.08,16.08,0,0,1,1.93-8.22,15.42,15.42,0,0,1,5.06-5.31,21.37,21.37,0,0,1,7.12-2.86,38.84,38.84,0,0,1,8.14-.85,46.7,46.7,0,0,1,6,.43A56.27,56.27,0,0,1,560.87,23a1.29,1.29,0,0,1,.73.43,1.35,1.35,0,0,1,.33.68q.1,1.05.2,2.93t.2,3.81q.1,1.93.15,3.48t.05,1.85Z"/><path class="cls-4" d="M582.94,26.86q-3.26,0-5.39.18a6.33,6.33,0,0,0-5.86,4.23,33.25,33.25,0,0,0-1.78,5.91l-2.51-.25c0-.13,0-.5,0-1.1s0-1.32.1-2.15.1-1.75.15-2.76.11-2,.18-2.93.13-1.84.2-2.66.13-1.46.2-1.93.33-.75.9-.75q4.56.1,8.72.15t7.67.05h16.69q3.51,0,7.72-.05t8.77-.15a.75.75,0,0,1,.8.75q.1.7.18,1.93t.15,2.66q.07,1.43.13,2.93t.08,2.76q0,1.25,0,2.15t0,1.1l-2.51.25a37.34,37.34,0,0,0-1.73-5.91,7,7,0,0,0-2.23-3.08A6.72,6.72,0,0,0,610.23,27q-2.08-.18-5.39-.18h-6.41V79.53a1.29,1.29,0,0,1-1.2,1.4q-.85.15-1.88.28t-2,.2q-1,.07-1.8.1l-1.23,0q-1.2,0-1.2-1.25V26.86Z"/><path class="cls-4" d="M654.55,21.3a32.32,32.32,0,0,1,11.68,2,24.53,24.53,0,0,1,8.9,5.79,25.73,25.73,0,0,1,5.69,9.3,36.38,36.38,0,0,1,2,12.48,37.76,37.76,0,0,1-2.23,13.48,26.73,26.73,0,0,1-6.34,9.85,27.24,27.24,0,0,1-9.9,6.06,38,38,0,0,1-12.9,2.08,31.47,31.47,0,0,1-11.7-2.08,24.8,24.8,0,0,1-8.92-5.94,26.11,26.11,0,0,1-5.66-9.42,37.34,37.34,0,0,1-2-12.58,37.18,37.18,0,0,1,2.23-13.38,26.05,26.05,0,0,1,6.34-9.72,26.93,26.93,0,0,1,9.9-5.91A39.26,39.26,0,0,1,654.55,21.3ZM652,25.51a16.12,16.12,0,0,0-14.16,7.37,24,24,0,0,0-3.28,7.72,38.49,38.49,0,0,0-1.05,9.07A48,48,0,0,0,634.68,60a29.45,29.45,0,0,0,3.58,9.12,19.85,19.85,0,0,0,6.36,6.49,17.22,17.22,0,0,0,9.42,2.48A16.22,16.22,0,0,0,662.47,76a17.23,17.23,0,0,0,5.74-5.51,24.84,24.84,0,0,0,3.28-7.87,39.44,39.44,0,0,0,1.05-9.14,47,47,0,0,0-1.13-10.3,28.59,28.59,0,0,0-3.58-9,19.4,19.4,0,0,0-6.36-6.34A17.64,17.64,0,0,0,652,25.51Z"/><path class="cls-4" d="M706.87,50.82a32.28,32.28,0,0,0,6.82-1.1,13.58,13.58,0,0,0,4.94-2.48,10.31,10.31,0,0,0,3-4.13,16,16,0,0,0,1-6.06,11.41,11.41,0,0,0-1.1-5.16,9.94,9.94,0,0,0-3.06-3.63,13.63,13.63,0,0,0-4.61-2.13,22.3,22.3,0,0,0-5.71-.7,10.39,10.39,0,0,0-3,.33q-1,.33-1,1.83v52a1.29,1.29,0,0,1-1.2,1.4q-.85.15-1.88.28t-2,.2q-1,.07-1.8.1l-1.23,0q-1.2,0-1.2-1.25V30q0-2.5-1.1-3.33a4.64,4.64,0,0,0-2.86-.83,17.9,17.9,0,0,0-2.2.15l-.3-2.76q5-.85,10.4-1.43a103.48,103.48,0,0,1,11-.58q2.41,0,5.06.2a38.48,38.48,0,0,1,5.21.75,27,27,0,0,1,4.86,1.53,14.07,14.07,0,0,1,4,2.56,11.75,11.75,0,0,1,2.76,3.81,12.55,12.55,0,0,1,1,5.29,15.58,15.58,0,0,1-1,5.74A14.2,14.2,0,0,1,729,45.5a17.11,17.11,0,0,1-4,3.26,29.31,29.31,0,0,1-5,2.31v.3a19,19,0,0,1,2.71.78,11.92,11.92,0,0,1,2.83,1.5,12.31,12.31,0,0,1,2.56,2.48A11.74,11.74,0,0,1,730,59.84l3.71,11.48a37.35,37.35,0,0,0,1.38,3.76,7.41,7.41,0,0,0,1.33,2.13,3.33,3.33,0,0,0,1.6,1,9.5,9.5,0,0,0,2.26.23l.15,2.61q-1,.2-2.08.38t-2.23.28l-2,.18q-.88.07-1.33.08a10,10,0,0,1-2.86-.38,5.69,5.69,0,0,1-2.25-1.3,8.6,8.6,0,0,1-1.78-2.46,21.31,21.31,0,0,1-1.43-3.83L721,61.69a14.77,14.77,0,0,0-1.8-4.16,7.16,7.16,0,0,0-2.63-2.38,11.12,11.12,0,0,0-3.81-1.1q-2.23-.27-5.39-.38Z"/><path class="cls-4" d="M746.74,21.7a1.63,1.63,0,0,1,1.2.45,5.51,5.51,0,0,1,.9,1.3L763.08,49l12.13-24.7a3.63,3.63,0,0,1,.65-1,2.4,2.4,0,0,1,1.05-.55,10.13,10.13,0,0,1,1.5-.3l1.55-.18q.75-.07,1.38-.1l1,0q.9,0,.9.6a.89.89,0,0,1-.1.4c-.07.13-.13.28-.2.45l-18,30.17V79.53a1.29,1.29,0,0,1-1.2,1.4q-.85.15-1.88.28t-2,.2c-.65,0-1.25.08-1.8.1l-1.23,0q-1.2,0-1.2-1.25V54.72L741.73,30a10.71,10.71,0,0,0-2.36-3.13,4.21,4.21,0,0,0-2.71-.88,6.11,6.11,0,0,0-.9.08l-1.15.18-.3-2.76q2.21-.45,4.29-.78t3.78-.55q1.7-.23,2.86-.33T746.74,21.7Z"/></g></g><rect class="cls-1" x="-986.96" y="-174.83" width="1920" height="6671"/><rect class="cls-1" x="-986.96" y="-174.83" width="1920" height="6671"/></svg>