<svg id="圖層_1" data-name="圖層 1" xmlns="http://www.w3.org/2000/svg" viewBox="0 0 446.51 100.41"><defs><style>.cls-1{fill:#74b5e4;}</style></defs><title>gti_girls</title><path class="cls-1" d="M44.18,67.33a27,27,0,0,1-16.07,5A27.09,27.09,0,0,1,8.22,64.07,27.09,27.09,0,0,1,0,44.18,27.1,27.1,0,0,1,8.22,24.29a27.1,27.1,0,0,1,19.89-8.22A27.1,27.1,0,0,1,48,24.29a27.1,27.1,0,0,1,8.22,19.89V72.29A27.1,27.1,0,0,1,48,92.18a27.1,27.1,0,0,1-19.89,8.22v-12a15.48,15.48,0,0,0,11.36-4.71,15.48,15.48,0,0,0,4.71-11.36ZM28.11,60.24a15.48,15.48,0,0,0,11.36-4.71,15.48,15.48,0,0,0,4.71-11.36,15.48,15.48,0,0,0-4.71-11.36,15.48,15.48,0,0,0-11.36-4.71,15.48,15.48,0,0,0-11.36,4.71A15.48,15.48,0,0,0,12,44.18a15.48,15.48,0,0,0,4.71,11.36A15.48,15.48,0,0,0,28.11,60.24Z"/><path class="cls-1" d="M89.16,28.11V44.18a16.07,16.07,0,0,0,16.06,16.06v12a27.09,27.09,0,0,1-19.89-8.22,27.09,27.09,0,0,1-8.22-19.89V0h12V16.06h16.06v12Z"/><path class="cls-1" d="M132.13,12a5.81,5.81,0,0,1-4.27-1.76A5.81,5.81,0,0,1,126.11,6a5.81,5.81,0,0,1,1.76-4.27,6.06,6.06,0,0,1,8.54,0A5.82,5.82,0,0,1,138.16,6a5.81,5.81,0,0,1-1.76,4.27A5.81,5.81,0,0,1,132.13,12Zm6,4V72.29h-12V16.06Z"/><path class="cls-1" d="M240.11,67.33a28.32,28.32,0,0,1-36-3.26,27.09,27.09,0,0,1-8.22-19.89,27.1,27.1,0,0,1,8.22-19.89,28.18,28.18,0,0,1,39.79,0,27.1,27.1,0,0,1,8.22,19.89V72.29A28.07,28.07,0,0,1,224,100.41v-12a16.07,16.07,0,0,0,16.07-16.06ZM224,60.24a16.07,16.07,0,0,0,16.07-16.06,16.06,16.06,0,0,0-32.13,0A16.07,16.07,0,0,0,224,60.24Z"/><path class="cls-1" d="M279.06,12a5.81,5.81,0,0,1-4.27-1.76A5.81,5.81,0,0,1,273,6a5.81,5.81,0,0,1,1.76-4.27,6.06,6.06,0,0,1,8.54,0A5.82,5.82,0,0,1,285.09,6a5.81,5.81,0,0,1-1.76,4.27A5.81,5.81,0,0,1,279.06,12Zm6,4V72.29H273V16.06Z"/><path class="cls-1" d="M306,44.18a27.1,27.1,0,0,1,8.22-19.89,28.18,28.18,0,0,1,39.79,0l.06.06-8.53,8.53-.06-.06A16.06,16.06,0,0,0,318,44.18V72.29H306Z"/><path class="cls-1" d="M383.08,0V72.29H371V0Z"/><path class="cls-1" d="M420,16.06h24.1v12H421.85q-6.4.06-6.21,2.51,0,3.64,13.37,7,9.79,2.45,13.65,6.09t3.86,10.48q0,9-5.21,13.55t-15.25,4.58H404l-.06-12h21.84q7.91-.31,8.22-4.14,0-3.26-5.15-4.58-17.38-4.33-21.12-8.63A15.29,15.29,0,0,1,404,32.51Q404,15.94,420,16.06Z"/></svg>