<svg id="圖層_1" data-name="圖層 1" xmlns="http://www.w3.org/2000/svg" viewBox="0 0 1008 1196.79"><defs><style>.cls-1{fill:#9b5639;}.cls-1,.cls-2,.cls-4{fill-rule:evenodd;}.cls-2,.cls-3{fill:#fff;}.cls-4{fill:#9b2928;}</style></defs><title>img_tit01</title><polygon class="cls-1" points="819.92 1194.94 43 1196.79 200.99 0 977 0 975.82 9.02 977.01 7.49 968.67 100.67 964.19 97.45 819.92 1194.94"/><path class="cls-2" d="M973,710.57q-6.4,7.21-12.8,14.41-32.3,36.2-64.54,72.45c-2.46,2.78-3.85,2.71-6.41.1-12.17-12.46-24.56-24.71-36.86-37.05-.95-.95-1.77-2-3.27-3.75l78.19-31-.33-1.05c-6.3,1.51-12.61,3-18.9,4.53-22.2,5.49-44.39,11-66.62,16.43a5.17,5.17,0,0,1-4.19-1c-11.56-11.67-23-23.47-34.39-35.27a18.47,18.47,0,0,1-1.8-2.6l.37-1.13,171,3.35.52,1.61"/><path class="cls-2" d="M830.42,793.42c2.06-3.93,3.59-6.85,5.13-9.77,2.78-5.26,5.6-10.5,8.34-15.79,1.23-2.38,2.45-3.31,4.65-.88,2.83,3.12,5.83,6.09,8.81,9.08,1.47,1.48,1.57,2.72-.38,3.82-7.67,4.33-15.32,8.68-23,13-.65.36-1.56.27-3.52.57"/><path class="cls-2" d="M203.48,352.12,108.15,245.66l.76-2.27,206.75-3.93c-1.69,2.77-2.34,4.43-3.49,5.61-12.26,12.71-24.69,25.25-36.85,38.05-3.64,3.83-7.19,4.53-12.32,3.23-29.44-7.51-59-14.65-88.48-21.87a12,12,0,0,0-8.36.52l89.77,36-52.46,51.14"/><path class="cls-2" d="M247.27,328.3l14.35-17.15,17.66,32.5-1.08,1.84L247.27,328.3"/><path class="cls-2" d="M457.3,825.31q-64.42,58.53-128.75,117.15c-1.73,1.58-4.34,3.3-3.27,5.9s4.4,2.84,7,2.91c6.48.17,13,0,19.46-.06,9.8,0,19.59,0,29.81,0v117.64H309.68l-9.23-44h-.54c-.41,3.14-.85,6.28-1.23,9.42-1.34,11.05-2.64,22.11-4,33.16-.09.71-.81,1.33-1.23,2-.44-.66-1.15-1.27-1.28-2-1.23-6.86-2.35-13.74-3.64-21.35-.45,1.29-.71,1.92-.89,2.57q-2.33,8.79-4.61,17.59c-.35,1.35-.79,2.41-2.61,1.55l-1-9.15h-.59c-.42,2.75-.76,5.52-1.32,8.24a8.3,8.3,0,0,1-1.45,2.36,7.29,7.29,0,0,1-.8-2.49c.4-5.88.91-11.76,1.4-17.64l-.45-.23-6,22.17-3.29-7.32-1.58,5-13.3-23.37c-2.53,1.72-4.91,3.32-7.28,4.95-9,6.18-17.89,12.42-26.91,18.52a8.3,8.3,0,0,1-4.37,1.35q-78.22.09-156.44.07a2.8,2.8,0,0,1-3.15-2.32c-1.37-4.26-2.91-8.47-4.5-13-.88.64-1.6,1.13-2.28,1.68-5.12,4.11-10.2,8.28-15.39,12.3a6.38,6.38,0,0,1-3.57,1.29c-8.65.11-17.3.06-25.95.07-1.25,0-2.64.16-2.12-2.13H5.56c7.15,0,14.31.08,21.46-.07a7.64,7.64,0,0,0,4.22-1.51c5.79-4.47,11.45-9.11,17.16-13.69.57-.46,1.2-.85,2-1.45l5.88,16.71h3q76.85,0,153.7-.06a7.32,7.32,0,0,0,3.88-1.19c11.28-7.66,22.49-15.42,33.72-23.14.61-.42,1.24-.81,2.18-1.41l11.84,20.82,1.8-6,3.29,7.36c.62-2.12,1.07-3.58,1.47-5,2-7.62,4-15.25,6.15-22.85.2-.71,1-1.26,1.48-1.88a6.29,6.29,0,0,1,.86,2.17c0,2.16-.41,4.31-.42,6.46,0,1.47-1,3.32,1.21,4.27.28.12.24,1.07.3,1.65a96.58,96.58,0,0,0,1.52,11.11c.81-3,1.63-6,2.43-9s1.61-6.28,2.52-9.38c.19-.66.87-1.17,1.32-1.75.5.63,1.33,1.2,1.46,1.89,1,5.39,1.8,10.81,2.68,16.22a1.56,1.56,0,0,0,.84,1.14q2.61-21.48,5.21-42.89c1.92-.77,2.22.2,2.52,1.64,3.21,15.53,6.53,31,9.71,46.58.35,1.72,1.06,2.12,2.64,2.12q31.81-.06,63.62,0c.81,0,1.63-.1,2.4-.16V953c-2.89,0-5.43,0-8,0-13.39.08-26.77.21-40.15.21a14,14,0,0,1-4.84-1c-4.09-1.56-5.09-4.9-2.34-8.28a56.28,56.28,0,0,1,6-6q62.88-57.25,125.83-114.43c.93-.84,43.38-40,44.63-40"/><path class="cls-2" d="M570.54,823.7Q624.74,873.62,679,923.47q9.73,8.94,19.46,17.89a15.74,15.74,0,0,1,2.31,2.6c2,2.92,1.57,6-1.53,7.68a17.29,17.29,0,0,1-7.49,2.21c-14.22.21-28.44.11-42.66.11h-3.76c.36,37.71.72,75.1,1.08,113H747q80,0,159.94.06c3.44,0,6.26-.59,8.74-3.11a85.79,85.79,0,0,1,6.62-5.55l11.24,9.27,26.38-42.36,11,41.67h18.63c1.21,0,2.67-.21,2,2.1-7.13,0-14.27,0-21.4-.09-.49,0-1.2-1.16-1.4-1.89-3-11.15-5.91-22.31-8.85-33.47-.2-.77-.46-1.53-.87-2.86l-25,40.11-11.73-9.69c-2.56,2.11-5,4-7.38,6.14a6.77,6.77,0,0,1-4.91,1.81q-121.89-.07-243.77,0H644.13c0-5,0-9.7,0-14.41q-.14-24.45-.31-48.9c-.14-16.88-.35-33.75-.51-50.63,0-3.24,0-3.25,3.32-3.25,15.05,0,30.11.07,45.16-.08a15.67,15.67,0,0,0,6.31-1.88c2-.95,2.29-2.79,1-4.63a18.27,18.27,0,0,0-2.52-2.74q-56.36-51.82-112.73-103.63c-4.89-4.5-9.74-9.06-14.7-13.48"/><path class="cls-2" d="M483.73,975.31a7,7,0,0,0-1.11,3.38c-.2,2.05-.31,4.12-.41,6.18a2.9,2.9,0,0,1-3.29,2.87,2.77,2.77,0,0,1-2.44-2.41,24.51,24.51,0,0,1,.3-6.71,22.24,22.24,0,0,1,3-8.27,19.76,19.76,0,0,1,9.16-7.87.76.76,0,0,1,1,.24c.43.49.91.94,1.44,1.47.49-.52,1-1,1.37-1.47a.79.79,0,0,1,1.08-.22,19.22,19.22,0,0,1,5.58,3.59,20.69,20.69,0,0,1,6.54,12.4,56.59,56.59,0,0,1,.41,6.35,2.71,2.71,0,0,1-.78,2,.78.78,0,0,0-.24.46,18.09,18.09,0,0,0,.05,2.6,1.18,1.18,0,0,0,1.67,1,8.5,8.5,0,0,0,1.42-.74c.59-.32,1.17-.67,1.75-1a.66.66,0,0,1,1,.25c.17.24.39.44.72.81.18-.26.32-.45.44-.65a.91.91,0,0,1,1.4-.31c.48.28.94.58,1.42.86a8.53,8.53,0,0,0,1.47.77,1.19,1.19,0,0,0,1.68-1,17.35,17.35,0,0,0,0-2.6c0-.15-.15-.32-.26-.45a2.7,2.7,0,0,1-.68-2.43c1-4.59,2.08-9.18,4.2-13.43a16.76,16.76,0,0,1,9.06-8.46,1,1,0,0,1,1.37.3,17,17,0,0,0,1.25,1.33c.5-.51,1-1,1.45-1.5a.74.74,0,0,1,.93-.22,15.85,15.85,0,0,1,5.35,3.38,19.77,19.77,0,0,1,6.43,13.67,48,48,0,0,1,0,5.06,2.9,2.9,0,1,1-5.78-.37,21.51,21.51,0,0,0-.16-6.23c-.11-.52-.29-1-.43-1.54H541v.52c0,2.64,0,5.29,0,7.93a18,18,0,0,1-.45,2.62,5.4,5.4,0,0,0-.11.88q0,13.74,0,27.48a3.54,3.54,0,0,1-1.89,3.45,3.39,3.39,0,0,1-4.92-2.69c0-.34,0-.67,0-1q0-11.48,0-23a2.15,2.15,0,0,0,0-.53c0-.12-.17-.21-.26-.31-.08.1-.19.18-.22.29a2.57,2.57,0,0,0,0,.54q0,11.63,0,23.25a3.55,3.55,0,0,1-1.55,3.23,3.41,3.41,0,0,1-5.25-2.42,7,7,0,0,1,0-1q0-12.55,0-25.1a11.61,11.61,0,0,0-.36-4.18,4.9,4.9,0,0,1-.15-1.65c0-2.6,0-5.21,0-7.81a.66.66,0,0,0-.15-.45c-.39,1.32-.81,2.63-1.17,4-.45,1.69-.85,3.39-1.26,5.09a3.12,3.12,0,0,1-1.13,1.7,1,1,0,0,0-.25.64,23.6,23.6,0,0,1-.27,2.95,4.27,4.27,0,0,1-3.9,3.33c-.33,0-.67,0-1.07.08v.66a60.06,60.06,0,0,1,0,6.26c-.57,5.43-.12,10.87-.27,16.3a2.06,2.06,0,1,1-4.1,0c0-3.74,0-7.47,0-11.21a5,5,0,0,0-.09-.67h-.21c0,.22-.05.44-.05.65q0,5.55,0,11.09a2.14,2.14,0,0,1-1.21,2.15,2,2,0,0,1-2.92-1.85c0-1,0-2,0-3,0-3.56.2-7.13,0-10.67-.22-3.16-.16-6.3-.24-9.45a.52.52,0,0,0,0-.15,14.88,14.88,0,0,1-1.94-.31,4.23,4.23,0,0,1-3.09-3.58c-.15-.85-.1-1.74-.16-2.61a.92.92,0,0,0-.25-.6,3.12,3.12,0,0,1-1.2-2.54c-.07-1.75-.11-3.5-.32-5.23a27.28,27.28,0,0,0-.82-3.46,1,1,0,0,0-.41-.54c0,.14,0,.28,0,.43a27.79,27.79,0,0,0,.94,8.18c1.11,5,2.1,10,3.14,15a4.54,4.54,0,0,1,.06.47c.12,1.37-.16,1.84-1.5,2.29a23.86,23.86,0,0,1-2.81.76c-.47.1-.55.29-.55.71,0,4.21,0,8.43,0,12.64a3.57,3.57,0,0,1-1.42,3.18,3.36,3.36,0,0,1-5.19-2.4,9.18,9.18,0,0,1,0-1q0-5.84,0-11.69v-.75H491c0,.26,0,.5,0,.73q0,6,0,11.92a3.47,3.47,0,0,1-2.56,3.64,3.07,3.07,0,0,1-3.93-2.51,8.18,8.18,0,0,1-.09-1.31c0-4.11,0-8.23,0-12.34,0-.56-.17-.74-.69-.84a23.88,23.88,0,0,1-2.69-.73c-1.33-.45-1.71-1-1.46-2.36q1.1-5.79,2.31-11.56c.54-2.6,1.27-5.17,1.7-7.8a31,31,0,0,0,0-4.78m49.66-10-.17-.12a9.94,9.94,0,0,0-.75.92,1.14,1.14,0,0,0-.24.72c.36,2.11.75,4.22,1.14,6.32,0,.07.09.14.18.28.29-1.92.46-3.77.86-5.56a2.07,2.07,0,0,0-1-2.53l-.05,0m.81,11a.85.85,0,1,0-1.7,0,.85.85,0,1,0,1.7,0m0,2.64a.86.86,0,0,0-.85-.89.87.87,0,0,0-.85.83.85.85,0,0,0,1.7.06m-.88,3.54a.84.84,0,0,0,.88-.85.85.85,0,0,0-.82-.85.87.87,0,0,0-.88.86.85.85,0,0,0,.82.84"/><path class="cls-2" d="M525.9,954.43a7.45,7.45,0,1,1,7.46,7.42,7.49,7.49,0,0,1-7.46-7.42"/><path class="cls-2" d="M498.87,954.4a7.44,7.44,0,1,1-7.43-7.46,7.5,7.5,0,0,1,7.43,7.46"/><path class="cls-2" d="M507.45,984.27a4.48,4.48,0,0,1,4.43-4.51,4.48,4.48,0,1,1,0,9,4.45,4.45,0,0,1-4.48-4.45"/><path class="cls-2" d="M620.85,986.7c-3.27,0-3.56,0-3.56,3.25,0,24.45-.28,48.9-.28,73.34v3.14a21,21,0,0,1-2.36.11c-19.29,0-38.54-.12-57.83-.09-2.11,0-2.18-1-2.18-2.59q.07-21,0-41.91c0-.95-.07-2-.12-3H470v48H404V987H392c-.09,0-.18.64-.18.88q0,31.43.08,62.84c0,5.16,0,10.3,0,15.46,0,1.78,1,1.77,2,1.45V989h8v80h70v-44.78c1,.55.71.78,1,1.06,6.83,7,13.54,14.07,20.35,21.13a4.3,4.3,0,0,1,1,1.63c2.81,8.81,10,13.93,16.25,20,1.24-1.11,2.24-2,3.19-2.88,5.18-5,10.83-9.66,13.15-16.92.16-.51.72-.9,1.13-1.31,7.6-7.57,15.83-15.14,23.44-22.69.44-.44,1.5-.81,2.5-1.58v45.66c0,.12.16.22.39.22,21,0,41.6.06,62.55.11,2.1,0,3-.83,3-3-.07-24.62.1-49.23.1-73.84V989h8v2.41c0,14.39-.42,28.77-.42,43.16,0,10.48.17,21,.14,31.43,0,1.47.28,2.54,2.28,1.75v-81c-3,0-6.27,0-9.15,0m-93.27,57.56c-3.11-7.61-12.35-8.74-17-1.29-6.43-7-12.22-6.84-16.77.85-7.22-7.48-14.39-14.83-22-22.83h78c-7.28,8-14.71,15.44-22.23,23.26"/><path class="cls-3" d="M290.55,484.95c-.21,7.24-1.19,16-4.85,24.32a106.9,106.9,0,0,1,8.5,8.5l-5.48,7a92.61,92.61,0,0,0-7.17-7.87,48.19,48.19,0,0,1-11.95,12.37,31,31,0,0,0-5.9-5.83,42.54,42.54,0,0,0,11.88-12.3c-3.58-3.3-7.31-6.68-10.47-9.49,1.12-4.22,2.32-9.56,3.3-15.32l-3.94.28-.77-7.94,6-.21c.7-5.06,1.27-10.12,1.55-14.76l8.29.35c-.42,4.43-1,9.21-1.76,14.06l5.06-.28v-4.43h7.8v4l3.65-.21v7.52Zm-14.06.91c-.84,4.64-1.69,9.21-2.6,13.21l5.41,4.57a57.89,57.89,0,0,0,3.44-18.2Zm53,14.41H315.43V520c0,4.29-.91,6.4-3.87,7.73s-6.82,1.41-12.3,1.34a30.63,30.63,0,0,0-2.81-7.94c3.51.07,7.59.07,8.71.07s1.55-.28,1.55-1.34V500.27H292v-7.94h14.76v-6.75a56.27,56.27,0,0,0,8.57-10.26H294.7v-7.59h26.07l2-.42,5.62,4.08a85.5,85.5,0,0,1-12.93,15.67v5.27h14.06Z"/><path class="cls-3" d="M412,474.26s0,2.81-.07,3.8c-.91,31.42-1.69,42.59-4.57,46.32-2,2.6-3.94,3.37-6.75,3.87a78.74,78.74,0,0,1-11,.14,19.69,19.69,0,0,0-2.74-8.15c4.5.42,8.64.42,10.47.42a3.75,3.75,0,0,0,3.09-1.19c2-2.25,3-12.79,3.73-37.6h-15a60.63,60.63,0,0,1-6.18,11.1,52.24,52.24,0,0,0-5.41-3.94v32.82H358.73V527h-7.59V474.76h7.94a75.35,75.35,0,0,0,2-11.32l9.14,1.27c-1.19,3.51-2.46,7-3.65,10.05h10.89v11.39c4.08-5.9,7.45-14.41,9.49-22.63l7.94,1.83a81.49,81.49,0,0,1-2.74,8.93Zm-42.1,7.8H358.73v11.39H369.9Zm0,32.4V500.69H358.73v13.78Zm23.33-3.8c-2-4.22-6.33-11.1-9.77-16.24l6.54-3.72a169.49,169.49,0,0,1,10.33,15.6Z"/><path class="cls-3" d="M497,518.89v8.22H433.79v-8.22h27.13V504.77h-19v-8.08h19V484.31H446.37a57.93,57.93,0,0,1-6.54,10.19,66.43,66.43,0,0,0-7.52-5c5.48-5.9,10.05-15.6,12.44-25.16l8.64,1.9c-1,3.37-2.11,6.68-3.3,9.91h10.82V463.51h8.79v12.65h23.69v8.15H469.7v12.37h21v8.08h-21v14.13Z"/><path class="cls-3" d="M530.08,497.32c-2.88-2-8.93-5.34-13.07-7.59l4.5-6.19c3.87,1.9,10.12,4.92,13.21,6.82ZM518,522.62a207.72,207.72,0,0,0,13.35-22.14l6.11,5.62c-3.72,7.38-8.15,15.39-12.44,22.21Zm15.11-44.49c-2.74-2.11-8.71-5.41-12.79-7.73l4.71-6c3.94,2,10.05,5.06,13.07,7Zm31.14,13.7v8.86h14.34v28h-7.94V526.2H549.47v2.88H542V500.69h14.34v-8.86H537.6v-8h18.7V475.6c-4.64.7-9.28,1.19-13.71,1.62a29.45,29.45,0,0,0-2.32-7.17c11.95-1.19,25.09-3.51,32.82-6.61l6.47,6.61a89.8,89.8,0,0,1-15.32,4.15v9.63h17.85v8Zm6.4,16.45H549.47v10.33h21.15Z"/><path class="cls-3" d="M603.66,497.46h26.78v31.28h-8.36v-3.16H611.6v3.51h-7.94Zm7.94,8v12.09h10.47V505.47Zm42.94-13.85H613.36V466.18h41.18ZM646,474.19h-24.6v9.49H646Zm18,23.26V528.8H655.6v-3.23H644.42v3.51h-8V497.46Zm-8.43,20.1V505.47H644.42v12.09Z"/><path class="cls-3" d="M697.28,480.1a20.43,20.43,0,0,1-6.68,9.84,29.94,29.94,0,0,0-5.41-5.34c5.34-4,6.11-9,6.11-13.07v-4.71c7.31-.42,15.74-1.48,20.66-3.16l4.64,4.85c-4.92,1.76-11.67,2.67-18.13,3.23,0,.7,0,1.48-.07,2.25h19.12v6.11h-6.75v7.17h-7.38V480.1Zm34.79,7.38V480.1h-6a19.15,19.15,0,0,1-4.64,8.5h19.4v29H731.5c6.61,2,13.28,4.29,17.71,6l-3.87,5.83a200.08,200.08,0,0,0-21.15-7.8l2.53-4.08h-18.2l4.57,2.67a127.23,127.23,0,0,1-22.63,9.28,56.78,56.78,0,0,0-4-7,112.52,112.52,0,0,0,18.13-4.92h-9.28v-29h25.16a34.85,34.85,0,0,0-5.55-3.73c4.5-4,5.06-9.14,5.06-13.14V466.6c7.87-.35,16.8-1.41,21.72-3.09l5.2,4.64C741.55,470,734,471,727,471.52v.35c0,.7,0,1.41-.07,2.11H749.5v6.11h-9.91v7.38Zm.28,6.11h-29v3.16h29Zm0,7.8h-29v3.23h29Zm0,7.94h-29v3.16h29Z"/><path class="cls-3" d="M240.51,574v52.22h-8.79v-3.65H192.79v3.73h-8.36V574h23.26V560.71h8.64V574Zm-47.72,8.43v11.74h14.9V582.43Zm0,31.84h14.9V602.32h-14.9Zm23.54-31.84v11.74h15.39V582.43Zm15.39,31.84V602.32H216.34v11.95Z"/><path class="cls-3" d="M307.21,596.91v5.76h16v23.61H314.8v-2H291v2.11h-8V602.67h15.88v-5.76H279.1c-.77,10.19-3,21.58-8.36,29.66a34.24,34.24,0,0,0-7.45-4.43c7.24-10.61,7.87-26.29,7.87-37.46V564.09h53.06v19.4h-17v6h20.45v7.45Zm-8.36-7.45v-6H279.59v1.19c0,1.48,0,3.09-.07,4.78Zm-19.26-18.06v4.78h36.12v-4.78ZM314.8,610H291v7H314.8Z"/><path class="cls-3" d="M393.17,567.11c6.47,6,14.83,14.69,18.48,20.59l-7.1,5.13a61.46,61.46,0,0,0-3.65-5.34c-37.32,1.83-42.31,2-46,3.23a64,64,0,0,0-2.74-8c1.83-.49,3.51-1.83,5.83-4.08a93.79,93.79,0,0,0,14.9-19.12l8.43,3.58A115.55,115.55,0,0,1,366,581l28.82-.91c-2.74-3.09-5.55-6-8.15-8.65Zm-36,28.25h47.37v30.78h-9v-3.51h-29.8v3.58h-8.57Zm8.57,8v11.25h29.8V603.37Z"/><path class="cls-3" d="M494.3,596.34s-.14,2.25-.28,3.3c-1.48,15.18-3.09,21.58-5.41,23.9a8.19,8.19,0,0,1-5.69,2.67,82.85,82.85,0,0,1-8.79.14,15.74,15.74,0,0,0-2.18-7.1c3,.28,5.69.28,7,.28s1.9-.07,2.6-.84c1.34-1.27,2.74-5.55,3.73-15h-6c-3.65,9.42-9.63,17.78-16.09,23.12a44.6,44.6,0,0,0-6.61-5.13,43.05,43.05,0,0,0,14.06-18h-6a64.58,64.58,0,0,1-20.94,21.08,45.25,45.25,0,0,0-6.19-6,49.07,49.07,0,0,0,17.71-15.11H449a66.4,66.4,0,0,1-10.89,8.5,56.1,56.1,0,0,0-6.33-5.9,51.45,51.45,0,0,0,16.87-14.2h-6.18V563.59h46.25v28.46H458.39c-.91,1.48-1.9,2.88-3,4.29ZM450.66,574.7h29.52v-4.36H450.66Zm0,10.68h29.52V581H450.66Z"/><path class="cls-3" d="M580.33,601.62c-1.19,13.63-2.39,19.54-4.57,21.79a7.48,7.48,0,0,1-5.27,2.6,60.69,60.69,0,0,1-8.36.14,18.27,18.27,0,0,0-2.25-7.45,55,55,0,0,0,6.82.35,3,3,0,0,0,2.32-.77c1.12-1.12,2-4.64,2.88-12.65H530.08c-1.12.84-2.32,1.62-3.58,2.39l6.4,2c-1.41,6-3.79,12.09-8.22,15.88l-6.54-4.15c3.72-3.16,6.33-8.08,7.59-13.28-1.69,1.05-3.44,2-5.2,2.88a51.44,51.44,0,0,0-4.36-7.31c11.6-5.34,20.45-14.06,26.92-24.11H520.52v-7.31h11.81a58.52,58.52,0,0,0-4.43-8.93l7.24-2.81a48.52,48.52,0,0,1,5.41,10.26L537,572.66h10.19a79.62,79.62,0,0,0,4.85-12l8.36,2.32q-1.79,5-4,9.7h13.77c-.7,4.22-1.76,9-2.67,12.86h8c-.77,4.22-1.69,9.14-2.53,12.93h7.52ZM542.09,610a48.82,48.82,0,0,1,1.9,12.93l-7.24.91a48.33,48.33,0,0,0-1.41-13Zm1.76-17.22a66.44,66.44,0,0,1-5.27,5.69h26.85c.42-1.69.84-3.65,1.26-5.69Zm8.64,16a55.8,55.8,0,0,1,3.37,11.39l-6.68,1.69A61.22,61.22,0,0,0,546,610.12Zm.14-28.75c-1.05,1.9-2.18,3.72-3.37,5.55H560c.42-1.69.84-3.58,1.19-5.55Zm7.8,38.16a39.82,39.82,0,0,0-4.15-9.49l5.76-2a36.49,36.49,0,0,1,4.57,9.28Z"/><path class="cls-3" d="M610.48,581.66c-1.69,1.62-3.37,3.16-5,4.57a48.27,48.27,0,0,0-5.06-6.75,56.7,56.7,0,0,0,16.31-19.12l7.38,2.46a65.88,65.88,0,0,1-5.62,9.21v29.59h-8Zm-9.42,38.16a74.91,74.91,0,0,0,6.68-15.46l7.45,3.09a130.89,130.89,0,0,1-6.25,16Zm40.76-2.39c3.37,0,4-.91,4.36-7.59a24.77,24.77,0,0,0,7.66,3c-1.05,9.84-3.37,12.23-11.39,12.23H628.89c-10,0-12.58-2.32-12.58-9.84V604.64h8.5V615c0,2.25.7,2.46,4.78,2.46Zm-9-44.07a44.28,44.28,0,0,1-6.54,8.29,50.05,50.05,0,0,0-6.11-5.27c4.43-3.73,8.15-9.7,10.12-15.74l7.66,1.9c-.42,1.27-.91,2.53-1.41,3.8h22l1.19-.21,6,1.27a118.06,118.06,0,0,1-5.55,12.72l-7.1-1.48c.7-1.48,1.48-3.3,2.25-5.27Zm4.85,9.28A47.17,47.17,0,0,1,627.63,597a61.33,61.33,0,0,0-6.18-4.92,32.39,32.39,0,0,0,8.71-11.6Zm-1.27,31.7c-1.55-3.3-5.41-8.43-8.86-12l6.4-3.58c3.51,3.3,7.59,8.15,9.35,11.6Zm11.88-12.93h-7.94V575.19h7.94Zm8.57-21.09a66.13,66.13,0,0,1,8.43,13.14l-7,3.72a78.69,78.69,0,0,0-8.08-13.7Zm1.41,22.56c3.16,5.06,6.54,11.67,7.52,16.24l-7.87,3.16c-.91-4.36-3.94-11.25-7-16.52Z"/><path class="cls-3" d="M709.37,598.24c-2.6.7-5.2,1.48-7.87,2.18v16.94c0,3.94-.7,5.9-2.88,7.24s-5.2,1.55-9.56,1.55a29.76,29.76,0,0,0-2.32-7.66,47.68,47.68,0,0,0,5.34.07c.84,0,1.19-.28,1.19-1.12v-14.9l-6.68,1.76-2-8c2.53-.49,5.48-1.19,8.72-1.9V581.59h-7.52v-7.73h7.52V560.64h8.22v13.21H708v7.73h-6.47v10.68l6.82-1.76Zm28.75,18.48c3.94,0,4.64-1.83,5.34-9.7a26.61,26.61,0,0,0,8.08,3.37c-1.12,10.54-3.87,14.41-12.65,14.41H723.63c-9.7,0-12.79-2.6-12.79-13.07V563.94h37.32v39.22h-8.79v-4.43H719.56v13.07c0,4.29.63,4.92,5,4.92Zm-18.55-44.56v18.62h6V572.17Zm19.82,0h-6v18.62h6Z"/><path class="cls-3" d="M799.19,596.63a70.13,70.13,0,0,1,3,7.73l-2.81,1h1.05v6.75c0,5.55-1.41,10.75-10.26,13.85a18.69,18.69,0,0,0-3.58-4.64c3.65-1,5.69-2.46,6.82-4.15h-7.94V606.54h5.06v6h4.22v-7.17h3.09c-.14-.49-.28-1.12-.42-1.76-9.63,1.19-11.32,1.55-12.44,2v-.07a41.67,41.67,0,0,0-1.41-4.64,9.1,9.1,0,0,0,3.65-1.9,37.4,37.4,0,0,0,3-2.6c-3.3.28-4.36.56-5,.84v-.07a35.9,35.9,0,0,0-1.69-4.78,4,4,0,0,0,2.32-1.27,20,20,0,0,0,4.15-5H780.7v40.13h-8v-63h27.13v22.84h-7.1l2.6,1.41a37.91,37.91,0,0,1-4.85,5.2l3.65-.14c.91-1.05,1.76-2.18,2.6-3.23l4.08,2.81a67.09,67.09,0,0,1-9.14,8.15l4.36-.42a21.27,21.27,0,0,0-.84-2.25ZM780.7,568.93v3.3h11.25v-3.3Zm0,11.6h11.25V577.3H780.7Zm51.38,36.13c0,4-.56,6.33-3,7.73s-5.62,1.55-10.33,1.55a31.49,31.49,0,0,0-1.76-6.82h-3.37v-2h-4.22v8.22h-5.83v-20h.14c-.35-1.12-1-3.16-1.48-4.36a7.21,7.21,0,0,0,3.72-1.9c.56-.42,1.62-1.34,3-2.6-3.3.28-4.36.56-5,.84a30.11,30.11,0,0,0-1.69-4.78,5.08,5.08,0,0,0,2.32-1.27,25.75,25.75,0,0,0,4.15-5.13h-4.29V563.31h27.62ZM819,617.85a32.69,32.69,0,0,0,3.79,0c.91,0,1.19-.35,1.19-1.27V586.15H811.27l2.74,1.48a36.38,36.38,0,0,1-4.71,5.13l3.44-.14a40.9,40.9,0,0,0,2.88-3.37l4,2.88a84.67,84.67,0,0,1-9.07,8.36l4.29-.42c-.35-.77-.63-1.55-1-2.25l3.94-1.27a70.45,70.45,0,0,1,3.3,7.73L817,605.9c-.21-.63-.49-1.48-.7-2.32a112.81,112.81,0,0,0-11.46,1.76h4.64v7.17h4.22v-6H819Zm-6.61-48.92v3.3H824v-3.3Zm0,11.6H824V577.3H812.4Z"/><polygon class="cls-4" points="1008 102.5 963.53 102.5 977 0 1008 102.5"/></svg>