<svg id="圖層_1" data-name="圖層 1" xmlns="http://www.w3.org/2000/svg" xmlns:xlink="http://www.w3.org/1999/xlink" viewBox="0 0 434.88 149.32"><defs><style>.cls-1{fill:none;}.cls-2{opacity:0.5;}.cls-3{clip-path:url(#clip-path);}.cls-4{fill:#fff;}</style><clipPath id="clip-path"><rect class="cls-1" width="434.88" height="149.32"/></clipPath></defs><title>join_us</title><g class="cls-2"><g class="cls-3"><path class="cls-4" d="M6.75,32.6q3.75-.69,7.09-1.18t5.94-.76q2.61-.28,4.34-.42t2.22-.14a2,2,0,0,1,2.22,2.22v68a107.13,107.13,0,0,1-1,15.64,35.28,35.28,0,0,1-3.89,12,30,30,0,0,1-8.06,9.21,58.26,58.26,0,0,1-13.52,7.4l-2-4.31a31.19,31.19,0,0,0,9-6.85A23.57,23.57,0,0,0,13.77,125a39.69,39.69,0,0,0,1.7-10.25q.24-5.63.24-12.58V42.54a10.84,10.84,0,0,0-.38-3.16,4.4,4.4,0,0,0-1.11-1.91,4,4,0,0,0-1.74-1,8.54,8.54,0,0,0-2.26-.28,22.51,22.51,0,0,0-3.06.21Z"/><path class="cls-4" d="M87.38,29.55a44.85,44.85,0,0,1,16.2,2.78,34,34,0,0,1,12.34,8,35.69,35.69,0,0,1,7.89,12.89,50.46,50.46,0,0,1,2.78,17.31,52.39,52.39,0,0,1-3.09,18.7,37.07,37.07,0,0,1-8.79,13.66A37.77,37.77,0,0,1,101,111.33a52.66,52.66,0,0,1-17.9,2.88,43.64,43.64,0,0,1-16.23-2.88,34.38,34.38,0,0,1-12.37-8.24A36.21,36.21,0,0,1,46.61,90a51.81,51.81,0,0,1-2.75-17.45A51.59,51.59,0,0,1,47,54a36.15,36.15,0,0,1,8.79-13.49,37.35,37.35,0,0,1,13.73-8.2A54.47,54.47,0,0,1,87.38,29.55Zm-3.48,5.84A22.36,22.36,0,0,0,64.27,45.6a33.28,33.28,0,0,0-4.55,10.71,53.42,53.42,0,0,0-1.46,12.58,66.58,66.58,0,0,0,1.56,14.39,40.88,40.88,0,0,0,5,12.65,27.54,27.54,0,0,0,8.83,9,23.89,23.89,0,0,0,13.07,3.44,22.49,22.49,0,0,0,11.68-2.88,23.92,23.92,0,0,0,8-7.65,34.48,34.48,0,0,0,4.55-10.91,54.78,54.78,0,0,0,1.46-12.69A65.17,65.17,0,0,0,110.78,60a39.71,39.71,0,0,0-5-12.44A26.92,26.92,0,0,0,97,38.72,24.46,24.46,0,0,0,83.91,35.38Z"/><path class="cls-4" d="M134.31,32.6q3.75-.69,7.13-1.18t6-.76q2.61-.28,4.34-.42T154,30.1a2,2,0,0,1,2.22,2.22v78a1.78,1.78,0,0,1-1.67,1.95q-1.18.21-2.61.38t-2.78.28c-.9.07-1.74.12-2.5.14l-1.7,0q-1.67,0-1.67-1.74V42.54a10.84,10.84,0,0,0-.38-3.16,4.41,4.41,0,0,0-1.11-1.91,4.05,4.05,0,0,0-1.74-1,8.53,8.53,0,0,0-2.26-.28,22.5,22.5,0,0,0-3.06.21Z"/><path class="cls-4" d="M185,28.92a1.53,1.53,0,0,1,1.18.45c.28.3.6.68,1,1.15l48,63.74-1.74-62.35q0-.83,1.11-.9t3.34-.42a40.35,40.35,0,0,1,4-.21q1.11,0,1.11,1L241.36,99.2v12.72c0,.56-.37.86-1.11.9s-1.77.16-2.82.21-2.1.07-3.16.07a1.67,1.67,0,0,1-1-.24,2.73,2.73,0,0,1-.7-.8L184.22,47.83l1.74,64c0,.56-.37.86-1.11.9s-2,.25-3.44.35-2.77.14-3.93.14q-1.11,0-1.11-1l1.74-72.43-5.7-7.79a1,1,0,0,1-.28-.76q0-.9,1.25-1.25t2.85-.38q1.74-.17,3.51-.31T183,29C183.94,28.94,184.61,28.92,185,28.92Z"/><path class="cls-4" d="M308.85,86.83a23.48,23.48,0,0,0,1.32,8.79,14.42,14.42,0,0,0,3.89,5.77,14.83,14.83,0,0,0,5.84,3.13,26.6,26.6,0,0,0,7.23.94,31.1,31.1,0,0,0,9.84-1.6,75.21,75.21,0,0,0,9.63-4V33.58a1.84,1.84,0,0,1,1.67-1.95q1.11-.21,2.54-.35t2.82-.24l2.54-.17c.76,0,1.33-.07,1.7-.07q1.67,0,1.67,1.74v77.79a1.78,1.78,0,0,1-1.67,1.95q-1.18.21-2.54.38t-2.64.28c-.86.07-1.63.12-2.33.14l-1.6,0q-1.6,0-1.67-1.74l-.49-5.7a81.56,81.56,0,0,1-13.73,6,45.78,45.78,0,0,1-14.56,2.4,29.63,29.63,0,0,1-8.69-1.25,19.75,19.75,0,0,1-7.12-3.82,18.1,18.1,0,0,1-4.8-6.57A23.08,23.08,0,0,1,295.92,93V42.54a10.84,10.84,0,0,0-.38-3.16,4.41,4.41,0,0,0-1.11-1.91,4,4,0,0,0-1.74-1,8.53,8.53,0,0,0-2.26-.28,24.7,24.7,0,0,0-3.06.21L287,32.6q3.75-.69,7.13-1.18t6-.76q2.61-.28,4.34-.42t2.22-.14a2,2,0,0,1,2.22,2.22Z"/><path class="cls-4" d="M421.12,50.54A20.71,20.71,0,0,0,418.86,44a15.19,15.19,0,0,0-9-7.23,21.49,21.49,0,0,0-6.22-.87,24.13,24.13,0,0,0-6.26.8,15.12,15.12,0,0,0-5.28,2.54,12.5,12.5,0,0,0-3.65,4.45,14.31,14.31,0,0,0-1.36,6.46,10.09,10.09,0,0,0,1.6,5.73A15,15,0,0,0,392.93,60a33.9,33.9,0,0,0,6.15,3.16q3.48,1.39,7.23,2.78,4.17,1.6,8.34,3.44a33.65,33.65,0,0,1,7.47,4.48,21,21,0,0,1,5.35,6.4,19.08,19.08,0,0,1,2.05,9.25A24.49,24.49,0,0,1,428.17,98a20.32,20.32,0,0,1-3.75,6.43,22.48,22.48,0,0,1-5.6,4.62,32.82,32.82,0,0,1-6.88,3,43.54,43.54,0,0,1-7.68,1.63,65.48,65.48,0,0,1-7.89.49,77.73,77.73,0,0,1-9.28-.56,90.64,90.64,0,0,1-9.21-1.6,1.78,1.78,0,0,1-1-.59,1.85,1.85,0,0,1-.45-.94q-.14-1.46-.28-4.28t-.24-5.74q-.1-2.92-.17-5.28t-.07-2.78l3.48-.35a19.31,19.31,0,0,0,2.19,7.23,16,16,0,0,0,4.31,5,17.55,17.55,0,0,0,6,2.92,27,27,0,0,0,7.26.94,28.26,28.26,0,0,0,6.74-.8,17.14,17.14,0,0,0,5.8-2.57,13.27,13.27,0,0,0,4.07-4.55A13.81,13.81,0,0,0,417,93.57a9.48,9.48,0,0,0-1.6-5.56,15.67,15.67,0,0,0-4.28-4.07A34.37,34.37,0,0,0,405,80.78l-7.12-2.85q-4.17-1.67-8.34-3.58a34,34,0,0,1-7.47-4.62,21.4,21.4,0,0,1-5.35-6.57,20,20,0,0,1-2-9.49,22.32,22.32,0,0,1,2.68-11.4,21.39,21.39,0,0,1,7-7.37,29.67,29.67,0,0,1,9.87-4,53.92,53.92,0,0,1,11.3-1.18,64.9,64.9,0,0,1,8.34.59,78.24,78.24,0,0,1,8.48,1.56,1.79,1.79,0,0,1,1,.59,1.87,1.87,0,0,1,.45.94q.14,1.46.28,4.07l.28,5.28q.14,2.68.21,4.83t.07,2.57Z"/></g></g></svg>