<svg id="圖層_1" data-name="圖層 1" xmlns="http://www.w3.org/2000/svg" xmlns:xlink="http://www.w3.org/1999/xlink" viewBox="0 0 381.43 435.68"><defs><style>.cls-1{fill:none;}.cls-2{fill:#231815;}.cls-3{fill:#8d7237;}.cls-4{clip-path:url(#clip-path);}.cls-5{fill:url(#linear-gradient);}.cls-6{clip-path:url(#clip-path-2);}.cls-7{fill:url(#linear-gradient-2);}.cls-8{clip-path:url(#clip-path-3);}.cls-9{fill:url(#linear-gradient-3);}.cls-10{clip-path:url(#clip-path-4);}.cls-11{fill:url(#linear-gradient-4);}.cls-12{clip-path:url(#clip-path-5);}.cls-13{fill:url(#linear-gradient-5);}.cls-14{clip-path:url(#clip-path-6);}.cls-15{fill:url(#linear-gradient-6);}.cls-16{clip-path:url(#clip-path-7);}.cls-17{fill:url(#linear-gradient-7);}.cls-18{clip-path:url(#clip-path-8);}.cls-19{fill:url(#linear-gradient-8);}.cls-20{clip-path:url(#clip-path-9);}.cls-21{fill:url(#linear-gradient-9);}.cls-22{clip-path:url(#clip-path-10);}.cls-23{fill:url(#linear-gradient-10);}.cls-24{clip-path:url(#clip-path-11);}.cls-25{fill:url(#linear-gradient-11);}.cls-26{clip-path:url(#clip-path-12);}.cls-27{fill:url(#linear-gradient-12);}.cls-28{clip-path:url(#clip-path-13);}.cls-29{fill:url(#linear-gradient-13);}.cls-30{clip-path:url(#clip-path-14);}.cls-31{fill:url(#linear-gradient-14);}</style><clipPath id="clip-path"><path class="cls-1" d="M318.52,188.45c.17-.86,1.69-1.67.56-2.59.8-.4.36-1.42.52-2.16l-.41-.46a11.33,11.33,0,0,0-.67,5.2"/></clipPath><linearGradient id="linear-gradient" x1="3300.87" y1="6349.42" x2="3301.87" y2="6349.42" gradientTransform="matrix(0, -638.26, 638.26, 0, -4052235.21, 2107165.03)" gradientUnits="userSpaceOnUse"><stop offset="0" stop-color="#995539"/><stop offset="0.08" stop-color="#b57543"/><stop offset="0.18" stop-color="#b57543"/><stop offset="0.27" stop-color="#c99260"/><stop offset="0.34" stop-color="#f1c995"/><stop offset="0.41" stop-color="#f7d4ad"/><stop offset="0.48" stop-color="#f1c995"/><stop offset="0.59" stop-color="#c99260"/><stop offset="0.67" stop-color="#b57543"/><stop offset="0.77" stop-color="#a8673f"/><stop offset="0.83" stop-color="#b26e42"/><stop offset="0.88" stop-color="#c98951"/><stop offset="0.93" stop-color="#d6995e"/><stop offset="1" stop-color="#9b5639"/></linearGradient><clipPath id="clip-path-2"><path class="cls-1" d="M316,167.83c.09.88,1.53,1.82.31,2.63l.42.45c.1.62-.46,2.6.28,3.5.5.5.87,1.17,1.7,1,.82-.58.39-1.73.56-2.59L317.56,171c1.24-1.42-2.36-5.78,2-5.15.85-2.45,1.06-6.1-1.41-7.48l-.87,0c-1.76,3.1,1.07,7.25-1.3,9.54"/></clipPath><linearGradient id="linear-gradient-2" x1="3300.75" y1="6349.53" x2="3301.75" y2="6349.53" gradientTransform="matrix(0, -657.36, 657.36, 0, -4173576, 2170132.69)" xlink:href="#linear-gradient"/><clipPath id="clip-path-3"><path class="cls-1" d="M314.6,130.26c-.69,2.59.76,5.45,1.82,7.94-.73,1.58,1.14,3.85-.26,5.66.75.6.78,1,.35,1.76.31,1.93,0,4.54,2.38,5.34,2.83-1.79,1-5.5-1.45-6.61-1.08-3.1,1.13-7.45-1.29-10.09,2.69-1.53-1-2.88-1.11-4.41l-.87,0Z"/></clipPath><linearGradient id="linear-gradient-3" x1="3300.76" y1="6349.52" x2="3301.76" y2="6349.52" gradientTransform="matrix(-0.01, -655.55, 655.55, -0.01, -4162101.26, 2164261.89)" xlink:href="#linear-gradient"/><clipPath id="clip-path-4"><path class="cls-1" d="M311,162.38c2.22,4.07-1.55,9.18.74,12.68.08,1-.46,2.3.29,3.07,1.31-2.86,0-5.81,0-8.73l1-2.14c-.28-1.41,1.08-4.44-1-5.72.42-1.42-.46-2.33-.71-3.52-.7,1.15,1.17,3-.2,4.35"/></clipPath><linearGradient id="linear-gradient-4" x1="3300.72" y1="6349.56" x2="3301.72" y2="6349.56" gradientTransform="matrix(0, -662.25, 662.25, 0, -4204655.16, 2186266.53)" xlink:href="#linear-gradient"/><clipPath id="clip-path-5"><path class="cls-1" d="M304.52,121.52a3.55,3.55,0,0,0,.79,1.78c-2,1-.11,2.61-.17,3.92,1.52-1.8,3.53.95,4.25,2.38a3.45,3.45,0,0,1-1,1.7l-1.31-.06c-.11,1.52,2.81,1.61,2.46,3.6,1.86-.84-.88-2.66.61-3.9.3-3.74-1.35-6.74-3.05-9.74.16-.56-.28-1.45.52-1.72a4.27,4.27,0,0,1,3.79,2.79l-.45.42c.72.47,1,1.83,2.12,1.4,1.6-1.54-1.32-2.5-.24-4.37l2.29-2.52a6.76,6.76,0,0,1-4.64-3.7,5.06,5.06,0,0,1-4.35-.2c-.44-1.09-1.44-1-2.43-1a4.52,4.52,0,0,1-1.45-.06c-.63,4.33,8.48,6.31,2.2,9.26"/></clipPath><linearGradient id="linear-gradient-5" x1="3300.72" y1="6349.55" x2="3301.72" y2="6349.55" gradientTransform="matrix(0, -662.1, 662.1, 0, -4203750.64, 2185783.06)" xlink:href="#linear-gradient"/><clipPath id="clip-path-6"><path class="cls-1" d="M310.31,109.13c-1.13,1-.52,1.81-.13,3,.39-1.27,1.52-1.23,2.67-1.18a3.64,3.64,0,0,0,2.19-.34,5.38,5.38,0,0,0-4.15-1.54l-.58,0"/></clipPath><linearGradient id="linear-gradient-6" x1="3300.81" y1="6349.47" x2="3301.81" y2="6349.47" gradientTransform="matrix(-0.01, -647.14, 647.14, -0.01, -4108639.55, 2136474.1)" xlink:href="#linear-gradient"/><clipPath id="clip-path-7"><path class="cls-1" d="M310.25,149.26c.41.46,1.15,1.5,1.72.52-.76-2.44.17-3.88-1-6.16-2.33,1.33,2,3.67-.69,5.64"/></clipPath><linearGradient id="linear-gradient-7" x1="3300.71" y1="6349.57" x2="3301.71" y2="6349.57" gradientTransform="matrix(0, -664.96, 664.96, 0, -4221925.22, 2195215.64)" xlink:href="#linear-gradient"/><clipPath id="clip-path-8"><path class="cls-1" d="M299.94,97.31l.1-2.17,1.3.06-.09,2.17ZM185.55,31.53c-.76,2.24,5,4.72-.22,4.79l-.91.83a2.73,2.73,0,0,0,2,.49,2.08,2.08,0,0,1,2.25,1c-1,.43,0,1.14-.08,1.74l13,1a3.06,3.06,0,0,1,2.47-.53c1.16.09,2.17.18,2.44-1.86a2.29,2.29,0,0,0,1.86-.08c.71-.25,1.37-.5,2.06.26-.46.55-1.39.9-1.38,1.69,4.18,2,10,2.67,14.68,3.27l.45-.41-1.68-1.39c1.48-1.11,2.9.44,4.33.63l.45-.42c1.54,3.48,6,2.54,8.51,4.75,1.4,0,2.7.12,3.43,1.46,5,.79,8.84,4.19,13.24,6.27,1.53-1,2.06-3.14,4-1.56.09.88,1.53,1.82.32,2.63,2.63.73,4.82,2.4,7.73,2.53l.46-.41L266.72,60l-.91.83c.67,2.57,5.21.42,4.61,4.14a7.64,7.64,0,0,1,3.8,2.79c-.14,1.22-1.49,1.11-2.25,1.64a2.5,2.5,0,0,0,1.6,3.13l2.62.12c-.12-.39.24-.6.47-.85.48,0,1.05-.08,1.29.5-2,1.21-.14,3.18-.22,4.79.45,1.19,1.71,1,2.76.85,1.3-.21,2.28-.42,1,1.94,3,.88,1.88,4.76,4.95,6.33l0,.87c3.28,2.68,4.22,6.21,7,9,.27,3.63,3.57,4.87,4.43,8.05,2.69.38,0,3.44,2,4.45,2.47-.63.41-5.35,4.13-4.61,1,.52-.41,2.29,1.2,2.23.41-1.16-.43-2.94-.67-4.39l3.64-3.33c-.12-2.05,1.41-5-1.9-6.19a4.8,4.8,0,0,1-2.9.31,11.31,11.31,0,0,0-1.48-.07c-.28-.75-1.17-1.23-.77-2.22a3.38,3.38,0,0,1,2.62-.74c-1.59-1.39,0-4.77-3.24-5A24.38,24.38,0,0,1,294,74.8c.91-1.41,0-1.4-1.08-1.39-.75,0-1.58,0-1.88-.49-1.11-2.54-2.67-6.58-6.26-6.39-.23-.84.44-1.2.95-1.7-1.42-1.33-4-2.75-5-5a2.39,2.39,0,0,1-2,.35,6,6,0,0,0-1,0c-.52-.28-.4-.85-.38-1.33.3-.41,1-.38,1.69-.36,1,0,1.81.07,1-1.26a7.62,7.62,0,0,1-4.75-.05,10.24,10.24,0,0,0-4-.34c-.84-.65.17-2.74-1.64-2.26-1.34.68-2.56-1.29-3.84-1.92-.53-1.68,1.43-2.68-.26-3.94l-.46.42c-2.84-1.78-7.58-.25-9-4.33,0-.48.18-1-.38-1.32-.89.26-1.54,1.15-2.65.75-3.12-2.5-5.14-6.08-8.89-6.07-.42-1.37-1.9-.48-2.55-1.42A14.85,14.85,0,0,1,234.26,35c-1.41.43-2.68-.16-4-.75a7.66,7.66,0,0,0-3.35-.89c.15.62-.6.85-.93,1.27-2.86-1.35-7.21.46-9.5-2.17l-.46.41c-.45-1.68-2.25-.36-3-1.44-1.81,2.38-3.87,1.63-6,.87-1.5-.54-3-1.08-4.51-.47l-.42-.46a20.48,20.48,0,0,1-7.83-.11,33.27,33.27,0,0,0-4.7-.45,11.2,11.2,0,0,0-4,.68"/></clipPath><linearGradient id="linear-gradient-8" x1="3300.74" y1="6349.54" x2="3301.74" y2="6349.54" gradientTransform="matrix(0, -659.04, 659.04, 0, -4184324.81, 2175709.14)" xlink:href="#linear-gradient"/><clipPath id="clip-path-9"><path class="cls-1" d="M272.81,253.48c.88,4.08-3,3.12-4.28,6.14-2.65-1.39-2.36,2.19-3.71,3.24a2.65,2.65,0,0,0,4,1.15c3.29-1,.63-7.13,5.19-6.59l.42.51c3.1-2.64,3.41-6.67,6.2-9.46a3.8,3.8,0,0,0-1.76-.51c-2.71,0-3.46,4.32-6,5.52"/></clipPath><linearGradient id="linear-gradient-9" x1="3300.77" y1="6349.51" x2="3301.77" y2="6349.51" gradientTransform="matrix(0, -654.8, 654.8, 0, -4157390.35, 2161767.6)" xlink:href="#linear-gradient"/><clipPath id="clip-path-10"><path class="cls-1" d="M267.11,251.75l1.33.06c1.6-3,6.37-5.12,6.16-8.49-2.49,2.81-5.93,5.14-7.5,8.43"/></clipPath><linearGradient id="linear-gradient-10" x1="3300.79" y1="6349.5" x2="3301.79" y2="6349.5" gradientTransform="matrix(0.02, -651.4, 651.4, 0.02, -4135896.21, 2150416.48)" xlink:href="#linear-gradient"/><clipPath id="clip-path-11"><path class="cls-1" d="M126.86,274.19a7.92,7.92,0,0,0-2.13-2c.11-1.31-.12-3.22,1.49-3.34,2,.14,2.23,2.68,3.38,4,2.59,1.73,5,1.3,8,.85,2.48,1.33,4,6.17,6.89,5.18a26.77,26.77,0,0,1,11.83,3.95,2.48,2.48,0,0,1,3.11.14c4.36-2.1,7,2.37,11,2.44a12.6,12.6,0,0,1,4.91-.27,21.62,21.62,0,0,0,2.21.11c1.62-.32,2.63.75,4,1.15.11.44-.25.67-.49.95l-3.56-.16a4.36,4.36,0,0,1-2.65.34,4.11,4.11,0,0,0-2.71.4,34.66,34.66,0,0,0-8,.12c.54-1.19-.82-1.64-1.22-2.49a33.83,33.83,0,0,1-13.65-3.05c-5-1.1-11.65-.13-14-5.5a10,10,0,0,0-1.51,0,4.25,4.25,0,0,1-1.59-.11c-1.13.95-2,.39-2.84-.17a2.69,2.69,0,0,0-2.46-.56c.12-.67-1-1.45.09-1.95M101.08,254c.52.54,1.15.37,1.83.2a2.84,2.84,0,0,1,1.72,0c1.82,1.21,1.45,3.29,2,5,1.06,2.75,3.46,2.74,5.75,2.74,1.94,0,3.8,0,4.73,1.64a7.52,7.52,0,0,0,2.44,5c0,.54.08,1.17-.5,1.44-.27-.6-.84-.58-1.4-.55a2.89,2.89,0,0,1-.8,0c-1.14.54-.93,1.76-1,2.88l-1.33-.06c-.78-.38-.25-1.33-.36-2,3.21-1,.09-3.94-1.09-5.41s-2.62-1.16-4.07-.92-3.18.52-4.28-1.4c-1.81-.47-2-3-1.14-4.43-.43-.36-.66-1.2-1.29-1-1.13-.68-2.93-.23-2.11-2.53a.52.52,0,0,0,.18,0c.29,0,.49-.29.73-.48M77.66,220.81l.44,0L78,222.78ZM56,128.72c.24-.28.6-.51.49-1l-.42-.51a3,3,0,0,1,2.73-1.34c.56.32.4.95.38,1.48a24.73,24.73,0,0,1-3.84,6.16c-.77-.86-2.56-.36-2.58-2.07-1.13.54-.93,1.76-1,2.88.67.86,1.66,1.64,1.2,3-3.16,2.1-1.28,6.77-4,9.08.93,2.87-2.4.92-2.38,3.3,1.59,0,2.14,1.28,2.7,2.61s1.25,2.93,3.3,2.54a3.76,3.76,0,0,1,2.77-2.31c1.39.84.24,1.52-.1,2.44-2.52,1.54.92,4.22-1.6,5.77l-1.27-1.52a3.43,3.43,0,0,0-1.49,3.35c.47.6,1.12,1.07.8,2-1.55.71-1.38,3.06-3.24,2.78l.85,1c-.89,1,.59,2.76-.62,3.87a2,2,0,0,1-3.11-.14c-.24,2.43-1.85,4.79-.77,7.27,2.67,2,1.9,5.3,1.85,8.37-.39,1.79,1.43,3.86,2.87,5.48-1.13,2.38,1.72,4.32.56,7.34,3,2.23,3.82,6.21,3.09,10.37l-.46.47c.26,1-.83,3.52,1.13,4.44-1.14,3.5,3.36,3.47,2.36,6.93,2.64,3.53-2,7,0,10.23,1.76-1.53,2.84,1,4.4,1.17-.55,4.27,4.69,2.45,4.6,6.54.47,1,1.22.66,2,.37s1.67-.58,2.38.32C70,244.3,73,243,73.88,245.49a4.35,4.35,0,0,1,3,2.09c-1.1,3.8,3.39,2.78,3.73,6,.46-.32.77-1.14,1.38-.91l.42.51c.6-.56.64-1.44,1.42-1.89.49,0,1.07-.09,1.31.55-1.16,2.87,1.64,5.92.49,8.79-.29,3.49,3.85,1.29,4.26,4.09.89-3,4.55-2.13,7.21-2.11,1,.09,2.14-.15,2.62,1.09-.63,2.07-1.18,3.5.2,5.37l4.29,3.6c.27-1.16-1-2.19.57-2.9a4.23,4.23,0,0,1,2.94.26c1.4.49,2.69,1,3.77-.94,2.66,2-1.21,5,.54,7.82.72,1.74,2.29,1.42,3.46,2.1,0-.53,0-1.17.51-1.44,1.58-.46,2.31,1.08,3.48,1.62,1.2-1,2.92-1.77,4.06-1.28.7,2.32-2.58,3.88-.26,5.84.48-.71.93-1.86,1.86-1.86,3.48,1.61,6.71,1.13,10.17,1.43a3.45,3.45,0,0,1-1.47,2.85c-.4.13-.61-.27-.86-.53l-.47.47-.42-.51-.47.47c4.18,1,5.7,4.88,10,4.34a2.93,2.93,0,0,1,1.14.29c.67.27,1.33.54,2-.15,1.67,3.58,5.86,1.39,7.82,4.25.18-1-1.41-1.28-.78-2.47s1.77-1,2.87-.85a5,5,0,0,0,1.61.07c.38,3.57,4.08,1.31,5.16,4.13,1.43-1.17,2.38-.29,3.37.58a3.16,3.16,0,0,0,2.34,1.13c-.09-1-2.28-.79-1.67-2.51.76-1.16,1.95-1,3.15-.83a6,6,0,0,0,1.78.08c.82,2.28,3.47,2.1,5.19,3.16.74-.55.39-2.56,1.87-1.87,1.18.5.51,2.56,2.13,2-.07-1.23.17-2.77,1.47-2.86,2,.09,4.48,1.18,5.39-1.21,1.48-.42,2.8-3,4.51-1.26.44,1.82-1.18,2.58-2,3.81a4.64,4.64,0,0,1,2.14.68c1.15.58,2.23,1.16,3.17,0a3.54,3.54,0,0,0,4,.18c-.82-2.62,1.89-1.38,2.77-2.31,2.62,1.19,4.44.1,7.06,1.29l.47-.47-.42-.51c1-.1,2.17-1.7,3.14-.35l1.26,1.52c1.14-1.7,1.42-4.91,4.2-4.2a2.88,2.88,0,0,0,3-.27c1-.54,2-1.07,3.19.07,1.2-.09,2.43-1.7,3.57-.33l.47-.47c.24.59.82.52,1.31.55.92-.59.3-1.69.11-2.43,1.25-1.21,4.14-1,3.72-3.73,1.3-1.25,3.52-1.06,4.15-3.22,1.21.73,3.18.58,3.44,2.59a2.66,2.66,0,0,1,2.94-.89,2.78,2.78,0,0,0,2.92-.79c-.86-.68-.15-1.72.11-2.44,1.37-1.74,5.37-.64,4.62-3.69.8-1.6,1.52-1,2.24-.38s1.44,1.21,2.24-.39a3.83,3.83,0,0,0,.93,0c.66,0,1.33,0,1.73.57.81-.31.37-1.3.53-1.92l-.42-.51c3.94-1.67.94-5,3.88-7.14,1,1.17,2.11-.53,3.15-.83-.26-1.13-1.81-2.37-.73-3.44-2.4-1-3.39,2.14-5.51,3.65-2.28.33-4,4.25-6.34,2.64-2.62,1.83-4.88,4.7-7.81,5.49-1.75,4.35-6.5,4.14-10,5.39-3.28-.2-2-4.47-1.49-6.4-1.15-1-2.39.87-3.62,1.3a9.61,9.61,0,0,0-5.9,2.66c-.93-.65-1.9-.22-2.9.21a4.76,4.76,0,0,1-2,.54c-1.72,1.58-4.38.39-5.9,2.66l-5.28-1.22a19.78,19.78,0,0,1-14.32,1.8c-5,1.79-9.84,1.08-14.8.36a42.81,42.81,0,0,0-11.43-.57c-.46-1.87-2.3-.4-3-1.59a38,38,0,0,1-7.52-.83c-.9-3.07-3-2.72-5.14-2.37-1.57.26-3.2.51-4.51-.5-.33.15-.89-.09-1.46-.34s-1.25-.52-1.64-.29c-.34-1.33-2.28-.79-1.67-2.51-3.93-1.64-9.17-1.14-11.79-4.92a4.89,4.89,0,0,1-2.85-1c-1.09-.65-2.12-1.29-3.3-.78-1.12-1.7-3.75-3.62-4.18-6-2.05.37-3.45-.39-4.93-1.15a8.42,8.42,0,0,0-4.74-1.23c-3.57-.84-2.7-5.14-4.56-7.52-2.31,1.95-5.35.15-7.53-.82-.37-2.4,1.55-3.63,1.6-5.78-2.55-1.57-4.8-5.18-8.3-3.29-2.84-2.18.89-4.93-.58-6.85-.78.36-2.06-.72-3.07-1.11-1.21-2.64-1.47-5.67-3.64-8a2.69,2.69,0,0,0-1.08.19c-.8.25-1.61.5-2-.82-.24-3.47-.53-6.94-2.23-9.84-1.3-.89-3.59-.31-3.89-2.61.31-3.89,1.35-9.25-3-11.83.87-2.54-1-5.26-1.42-7.86a6.73,6.73,0,0,0-2.05-4l.47-.46c-.21-.3-.55-.56-.4-1,.92-.45-.07-1.37-.36-2-.21-.3-.55-.56-.4-1a9.85,9.85,0,0,0-1.07-5.9c-.65-1.49-3.07-1.89-2-4.48l.93-.93c-.33-1.52-3.31-1.61-2.49-4L65,166.65c-3.62-2.7-3.11-7.89-3.45-12.34-.28.23-.52.61-.91.45l-.84-1,.46-.47c-1.44-.75-.85-3-.27-3.91l2.26-.87c-1.36-4.45,2.09-11.7-2-14.22-.68-.91-1.67-1.64-1.21-3A3.77,3.77,0,0,0,61.78,129l-.42-.51c2.82-.41,1.59-3.73,2-5.76a2.87,2.87,0,0,0-2.3-.59,7,7,0,0,1-1.23-.06c.12.44-.25.67-.48,1-.63.17-.86-.67-1.28-1-.64,2.26-3.74,3.92-2.09,6.73"/></clipPath><linearGradient id="linear-gradient-11" x1="3300.74" y1="6349.54" x2="3301.74" y2="6349.54" gradientTransform="matrix(0, -659.25, 659.25, 0, -4185806.72, 2176524.28)" xlink:href="#linear-gradient"/><clipPath id="clip-path-12"><path class="cls-1" d="M252.82,262.81c-4.92,1.49-8.78,6.18-13.69,7.67-.48.8-1.87,1.13-1.44,2.37,4,1.57,6-1.14,8-3.85s4.14-5.59,8.34-3.69c3.34-.24,2.55-4.37,4.72-6.12l-.42-.5c-.81,3.27-4.59,1.15-5.52,4.13"/></clipPath><linearGradient id="linear-gradient-12" x1="3300.75" y1="6349.53" x2="3301.75" y2="6349.53" gradientTransform="translate(-4177444.28 2172182.91) rotate(-90) scale(657.95)" xlink:href="#linear-gradient"/><clipPath id="clip-path-13"><path class="cls-1" d="M65.18,102.83l.85,1c1-.68,2.74-4.65.22-4.86a5.48,5.48,0,0,0-1.07,3.85"/></clipPath><linearGradient id="linear-gradient-13" x1="3300.8" y1="6349.48" x2="3301.8" y2="6349.48" gradientTransform="matrix(0, -649.2, 649.2, 0, -4122018.07, 2143400.22)" xlink:href="#linear-gradient"/><clipPath id="clip-path-14"><path class="cls-1" d="M63.64,107.33c-.73,1.09-1.37,2.19-2.72,1.15L61,107c-1.1-.44-2,1-2.31,1.85.84,1-.2,1.55-.56,2.41.6,2.56-1.69,4.89.14,6.83,1.82-.79.19-4.28,2.84-3.77,1.58,1.44.12,4.09,2,5.45.07-2.63,2.44-4.76,1.66-7.24,1.72-1.58.81-5.13,1.2-6.77l-.28,0c-.92,0-1.5.79-2,1.57"/></clipPath><linearGradient id="linear-gradient-14" x1="3300.75" y1="6349.53" x2="3301.75" y2="6349.53" gradientTransform="matrix(0, -657.1, 657.1, 0, -4172220.64, 2169460.54)" xlink:href="#linear-gradient"/></defs><title>工作區域 2</title><path class="cls-2" d="M13,421.38c-.61-3-1-4.41-4.15-4.41-4.14,0-6,3.56-6,8.51,0,7.53,3.67,8.94,5.73,8.94,2.56,0,4.17-1.74,5-4.2l1.22.31a8,8,0,0,1-2.17,3.54,6.54,6.54,0,0,1-4.45,1.61,7.75,7.75,0,0,1-5.81-2.25C.8,431.64,0,429.1,0,425.61c0-6.46,3.36-9.72,8.73-9.72a13,13,0,0,1,4.73.87c.17,1.46.42,3,.69,4.39Z"/><path class="cls-2" d="M22.3,425.76c0-6.64,3.39-9.87,8.74-9.87,6.34,0,8.76,4.38,8.76,9.87,0,5.77-2.5,9.92-8.76,9.92s-8.74-4.08-8.74-9.92m2.87,0c0,3,.58,5.46,1.75,7a5.53,5.53,0,0,0,8.21,0c1.17-1.56,1.75-4,1.75-7,0-3.59-.67-5.74-1.78-7A5.2,5.2,0,0,0,31,417c-5.26,0-5.87,5.1-5.87,8.79"/><path class="cls-2" d="M58,422.46v6.41H56.79c0-2.46-.25-2.67-1.47-2.67H52v6.15c0,1.9.14,2,2.64,2v.9H47v-.9c2,0,2.23-.2,2.23-2V419.23c0-1.87-.22-2.05-2.23-2.05v-.9H59.71l.92,4.16H59.4c-.72-2.82-1-3-2.56-3H53c-.95,0-1,.16-1,1.28v6.38h3.31c1.22,0,1.5-.33,1.5-2.62Z"/><path class="cls-2" d="M78.13,422.46v6.41h-1.2c0-2.46-.25-2.67-1.47-2.67H72.12v6.15c0,1.9.14,2,2.64,2v.9H67.17v-.9c2,0,2.23-.2,2.23-2V419.23c0-1.87-.22-2.05-2.23-2.05v-.9H79.85l.92,4.16H79.54c-.72-2.82-1-3-2.56-3H73.15c-.95,0-1,.16-1,1.28v6.38h3.31c1.22,0,1.5-.33,1.5-2.62Z"/><path class="cls-2" d="M100.66,435.3H87.3v-.9c2,0,2.22-.2,2.22-2V419.23c0-1.87-.22-2-2.22-2v-.9H99.9l.86,4.13H99.54c-.72-2.9-1-3-2.59-3H93.28c-.94,0-1,.16-1,1.21v6.23h3.48c1.25,0,1.47-.28,1.47-2.61h1.2v6.41h-1.2c0-2.48-.19-2.66-1.47-2.66H92.26v7c0,1,.22,1.15.8,1.15h4.67c1.61,0,1.89-.18,2.64-3.08h1.22Z"/><path class="cls-2" d="M121.6,435.3H108.25v-.9c2,0,2.23-.2,2.23-2V419.23c0-1.87-.22-2-2.23-2v-.9h12.6l.86,4.13h-1.22c-.72-2.9-1-3-2.59-3h-3.67c-.94,0-1,.16-1,1.21v6.23h3.48c1.25,0,1.47-.28,1.47-2.61h1.2v6.41h-1.2c0-2.48-.19-2.66-1.47-2.66H113.2v7c0,1,.22,1.15.8,1.15h4.67c1.61,0,1.89-.18,2.64-3.08h1.23Z"/><path class="cls-2" d="M178.4,417.46v14.89c0,1.87.14,2,2.59,2v.9h-7.9v-.9c2.45,0,2.58-.18,2.58-2V417.46h-3.14c-1.64,0-1.86.16-2.45,3.23h-1.17l.67-4.41H184.5l.64,4.41H184c-.61-3.13-.83-3.23-2.47-3.23Z"/><path class="cls-2" d="M204.83,435.3H191.48v-.9c2,0,2.23-.2,2.23-2V419.23c0-1.87-.22-2-2.23-2v-.9h12.6l.86,4.13h-1.22c-.72-2.9-1-3-2.59-3h-3.67c-.94,0-1,.16-1,1.21v6.23h3.48c1.25,0,1.48-.28,1.48-2.61h1.19v6.41h-1.19c0-2.48-.2-2.66-1.48-2.66h-3.48v7c0,1,.22,1.15.81,1.15h4.67c1.61,0,1.89-.18,2.64-3.08h1.23Z"/><path class="cls-2" d="M223.21,429.3h-7l-1,3.15a5.27,5.27,0,0,0-.28,1.25c0,.56.42.69,1.47.69v.9H211.9v-.9c1,0,1.33-.26,1.75-1.46l5.73-17h1.53l6.29,16.69c.56,1.54.89,1.82,1.89,1.82v.9h-5.92v-.9c1.11,0,1.5-.18,1.5-.69a3.86,3.86,0,0,0-.25-1Zm-.42-1.15-3.2-8.82h-.08l-2.87,8.82Z"/><path class="cls-2" d="M260.85,429.3h-7l-1,3.15a5.4,5.4,0,0,0-.28,1.25c0,.56.42.69,1.47.69v.9h-4.59v-.9c1,0,1.33-.26,1.75-1.46l5.73-17h1.53l6.29,16.69c.56,1.54.89,1.82,1.89,1.82v.9h-5.93v-.9c1.11,0,1.5-.18,1.5-.69a3.94,3.94,0,0,0-.25-1Zm-.42-1.15-3.2-8.82h-.08l-2.87,8.82Z"/><path class="cls-2" d="M277.87,416.28l9.62,15.82h.05V419.23c0-1.87-.22-2-2.22-2v-.9H291v.9c-1.84,0-2.09.18-2.09,2v16.3h-2l-10.32-16.82h-.06v13.64c0,1.87.17,2,2.11,2v.9H273v-.9c2,0,2.14-.18,2.14-2V419.2c0-1.9-.16-2-2.17-2v-.9Z"/><path class="cls-2" d="M297.9,435.3v-.9c2.06,0,2.23-.2,2.23-2.05V419.23c0-1.87-.16-2-2.23-2v-.9h7.73c3.12,0,5.12.59,6.71,2.13,1.81,1.74,2.56,4.23,2.56,7.15s-.67,5.46-2.28,7.2c-1.56,1.59-3.79,2.54-7.57,2.54Zm5.84-17.94c-.75,0-.89.21-.89,1.18v14.2c0,1.28.14,1.46,1,1.46H305c4.37,0,7-2.56,7-8.3,0-6.21-2.45-8.54-6.51-8.54Z"/><path class="cls-2" d="M355.2,416.28h5.06v.9c-2.09,0-2.23.18-2.23,2v13.12c0,1.87.17,2,2.23,2v.9h-7.07v-.9c2,0,2.11-.2,2.11-2v-13h-.08l-6.9,16.12h-1l-7.15-16.17h-.06v13.1c0,1.85.11,2,2,2v.9h-5.56v-.9c2,0,2.17-.2,2.17-2v-13.2c0-1.82-.14-2-2.17-2v-.9h4.87l7,15.53h.08Z"/><path class="cls-2" d="M380.48,435.3H367.13v-.9c2,0,2.22-.2,2.22-2V419.23c0-1.87-.22-2-2.22-2v-.9h12.6l.86,4.13h-1.22c-.72-2.9-1-3-2.59-3h-3.67c-.94,0-1,.16-1,1.21v6.23h3.48c1.25,0,1.47-.28,1.47-2.61h1.2v6.41H377c0-2.48-.19-2.66-1.47-2.66h-3.48v7c0,1,.22,1.15.8,1.15h4.67c1.61,0,1.89-.18,2.64-3.08h1.22Z"/><path class="cls-3" d="M150.29,426.26a4.15,4.15,0,1,1-4.16-4.15,4.15,4.15,0,0,1,4.16,4.15"/><path class="cls-2" d="M5.9,373.19a51.19,51.19,0,0,1-.69,9.38,22.45,22.45,0,0,1-1.65,5.79,13.85,13.85,0,0,1-1.85,3.33.89.89,0,0,1-.34-.07,8.15,8.15,0,0,0-1.24-.91.71.71,0,0,1-.14-.47,16.52,16.52,0,0,0,1.89-4,31.66,31.66,0,0,0,1.2-5.58,65.35,65.35,0,0,0,.38-7.46v-9.62c0-.34.17-.5.55-.5H29.19c.35,0,.55.14.55.41v7.19a.48.48,0,0,1-.55.54H5.9Zm0-4.07H27.34v-4H5.9Zm11.77,7.06v-3.4c0-.27.17-.4.55-.4,1.68,0,2.54.14,2.54.4s-.14.47-.34.51-.31.27-.31.67v2.22H30.25c.27,0,.41.2.41.53v1c0,.37-.14.54-.41.54H20.1v4.07h8c.34,0,.55.14.55.4v9.45a.5.5,0,0,1-.55.54H26.79a.48.48,0,0,1-.55-.54v-.91H11.52v1.18c0,.27-.21.4-.55.4H9.64c-.38,0-.55-.14-.55-.4v-9.59a.48.48,0,0,1,.55-.54h8V378.3H8.3c-.27,0-.41-.17-.41-.54v-1c0-.33.13-.53.41-.53Zm8.57,8.3H11.52v4.71H26.24Z"/><path class="cls-2" d="M50,363.34c0,.23-.17.34-.45.34s-.48.1-.48.3c-1,2.09-2.23,4.47-3.74,7.13a41.26,41.26,0,0,1-2.26,3.6c5.69-.51,11.39-1.18,17.08-2.05a37.13,37.13,0,0,0-3.71-5.25c0-.17.65-.57,2-1.17a51.52,51.52,0,0,1,4.12,6.05,32.29,32.29,0,0,1,2.61,5.35c0,.13-.83.41-2.44.81a20.87,20.87,0,0,0-1.44-3.7c-6.66.91-14.07,1.75-22.16,2.49a1,1,0,0,0-.89.54c-.1.37-.27.54-.55.54s-.86-1-1.75-3c1.51-.07,3.06-.2,4.56-.34A83.39,83.39,0,0,0,45,366.43a29,29,0,0,0,1.44-4.2c0-.14.14-.2.34-.2,2.13.67,3.19,1.11,3.19,1.31m11,15.87c.34,0,.51.13.51.4v12.75c0,.27-.17.4-.51.4H59.68c-.38,0-.55-.13-.55-.4v-1.72H42.63v1.58c0,.27-.17.4-.51.4H40.78c-.38,0-.55-.13-.55-.4V379.75a.48.48,0,0,1,.55-.54Zm-1.89,2.12H42.63v7.23h16.5Z"/><path class="cls-2" d="M96.82,362.53c.34,0,.55.14.55.41v12.21c0,.27-.2.4-.55.4H83.62a15.85,15.85,0,0,1-2,2.62c-.21.2-.34.4-.48.54h19.21a.34.34,0,0,1,.38.37,50.15,50.15,0,0,1-.55,7.73A11.57,11.57,0,0,1,98.68,391c-.58,1-2.13,1.48-4.67,1.48-1.23,0-1.89-.27-1.92-.74a6,6,0,0,0-.76-1.88v-.27A10,10,0,0,0,94,390c1.41,0,2.3-.33,2.71-1a6.18,6.18,0,0,0,1.13-3,32,32,0,0,0,.62-5.31H93.91A49.5,49.5,0,0,1,91.44,385a28.63,28.63,0,0,1-3.5,4,25.88,25.88,0,0,1-4.25,3.4.94.94,0,0,1-.65-.2l-1.68-.81c-.24,0-.34-.07-.34-.17a31.49,31.49,0,0,0,5.18-3.94,19.57,19.57,0,0,0,3.06-3.53A19.93,19.93,0,0,0,91,380.65h-4.6a37.22,37.22,0,0,1-2.81,3.67,30,30,0,0,1-4.08,3.4,28.34,28.34,0,0,1-4.94,2.93.87.87,0,0,1-.65-.2c-.58-.27-1.17-.54-1.71-.81-.21,0-.31,0-.31-.17a35.33,35.33,0,0,0,6-3.36,19.23,19.23,0,0,0,3.53-3,13.7,13.7,0,0,0,2-2.42H79.09c-.14.14-.24.2-.31.27a26.56,26.56,0,0,1-3.67,2.39,12.54,12.54,0,0,1-2.81,1.28c-.17,0-.31-.13-.45-.44l-1.13-1.21c-.21-.2-.27-.33-.27-.43A31.59,31.59,0,0,0,75,380.62,20.24,20.24,0,0,0,78.78,378a22.48,22.48,0,0,0,2.16-2.42H76.21c-.38,0-.55-.14-.55-.4V362.93c0-.27.17-.41.55-.41Zm-1.89,2.12H78.06v3.26H94.94Zm0,5.38H78.06v3.4H94.94Z"/><path class="cls-2" d="M125.29,362.13c0,.33-.14.5-.34.5s-.34.3-.34.71v.13h11.8c.17,0,.27.13.27.37v1.08c0,.34-.1.5-.27.5H110.68v10.12a58.55,58.55,0,0,1-.52,8.75,25.12,25.12,0,0,1-1.27,5.35,14.11,14.11,0,0,1-1.44,3.13.75.75,0,0,1-.34-.07,6.53,6.53,0,0,0-1.24-.94.56.56,0,0,1-.17-.44,16.64,16.64,0,0,0,1.41-3.7,34.12,34.12,0,0,0,.86-5.18,64.74,64.74,0,0,0,.31-6.9v-11.7c0-.23.17-.37.52-.37H122.2v-1.35c0-.24.17-.37.55-.37,1.68,0,2.54.13,2.54.37m8,17c.34,0,.55.14.55.4v8.67c0,.27-.2.41-.55.41H119.7c1.13.91,1.72,1.41,1.72,1.58s-.14.2-.38.2c-.44,0-.69,0-.72.17a55.33,55.33,0,0,1-7.37,2.39.53.53,0,0,1-.52-.3,2.16,2.16,0,0,0-.72-.77.66.66,0,0,1-.24-.37c0-.14.1-.2.31-.2a32.22,32.22,0,0,0,3.53-1,25.6,25.6,0,0,0,3.71-1.65h-4.32c-.34,0-.52-.14-.52-.41v-8.67c0-.27.17-.4.52-.4Zm3.09-3.66c.17,0,.27.13.27.4v1c0,.37-.1.54-.27.54H111.88c-.21,0-.27-.17-.27-.54v-1c0-.27.07-.4.27-.4Zm-18.63-7.1V366.6c0-.24.17-.37.55-.37,1.68,0,2.54.13,2.54.37s-.14.47-.34.51-.34.27-.34.67v.54h7.51V366.6c0-.24.17-.37.55-.37,1.68,0,2.54.13,2.54.37s-.14.47-.34.51-.34.27-.34.67v.54H136c.17,0,.28.14.28.4v1c0,.27-.1.4-.28.4h-5.9v3.4c0,.27-.17.4-.51.4H118.32c-.38,0-.55-.13-.55-.4v-3.4h-5.62c-.21,0-.27-.13-.27-.4v-1c0-.27.06-.4.27-.4Zm4.84,12.61h-6v2h6Zm0,3.8h-6v2h6Zm5.08-14.56h-7.51v2h7.51ZM125,382.91h6.41v-2H125Zm6.41,1.82H125v2h6.42Zm1.2,5.18c1.37.47,2.54.87,3.5,1.28l-.17.27c-.69.94-1,1.45-1,1.45a46.54,46.54,0,0,0-4.77-1.65c-1.37-.4-2.51-.71-3.39-.87a5.94,5.94,0,0,1,1.06-1.48.32.32,0,0,1,.28-.2q2.73.66,4.53,1.21"/><path class="cls-2" d="M150.56,363.37c.31.13.48.3.48.47s-.21.5-.55.64a.85.85,0,0,0-.89.67c-.28.67-.52,1.28-.76,1.85H156v-4.2c0-.27.17-.4.55-.4q2.67,0,2.68.4c0,.3-.14.47-.34.5s-.34.27-.34.67v3h9.64c.27,0,.41.2.41.54v1c0,.37-.14.54-.41.54h-9.64v6h12.72a.36.36,0,0,1,.41.4v1.31c0,.37-.14.54-.41.54H141.81c-.27,0-.41-.17-.41-.54v-1.31a.36.36,0,0,1,.41-.4H156v-6h-8.13a24.25,24.25,0,0,1-2.16,3.83c-.31.4-.55.6-.69.6a1.11,1.11,0,0,1-.65-.24c-.48-.2-.93-.43-1.37-.64-.21-.07-.27-.11-.27-.17a.78.78,0,0,1,.24-.44,25.08,25.08,0,0,0,2.92-4.17,18.11,18.11,0,0,0,2.09-4.68c.14-.47.31-.71.51-.71Zm16,16.78c.34,0,.55.14.55.37v11.57c0,.27-.21.4-.55.4h-1.34c-.35,0-.51-.14-.51-.4v-1.31H148.92v1.31c0,.27-.21.4-.55.4H147c-.34,0-.51-.14-.51-.4V380.65a.45.45,0,0,1,.51-.5Zm-1.85,2.09H148.92v6.46h15.81Z"/><path class="cls-2" d="M187.67,363.07c.44,0,.69.17.69.5V389.1a2.94,2.94,0,0,1-1.23,2.49,8.85,8.85,0,0,1-3.05.91.4.4,0,0,1-.45-.4,5.85,5.85,0,0,0-.76-2.08c0-.14.07-.2.24-.2a4.14,4.14,0,0,0,2.4-.41,1.7,1.7,0,0,0,.45-1.28v-6.39h-5.69c0,.3-.07.57-.1.77a31.43,31.43,0,0,1-1.37,6.25,17.54,17.54,0,0,1-1.54,3.6.93.93,0,0,1-.38-.07,5.14,5.14,0,0,0-1.24-.91.78.78,0,0,1-.13-.47,19.83,19.83,0,0,0,1.51-4.34,46.59,46.59,0,0,0,1-6.09c.21-2.22.31-4.91.31-8.11v-8.81c0-.34.17-.5.55-.5ZM186,379.61v-6.29h-5.25c0,2.42-.1,4.54-.24,6.29Zm0-14.46h-5.25v6.05H186ZM203.62,377a.8.8,0,0,1,.55.2,4.12,4.12,0,0,1,.65,1.11,33.17,33.17,0,0,1-1.68,4.54,19.8,19.8,0,0,1-2,3.36,10.72,10.72,0,0,1-1,1.11,10.51,10.51,0,0,0,2.64,1.51,20.7,20.7,0,0,0,4.6,1.61c.21.07.31.14.31.2a.61.61,0,0,1-.17.37,9.84,9.84,0,0,0-1.2,1.18c-.17.2-.31.3-.38.3a3.6,3.6,0,0,1-.58-.24q-1.34-.45-3-1.11a23.15,23.15,0,0,1-3.53-2,2,2,0,0,1-.41-.3,18.83,18.83,0,0,1-3.64,2.22,20.13,20.13,0,0,1-3.57,1.28.72.72,0,0,1-.65-.3c-.27-.37-.52-.74-.79-1.11a.45.45,0,0,1-.17-.3.18.18,0,0,1,.21-.2q1.34-.35,2.67-.81a14,14,0,0,0,4.12-2.25l.07-.07a7.89,7.89,0,0,1-.75-.81,9.21,9.21,0,0,1-2.06-3.23,18.57,18.57,0,0,1-1.58-4.2H191c-.28,0-.42-.17-.42-.5v-1c0-.34.14-.54.42-.54Zm-2.13-13.65a.45.45,0,0,1,.52.5v7.7c0,.27.07.44.27.5a1.67,1.67,0,0,0,.92.2h.55a.85.85,0,0,0,.89-.54,9.93,9.93,0,0,0,.55-2.56c0-.1.1-.17.31-.17a2.72,2.72,0,0,1,.45.13,7.83,7.83,0,0,0,1.1.37.54.54,0,0,1,.44.54,19.79,19.79,0,0,1-1,3.73,1.75,1.75,0,0,1-1.78.88H202a3.56,3.56,0,0,1-2-.44,1,1,0,0,1-.41-.94v-7.84h-4.29V367a18.22,18.22,0,0,1-.41,4,6.61,6.61,0,0,1-1.47,2.82,11.2,11.2,0,0,1-1.85,1.65.74.74,0,0,1-.62-.23c-.34-.4-.65-.77-.92-1.15a.66.66,0,0,1-.21-.47,6.72,6.72,0,0,0,2.71-3.46,13.55,13.55,0,0,0,.38-3.29v-3.1a.45.45,0,0,1,.52-.5Zm-6.07,18a12.36,12.36,0,0,0,1.88,3.26,8.26,8.26,0,0,0,1.1,1.28c.41-.4.76-.84,1.1-1.25a14.44,14.44,0,0,0,1.75-3.23,16.4,16.4,0,0,0,.86-2.29h-7.44a13.74,13.74,0,0,0,.75,2.22"/><path class="cls-2" d="M221.9,364.51c0,.2-.1.3-.28.3a1,1,0,0,0-.79.34,42.9,42.9,0,0,1-2.67,6.15v20.92c0,.27-.21.41-.55.41h-1.34c-.38,0-.55-.13-.55-.41V375.07c-.69.94-1.54,2-2.54,3.23a.92.92,0,0,1-.69-.3c-.34-.27-.72-.57-1.06-.87a.42.42,0,0,1-.28-.4c.89-1.08,1.82-2.19,2.75-3.4a28.1,28.1,0,0,0,3.12-5.25,30.46,30.46,0,0,0,1.78-5c.07-.17.14-.27.27-.27,1.85,1,2.81,1.55,2.81,1.71m6.34,2.83c.21.2.34.33.34.44a.41.41,0,0,1-.27.4.5.5,0,0,0-.52.33,29.41,29.41,0,0,1-1.75,3.8,32,32,0,0,1-1.82,2.66,18.77,18.77,0,0,1-2.06,2,1.68,1.68,0,0,1-.76-.13c-.44-.13-.89-.3-1.3-.47-.17-.07-.24-.13-.24-.2s0-.14.14-.2a14.62,14.62,0,0,0,3-3.36,12.06,12.06,0,0,0,1.37-2.42,27,27,0,0,0,1.23-3.5c.07-.13.17-.23.27-.23Zm11.36,8.85c.24,0,.38.2.38.54-.07,4.34-.21,7.43-.45,9.31a19.13,19.13,0,0,1-1.17,5.08c-.48,1.18-1.71,1.78-3.74,1.78s-2.92-.24-3-.67a5,5,0,0,0-1.17-1.85v-.24c1.51.13,2.89.24,4.15.24a1.8,1.8,0,0,0,1.92-1.21,14.13,14.13,0,0,0,.79-3.83c.21-1.41.34-3.77.45-7h-6.93a29.66,29.66,0,0,1-.69,5.82,13.9,13.9,0,0,1-1.92,4.47A10,10,0,0,1,225.6,391,16.56,16.56,0,0,1,222,392.9c-.62-.64-1.17-1.21-1.61-1.71a13.56,13.56,0,0,0,2.68-1.28,12,12,0,0,0,2.78-2.32,11.48,11.48,0,0,0,1.89-4,23.65,23.65,0,0,0,.65-5.25H224.3c-.27,0-.38-.17-.38-.54v-1c0-.34.1-.54.38-.54Zm-2.3-13c.07,0,.14.13.14.37a13.44,13.44,0,0,0,1.75,6.66,21.12,21.12,0,0,0,3.88,4.91.48.48,0,0,1-.28.5c-.82.74-1.37,1.08-1.61,1.08a24,24,0,0,1-4.53-6,16.69,16.69,0,0,1-1.44-5.41h-6.89c-.28,0-.38-.17-.38-.51v-1.07c0-.34.1-.51.38-.51Z"/><path class="cls-2" d="M257.46,366.33a35.12,35.12,0,0,0,1.34-3.67c.14-.27.31-.4.51-.4l2.68,1c.27.21.41.34.41.47a.51.51,0,0,1-.38.54,1,1,0,0,0-1.1.64c-.24.54-.45,1-.65,1.44h16.47c.27,0,.41.2.41.54v1c0,.37-.14.54-.41.54h-17.5a36.56,36.56,0,0,1-1.89,3.3c-.14.2-.24.37-.34.5h16c.41,0,.65.2.65.54v17.72c0,.74-.58,1.31-1.68,1.72a20.44,20.44,0,0,1-4.22.67c-.24,0-.38-.14-.42-.4a7.27,7.27,0,0,0-.79-2.12c0-.1.11-.14.38-.14a16.76,16.76,0,0,0,3.67-.24c.41-.17.65-.4.65-.81v-2.35H256.78v5.51c0,.27-.17.4-.52.4h-1.37c-.34,0-.51-.13-.51-.4V375.81c-.21.27-.45.54-.65.81a32.75,32.75,0,0,1-4.18,3.67,1.89,1.89,0,0,1-.83-.14c-.48-.2-1-.4-1.47-.57-.17-.07-.24-.14-.24-.24a.42.42,0,0,1,.27-.4,28,28,0,0,0,6.17-5.85,24.78,24.78,0,0,0,2.81-4.27l.21-.37h-9.33c-.27,0-.41-.17-.41-.54v-1c0-.34.14-.54.41-.54Zm13.79,8.17H256.78v3.94h14.48Zm0,6H256.78v4.21h14.48Z"/><path class="cls-2" d="M284.83,392.23c0,.27-.17.4-.52.4h-1.37c-.34,0-.52-.13-.52-.4V363.57c0-.23.17-.37.52-.37h9.12a1.9,1.9,0,0,1,.86.17c.58.44.89.74.89.87l-4.56,9.08a1.12,1.12,0,0,0-.14.51.69.69,0,0,0,.24.47,14.15,14.15,0,0,1,2.71,3.63,10.51,10.51,0,0,1,1.06,4.44,8.06,8.06,0,0,1-.65,3.26,3.93,3.93,0,0,1-2.06,2.05,5.28,5.28,0,0,1-2.91.6c-.62,0-.89-.17-.89-.57a4.45,4.45,0,0,0-.58-1.78.36.36,0,0,1,.41-.41l1.61.27a2.14,2.14,0,0,0,2.06-1.07,3.94,3.94,0,0,0,.62-2.35,9.41,9.41,0,0,0-.86-3.53,16.5,16.5,0,0,0-3.29-4.23c-.21-.14-.27-.23-.27-.37a1.37,1.37,0,0,1,.14-.54l4.6-8.54h-6.21Zm13-3.94q2.16-.71,4.12-1.51c.07,0,.1-.07.17-.07s.28.14.28.41a7,7,0,0,1-.14,1.95c-2.57,1-5.18,2-7.79,2.76-.38.61-.69.94-.92.94s-.65-1-1.34-2.89c.93-.2,2-.47,3.23-.84V363.71a.45.45,0,0,1,.51-.5h13.69c.34,0,.52.13.52.37v12.88c0,.37-.17.54-.52.54h-6.24a19.19,19.19,0,0,0,.55,2.62,19.55,19.55,0,0,0,1.37,3.83c0,.07,0,.13.07.13a15.32,15.32,0,0,0,2.13-1.45,15.66,15.66,0,0,0,3.09-3.09.6.6,0,0,1,.38-.21,10.81,10.81,0,0,1,2.13,2c0,.17-.13.23-.41.23-.48,0-.75.07-.79.17a28.49,28.49,0,0,1-5.25,4.44,2.9,2.9,0,0,0,.38.47,8.87,8.87,0,0,0,2.33,2.32,13.2,13.2,0,0,0,3.39,1.85c.14.07.21.13.21.24a.54.54,0,0,1-.17.37c-.41.37-.86.81-1.3,1.28-.17.2-.31.34-.38.34a1.19,1.19,0,0,1-.44-.27,18.56,18.56,0,0,1-2.16-1.28,17,17,0,0,1-2.61-2.32,16.21,16.21,0,0,1-2.09-3.06,14.5,14.5,0,0,1-1.51-3.73,27,27,0,0,1-1.13-4.84h-3.33Zm0-19.31h9.91v-3.7h-9.91Zm0,5.89h9.91v-3.8h-9.91Z"/><path class="cls-2" d="M328.46,364.85c.24.2.38.34.38.44a.51.51,0,0,1-.41.54.75.75,0,0,0-.79.47,36.81,36.81,0,0,1-2.54,5.38,39.55,39.55,0,0,1-2.64,3.77,26.44,26.44,0,0,1-3,2.86,1.74,1.74,0,0,1-.79-.14l-1.41-.57c-.17-.07-.24-.14-.24-.21a.37.37,0,0,1,.21-.33,20.8,20.8,0,0,0,4.5-4.61,18.41,18.41,0,0,0,2-3.33,29.32,29.32,0,0,0,1.85-4.84c.14-.2.27-.3.41-.3Zm3.29,7.13c1.78.87,2.71,1.41,2.71,1.58s-.14.27-.41.27a1.14,1.14,0,0,0-1,.6c-1.71,3.16-4.15,7.6-7.27,13.32,4.12-.34,9.12-.91,15-1.65-1.1-1.78-2.13-3.36-3.09-4.78,0-.27.58-.64,1.75-1.18a.35.35,0,0,1,.24.13,86.29,86.29,0,0,1,6.59,10.09c0,.34-.11.54-.24.57a4.44,4.44,0,0,1-2.06.88c-.72-1.41-1.41-2.66-2.09-3.87q-15.43,2.37-20,2.86a.66.66,0,0,0-.69.5c-.1.34-.27.51-.51.51s-.75-1.25-1.2-3.67c1.1,0,2.37-.1,3.74-.2q4-7.27,5-9.48a57.44,57.44,0,0,0,2.43-6.19.54.54,0,0,1,.55-.4,1.41,1.41,0,0,1,.51.1m7.55-8.91c.14,0,.27.17.41.44a28.55,28.55,0,0,0,2.54,7.77,9.12,9.12,0,0,0,5.08,4.91.51.51,0,0,1,.41.54c0,.13-.1.24-.24.37a11.82,11.82,0,0,0-1.16,1.11.69.69,0,0,1-.62.37,14.09,14.09,0,0,1-5.42-5.58,38.11,38.11,0,0,1-2.64-7.83H332.2c-.27,0-.41-.17-.41-.51v-1.07c0-.34.14-.51.41-.51Z"/><path class="cls-2" d="M380.21,363.34c.41,0,.65.17.65.5v25.29c0,1-.65,1.85-2,2.45a20.55,20.55,0,0,1-4.87.91.4.4,0,0,1-.45-.4,5.83,5.83,0,0,0-.75-2.09c0-.13.14-.2.41-.2,2.47,0,3.94-.14,4.39-.41a1.25,1.25,0,0,0,.82-1.24V365.42H353.8c-.27,0-.41-.17-.41-.5v-1.08c0-.34.14-.5.41-.5Zm-7.38,6.42c.24,0,.38.2.38.54v1c0,.37-.14.54-.38.54h-17.7c-.27,0-.41-.17-.41-.54v-1c0-.34.14-.54.41-.54Zm-1.61,5.92c.34,0,.55.13.55.4v10.76c0,.27-.21.4-.55.4h-1.34c-.38,0-.55-.13-.55-.4v-1.32H359.15v3.67c0,.27-.17.4-.52.4H357.3c-.38,0-.55-.14-.55-.4v-13c0-.34.17-.5.55-.5Zm-1.89,2.08H359.15v5.65h10.19Z"/><g class="cls-4"><rect class="cls-5" x="316.79" y="183.36" width="4.99" height="4.99" transform="translate(-37.9 280.2) rotate(-45)"/></g><g class="cls-6"><rect class="cls-7" x="309.88" y="158.92" width="16.05" height="16.05" transform="translate(-24.94 273.69) rotate(-45)"/></g><g class="cls-8"><rect class="cls-9" x="307.58" y="130.13" width="20.49" height="20.49" transform="translate(-6.18 265.84) rotate(-45)"/></g><g class="cls-10"><rect class="cls-11" x="302.98" y="159.35" width="17.46" height="17.46" transform="translate(-27.55 269.64) rotate(-45)"/></g><g class="cls-12"><rect class="cls-13" x="295.67" y="110.75" width="25.54" height="25.54" transform="translate(3 254.28) rotate(-45)"/></g><g class="cls-14"><rect class="cls-15" x="308.95" y="107.48" width="6.31" height="6.32" transform="translate(13.18 253.09) rotate(-45)"/></g><g class="cls-16"><rect class="cls-17" x="306.72" y="143.12" width="8.12" height="8.12" transform="translate(-13.05 262.87) rotate(-45)"/></g><g class="cls-18"><rect class="cls-19" x="175.24" y="-2.01" width="143.52" height="143.52" transform="translate(23.02 195.08) rotate(-45)"/></g><g class="cls-20"><rect class="cls-21" x="261.2" y="244.84" width="23.02" height="23.02" transform="translate(-101.39 267.92) rotate(-45)"/></g><g class="cls-22"><rect class="cls-23" x="265.23" y="241.84" width="11.45" height="11.45" transform="translate(-95.7 264.12) rotate(-45)"/></g><g class="cls-24"><rect class="cls-25" x="13.86" y="69.66" width="280.7" height="280.7" transform="translate(-103.34 170.55) rotate(-45)"/></g><g class="cls-26"><rect class="cls-27" x="234.84" y="253.38" width="26.34" height="26.34" transform="translate(-115.84 253.44) rotate(-45)"/></g><g class="cls-28"><rect class="cls-29" x="63.93" y="98.4" width="6.02" height="6.02" transform="translate(-52.1 77.04) rotate(-45)"/></g><g class="cls-30"><rect class="cls-31" x="52.95" y="104.27" width="17.01" height="17.01" transform="translate(-61.74 76.48) rotate(-45)"/></g><path class="cls-2" d="M226.57,213.84c-2.8.47-5.13-1.86-7.94-.93-7-2.8-10.27,4.2-16.34,5.6-3.27.94-7,.47-9.34,3.27-1.4-1.4-2.33-.93-3.27.47a1.71,1.71,0,0,1-.47-1.4c1.87-.94.47-4.2,3.27-4.67,3.26-4.66,1.39-10.73,0-15.87a53,53,0,0,0-11.67-13.54c-1.17-.39-3-2.07-4.37-1.27-.15-1-.61-1.87-.61-2.44-1.36-1.35,0-3.72-1.69-4.73l-.34.68-.34-.33c-.34-.68,0-1,.34-1.35-1.69-.67-2-2.36-3.72-2-1-1-2.7-1-2.7-2.71,1.69-2,4.73-2.36,6.75-4.73,3-.34,5.4-3,7.09-5.4-.33-2.7,3-2.36,3-5.07.67-.67,2,0,1.69-1.35a5.15,5.15,0,0,1,2.36-1.69c0-4.05,5.4-4.73,5.07-8.78,3.71-3,4.73-8.1,4.73-13.17-1.68-3-4-4.39-7.09-5.74-2-1-4.73-.34-6.42-1.7a12.5,12.5,0,0,1-3-.67c-1,1.69-3-.34-4.39,1-.68-1-2.71-.34-3.72-.67-1,.67-2-.68-2.37.67l-.67-.67c-1,.33-2.7.33-3.38,1.35l-.34-.34c-1.35-.34-3-.34-3.37,1-1.69-.34-3.38,1-5.06,1-3,3-7.77,2.7-10.13,6.41-1.69-1-2.36,1.69-4.06,2-.67.34.34,1.69-.67,1.36a8.11,8.11,0,0,0-3.71,2.7A104.44,104.44,0,0,0,125.52,151c-2.36-.34-.67-3.72-2-5.4,0-.34.33-.34,0-.67.33-2.71-1.7-5.4,0-8.11.33-.34-.34-1,.33-1,.34-3,3.72-6.08,6.09-7.77,2.7-5.06,7.43-6.75,11.14-11.15,1.69-3.37,6.08-4.05,7.43-7.43,3-3,4.73-6.75,7.09-10.13.33-3,3.71-1.69,5.4-2.37,5.07,0,9.12-2.37,13.51-3.38,3.72-1.35,8.78,1.35,10.81-3,1.69-2.37-.34-4.39-1-6.41v.33c0,.68.34,1-.34,1.35l-.34-.34c1.35-3.38-3-1.35-3.72-3.72l-.68,1a4,4,0,0,0-3.71-1.35c-1.35-1-2.7-.34-4.05-1.35a10.06,10.06,0,0,0-4.39-.34,34.5,34.5,0,0,0-7.43-3c-4.05-2-6.08-6.41-10.47-8.1-.67-1.36-2.36-1.36-3.71-1.36-.67,1-2-.34-2.36.68.67,3.38.33,7.09.67,10.47-1.35,1.35,0,3.38-1.35,4.73,1.35,3-2.36,3-3,4.39l-.34-.67a26,26,0,0,0-7.43.34c-1.68-.68-2.7,1-4.72,0-1.36-1-3.05.67-4.4-.68a1.18,1.18,0,0,1-.34.68l-.67-1-.68,1c-1-2-4.05-.34-4.73-2.71,1-1.35.68-3.38,1.69-4.73.67-5.4,2.37-10.13,3.72-15.2,1-1.35-.34-2.7,1.35-3.71,0-2,1-3.38,1.69-5.07,1.35-2,2.7-4.73,5.41-4.73h3c.33,1,1,0,1.35.34,3.38,1.35,7.43-.34,10.47,2,3.38-.34,4.73,3,8.1,2.36,1.35.68,2.36,2.37,3.72,1,1,2.7,4.05,1.35,5.75,2.7,2.36.34,4.38,1.69,6.75,2,2,.34,5.4,2,6.75-.67a16.2,16.2,0,0,0,.34-9.8c-2.37-1.69-4.73-2.7-6.76-4.73-2.71-.68-4.39-4.05-5.4-6.75.67-3.71,3.37-7.09,6.75-9.46,1.69-3,3.71-6.08,6.42-8.1.34-2.37,3-3.71,2.7-6.08,1.69-1.69-.34-3.72,0-5.74-1.69-2.36-4.72-3.38-6.08-5.74C171.11,3,168.76,1,165.71.68L165,2V1.69C165,1,164.7,0,164,0c-1.35,2-3-.33-4.73.68-.67.34-.34.68-.67,1.35-.34-1.69-2,0-3-.67-1,0-2,1.69-2.7.34-1,2.7-4.39,1.69-6.08,4.05-1.69,1-4.39.68-5.4,3-.68-1-2,0-2.7.67-1.69,0-2,2.36-3.38,1.35l-.68,1.35a.63.63,0,0,1-1,0l-.68.67-.34-.34a83.88,83.88,0,0,1-9.8,3.71v.34c0,1.35-1,0-1.68,0,0,.34-.34.34-.34.67h-.68a9.2,9.2,0,0,0-7.09,3c0,2,2.36,3,4,4.05a68.44,68.44,0,0,0,14.19,8.44c1.69-1,3.72.34,5.07-1,4.39-.34,6.08-4.39,10.14-5.4,1.34-2,4-1.35,5.4-3.38,2,1.35-.34,3,0,4.39-2.7,4.73-3.37,9.46-4.06,15.2.68.67,2,1.69,1,2.7-.34,2-2.71,1.35-3.72,1.35s-1.69-1.69-2.36-.34c-1.35.34-1.35-2.7-3.38-1.69-2-.67-4.73-.67-6.42-2.36-1-1.35-2,0-2.36,1-.67-.67,0-1.35-.34-1.68-.33-.68-1.35-.34-1.69-1-1.35.68-3.71-1-5.41,0,.34.34.67,1,0,1,0-.34-.34-.34-.67-.34-.68,1.35-3,1.35-3.72,3a11.36,11.36,0,0,0-3.38,5.41c-2,.68-2.36,4-3.71,5.74.67,2.36-2,4.05-1.69,6.41a10.53,10.53,0,0,0-2.37,6.08,12.42,12.42,0,0,0-3.71,6.41c-1,2.37-2.37,3.72-3.38,5.74-.33,2.36-2.36,3-2.7,5.07-2,1.35-1.35,4.06-3,5.74-1.35.34-1.35,1.69-2,2.36-.34,1-2.37,2-2,3,1,0,1-1,2-1.35.68,0,1.35-1.35,2,0a23,23,0,0,1-4.73,7.77c-1,2-3,4-4.06,6.41-2,1-2,4.05-4,5.07-.67,2.36-3.38,3.38-4.06,5.4-.34,0-.67.33-.67,0-.67,1.35-2,2.7-2.36,4-1.35,0-1.35,1.69-2.36,2-1.69,4.39-6.08,6.42-7.77,10.81-3.38,2-5.07,6.08-8.1,8.45-.67,1.35-2.37,2.36-2.7,3.71l-.34-.34L49.87,153c-1.69,0-1.69,1.35-2,2.36L47.5,155c-1.69,0-.34,1-1.35,2-.67,0-.67-.33-.67-1-.34,1.69-2,1.69-3.38,2.37-.67,3.38-5.06,4-5.06,7.43-1-.67,0-2.36-1.69-2-1.35.34-1.68,1.35-2,2.37l-.68-.68c-1.34.68-2,2-3.37,2.71-2.7,2.36-5.4,3.71-8.1,5.74-3,3-7.09,5.07-10.81,7.09l.34.34a10.16,10.16,0,0,1,4.05-1,.47.47,0,0,1,.68,0,16.84,16.84,0,0,1-5.74,3.71c-2,1-5.07,1.36-7.09,1.69.34,1,1.68,1.35,2.36,2.37a.63.63,0,0,0,1,0c1.69,3.38,5.74,3.38,8.44,5.74,1.69.34,3.38-.33,4.73.67,3.38-.34,6.42-.34,9.46-1.69,6.08-2,9.79-7.76,15.87-10.46,1-2.7,4.39-2,5.74-4.05a111.28,111.28,0,0,1,9.12-8.78c.33-.34.33-2,1.35-1,1.68-1.69,2.7-4.06,5.06-5.07,2-3.71,5.41-6.08,7.77-9.45,2.37-3.72,5.07-6.08,7.1-9.79,4.39-6.08,9.79-11.82,14.19-17.56.68-2.71,3-4.39,3.71-6.76,3-1.69,2-5.4,5.07-6.76-.68-2,2-3.37,2.7-4.73A112.9,112.9,0,0,1,113,93.9a28.48,28.48,0,0,0,1.35-5.74,27.12,27.12,0,0,1,7.43,4.39,30,30,0,0,0,6.42,4.05v-.33A15.12,15.12,0,0,0,135,97.61c1,.34,1,1.69.67,2.7-1.69,2-2,5.4-4.05,7.77,0,1-1.68.67-1.35,2-2.7,2-4.39,5.41-7.09,7.43-3,4.73-8.78,7.43-11.48,12.5-1.36,2.7-1,5.74-2.71,7.77.34,3.38-.67,4.73,0,8.11-.67,5.4,1,10.47,3,15.2.67.68,1.35,1,1.35,2,2.37,1,1,4,3.38,5.74,0,1.35,1,1.69.67,3,1.68,2,2.7,3.38,4.39,5.07,1.7.33,1.7,2.7,3,3.38a12.75,12.75,0,0,0,7.77,2.7,9.39,9.39,0,0,0,4.05-4.05,1.63,1.63,0,0,0-1-2c1-1-.67-2.37.34-3.38-.34-.68-.34-1.35-1-1.69-.68-2.7-1.69-5.74.67-8.1a30,30,0,0,1,8.78-8.45c4.06-3.38,8.78-5.06,13.51-7.43,3.37-1,6.42-3.38,10.13-2,.68,2.36-2,4.39-2.37,6.42-2.36,2-4,4.73-6.08,7.09-2.7,2-5.07,4.39-8.11,5.4-1.35,2.36-3-.34-5.06,1-3,2.37-5.07,7.09-5.07,11.15-1,2.7-1,6.75,1,9.11,0,1-1.35,1.69-1.35,2.71-2,1.35-3.71,3.71-5.4,6.08-.33,1-2,2.37-1.35,4.06a5.17,5.17,0,0,0,2.36-1.69c3.38-1.35,5.74-3.71,9.46-4.73,2-.68,3.72,1,5.4-.34,1.35.34,3.38-.68,4.39,0,3.72-.68,6.43,1.36,9.8,1a19.34,19.34,0,0,0,9.8,1.35l.47-.33c-.05,1.28-.14,2.54-.29,3.76-1.87,1.86-4.2,4.2-4.2,7-2.33,3.27-5.61,6.54-7,10.74-7.47,5.14-8.87,14-16.34,19.61-9.33,1.4-5.6,10.74-6.53,16.8.47,3.73,1.86,6.54,5.6,7.47,2.34,2.34,4.67-.93,7,0,2.8-1.87,6.53-3.27,7.47-7,7-5.13,10.27-14.93,18.67-17.74,3.27-3.73,8.87-3.27,12.61-6.07,3.27,0,6.54-1.86,9.34-2.33,2.34-.93,4.67,0,5.13,2.33-.46,3.73-2.8,6.07-5.6,8.4.93,1.4-1.4,2.33-1.4,3.74-6.07,4.67-8.41,11.2-14.47,15.87-1.4,2.33-4.67,5.14-6.53,7,1.86.47,4.67-1.86,7-2.33,3.27-1.4,5.6-4.67,9.33-4.67,4.2-5.6,10.74-6.07,16.34-9.34,1.87-2.33,5.13-2.33,7-3.74,4.19-3.26,8.4-2.33,13.07-4.2,4.67.94,7.47-2.79,9.33-7,1.4-2.33-.93-3.73-1.4-6.06-6.07-2.34-7.93-9.33-13.54-12.61"/><path class="cls-2" d="M235,271.73a28,28,0,0,0-13.08-10.27c-4.2-.94-7.93,0-11.67,2.33-1.86.94-3.73.47-5.13,2.33a56.52,56.52,0,0,1-15.41,3.27c-3.27.47-6.53,2.8-9.8,2.34-2.33,1.39-5.13.93-6.52,2.8-5.61,1.4-10.28,4.67-16.35,4.67-3.74-.93-6.54-5.13-10.27-5.13-2.33-.94-4.66-3.27-7-1.4,0,3.73,3.73,5.13,3.73,8.4,0,1.4-1.86,2.33-2.33,3.27,3.74.94,6.07,6.07,9.33,7.47,1.87,4.21,3.27,8.87,6.54,12.6.93,1.4,0,3.27,1.87,3.74,1.4,1.87-1.4,3.27-1.87,4.67,1.4,1.87,3.73,2.33,5.6,3.73,2.8-1.4,4.67,3.27,7.46.94,1.4,0,1.4-1.87,2.33-1.4.95,1.4,2.34,0,3.74-.47,5.6,1.4,9.33-2.34,14.94-2.34,2.8,1.87,5.6-.93,7.94,1.4,0,1.41-.94,2.34-1.87,3.27,3.27,1.86,7-.47,10.74-.47,4.67-2.34,11.21.47,14.94-4.2a5,5,0,0,0,0-5.13c.94-2.8-1.87-5.14-3.73-7.94a1.42,1.42,0,0,1-1.41-1.86c.94-.93,1.87-2.33,3.27-2.81.47-3.27,3.27-2.33,4.2-4.67,4.2-.47,6.54-4.2,9.8-6.06,1.4,0,2.33-2.8,2.8-4.2,0-3.27,0-6.54-2.8-8.87m-33.14,21.94c-1.4,1.87-2.8,6.07-6.07,4.67-2.34,3.27-7,2.33-10.27,4.2-3.73,0-7.93,1.87-12.13,1.4-3.28-3.27-3.28-7.93-6.54-10.74-1.4-5.13,5.13-5.13,7.93-7.47.47.93,1.4,0,1.87-.47,3.26-1.4,7-1.87,9.33-4.67,2.34.47,5.13.47,7-1.86,4.2-.94,7.47-2.8,11.68-1.87l1.4,1.87c-.47,5.13-2.8,9.8-4.2,14.94"/><path class="cls-2" d="M335,208c-1.66-4.61-5-7.6-9-10-1.2-.71-2.66-.57-4-.9a50.71,50.71,0,0,0-9.35-1.29,48.42,48.42,0,0,0-8.4-.07,22.12,22.12,0,0,1-5.35-.13c-1.45-.2-2.85-.66-4.4-.07a56.26,56.26,0,0,1-11.23,2.86c-1.54.25-3.1.41-4.61.78s-1.73.32-2.35-1.06-1.17-2.46-2.91-2.17c-.69.11-.85-.34-.5-.94a5.2,5.2,0,0,1,1.35-1.43,87.21,87.21,0,0,1,8.57-6.08c.7-.44,1-.46,1.63.2,1.49,1.66,2.89,1.39,4.07-.5,1.59-2.54,2.42-5.57,4.76-7.66.76-.67.51-1.39-.49-1.7a.83.83,0,0,1-.64-.84c-.05-.39-.07-.79-.1-1.19-.34-5,.88-9.78,1.7-14.61.72-4.29,1.74-8.51,2.27-12.83a7.62,7.62,0,0,1,2.68-5.35,2.31,2.31,0,0,0,.57-.91,19.7,19.7,0,0,0,1.55-12,2.1,2.1,0,0,1,.27-1.57,2.83,2.83,0,0,0-.58-3.83,15.88,15.88,0,0,0-4.63-2.89A21.16,21.16,0,0,1,290.4,119a1.29,1.29,0,0,0-1-.2c-1.18,0-2,1-3,1.25a9.44,9.44,0,0,0-3.62,1.89,20.2,20.2,0,0,1-5.46,3.43c-3.64,1.45-4,4.47-4.37,7.86a1.62,1.62,0,0,0,.23,1,1.44,1.44,0,0,1,.06,1.3,8.33,8.33,0,0,0-.19,5.07,53.39,53.39,0,0,0,.83-6.61,3.42,3.42,0,0,1,2.87-3.08.72.72,0,0,1,.77.2,6,6,0,0,0,4.05,1.7,6.47,6.47,0,0,1,3.77,1.16.77.77,0,0,1,.39.89q-1.56,7.81-3.06,15.63c-.09.48-.26.66-.77.62a43.26,43.26,0,0,1-9.32-1.57,5.46,5.46,0,0,0-3.17,0,2.65,2.65,0,0,1-3.07-.92,3.55,3.55,0,0,0-2-1.18c-.94-.28-1.32.1-1,1.08a3.23,3.23,0,0,1,0,1.83,45.45,45.45,0,0,0-1,22.17c.38,1.9.62,3.87,1.92,5.46s1.29,1.63-.58,2.66c-.06,0-.1.08-.16.12-1.07.65-1.37.59-2.09-.43a3.5,3.5,0,0,0-.41-.55,1.08,1.08,0,0,0-1.28-.11c-.51.22-.38.64-.31,1a4.38,4.38,0,0,0,3.41,3.79,19.38,19.38,0,0,0,4.57.38,22.21,22.21,0,0,0,6.67-1.12,3.12,3.12,0,0,1-.71,1.48,17.46,17.46,0,0,1-5.68,4.6,33,33,0,0,0-3.79,2,140.82,140.82,0,0,0-12.3,10.65c-1.65,1.59-4.37,2.11-4.88,4.88-2.53,2.92-3,6.62-4,10.37,1.11-.59,2.07-1.07,3-1.6a34.61,34.61,0,0,0,5.49-4c.41-.35.63-.51,1.07,0s1.07.39,1.5-.2a7,7,0,0,0,.42-.67c1.18-2.22,3.83-2.17,5.42-1.61,1,.35,1.13,1.08.47,1.91-.49.62-1,1.24-1.46,1.87-4.17,5.63-6.81,11.81-6.31,19.06a9.81,9.81,0,0,0,.75,3.5,227.76,227.76,0,0,0,16.23-16.44,5.85,5.85,0,0,1,.92-.89c.83-.57,1.43-.36,1.67.64a16.46,16.46,0,0,1,.37,4.86,15.66,15.66,0,0,0,.84,6.37,1.71,1.71,0,0,1-.29,1.79Q265.22,243.1,257.61,254A8.89,8.89,0,0,0,256,256.7a21,21,0,0,0-.43,7c.16,1.69.85,2.06,2.42,1.52l.83-.29c4-1.44,6.79-4.38,9.43-7.52,4.85-5.78,9.74-11.53,14-17.79.24-.35.42-.46.87-.29a16.23,16.23,0,0,1,4.36,2.39c.28.22.65.35.53.84a1.28,1.28,0,0,1-.81.92c-.3.13-.75,0-.93.47.48.28,1,.53,1.43.82,1.15.73,1.14,1.09-.06,1.74a5.41,5.41,0,0,1,1.14,2.28,3.17,3.17,0,0,0,2.69,2.64,4.33,4.33,0,0,1,2.57,1.3,2.1,2.1,0,0,0,1.71.75,7.73,7.73,0,0,0,2.31-.23c2.23-.59,4.1-2,6.17-2.91,4.24-1.94,8.29-4.22,11.34-7.91a47.05,47.05,0,0,1,5.14-4.87A53.33,53.33,0,0,0,336,215.22a2.7,2.7,0,0,0,.23-1.06A22.42,22.42,0,0,0,335,208M273.7,176.22c-.45-4.56-.78-9.12.39-13.64a1.54,1.54,0,0,1,2.36-1.08c.93.52,1.79,1.09,2.91.56.34-.16.42.22.52.44a8.21,8.21,0,0,1,.68,3.85,54.73,54.73,0,0,0-.62,8.24.5.5,0,0,1-.44.54c-1.72.49-3.42,1-5.14,1.5-.35.1-.58.09-.64-.42m-1.09,35c.37-2.33,1.53-3.41,3.69-3.42a15.13,15.13,0,0,0,2-.26c.16,0,.33,0,.42.13s-.06.3-.15.43a4.28,4.28,0,0,1-1.13.93,15.93,15.93,0,0,1-4.85,2.19m5.59,13.85c-.29.45-.61,1-1.28.92s-.82-.71-1-1.23a50.54,50.54,0,0,1-2.34-8.61.9.9,0,0,1,.15-.83c3.55-4.33,7.79-7.63,13.23-9,1.16-.29,2.21-1,3.46-.88h.19c.51.06,1.17,0,1.42.48s-.42.73-.68,1.07c-2.45,3.36-4.93,6.7-7.36,10.07-1.93,2.67-4,5.24-5.78,8m47.09-16.75a68.85,68.85,0,0,1-17.67,20,86.52,86.52,0,0,0-8.15,7A1.9,1.9,0,0,1,298,236c-1.86,0-3.72,0-5.58,0s-3.91,0-5.87,0a1.37,1.37,0,0,1-1.19-2.21c1.91-2.28,2.89-5.09,4.39-7.61a71.82,71.82,0,0,1,9.82-13,29.08,29.08,0,0,0,4.68-7.06,1.59,1.59,0,0,1,1.63-1c3.41,0,6.83,0,10.26-.17a14,14,0,0,1,9,2.56c.42.3.46.48.19.92"/></svg>