<svg id="圖層_1" data-name="圖層 1" xmlns="http://www.w3.org/2000/svg" xmlns:xlink="http://www.w3.org/1999/xlink" viewBox="0 0 161.29 750.19"><defs><style>.cls-1{fill:none;}.cls-2{opacity:0.3;}.cls-3{clip-path:url(#clip-path);}.cls-4{fill:#74b5e4;}</style><clipPath id="clip-path"><rect class="cls-1" width="161.29" height="750.19"/></clipPath></defs><title>we_want_toy</title><g class="cls-2"><g class="cls-3"><path class="cls-4" d="M124.87,112.76a3.44,3.44,0,0,1,2.25,2.48,15.87,15.87,0,0,1,.49,2.18c.12.8.21,1.58.26,2.33s.09,1.44.11,2.07,0,1.11,0,1.46q0,1.28-.68,1.28a4.46,4.46,0,0,1-1.5-.3L40.7,93.46a2.75,2.75,0,0,1-1-.6,1.46,1.46,0,0,1-.34-.68q-.07-.68-.15-1.73T39,88.28q-.07-1.13-.11-2.18c0-.7,0-1.25,0-1.65a2,2,0,0,1,.22-.9,1.5,1.5,0,0,1,1-.68L95,65.15l-54.29-19a2.76,2.76,0,0,1-1-.6,1.45,1.45,0,0,1-.34-.68q-.07-.68-.15-1.73T39,41q-.07-1.13-.11-2.18t0-1.65a2,2,0,0,1,.22-.9,1.5,1.5,0,0,1,1-.68l76.21-24.48q3.61-1.2,4.77-3.12a8.15,8.15,0,0,0,1.16-4.32c0-.5,0-1-.08-1.54S122,1,121.95.43L126.08,0q.68,3.3,1.16,6.64t.83,6.12q.34,2.78.53,4.73t.19,2.48a2.14,2.14,0,0,1-.71,1.73,5.49,5.49,0,0,1-2,1L56.84,44.81v.3l49.63,16.37,19-6.08a1.49,1.49,0,0,1,1.43.11,1.74,1.74,0,0,1,.75,1q.52,2.63.83,5.67t.3,5.07a2.2,2.2,0,0,1-.41,1.5,3.08,3.08,0,0,1-1.31.75L56.17,92.34v.3Z"/><path class="cls-4" d="M46.48,173.08q-1.73-3.6-3.19-7.58t-2.52-7.77q-1.05-3.79-1.61-7.06a33.07,33.07,0,0,1-.56-5.44,24.28,24.28,0,0,1,2.29-10.78A23.76,23.76,0,0,1,47,126.56a26.34,26.34,0,0,1,8.75-4.84A32.31,32.31,0,0,1,66,120.06a30.29,30.29,0,0,1,12.58,2.55,29.22,29.22,0,0,1,9.69,6.95,31.61,31.61,0,0,1,6.23,10.25,34.76,34.76,0,0,1,2.21,12.39,20.42,20.42,0,0,1-1.31,7.58,16,16,0,0,1-3.6,5.56,15.46,15.46,0,0,1-5.52,3.45,20.1,20.1,0,0,1-7.06,1.2A34.38,34.38,0,0,1,71,168.72l-1.88-35.29a27.58,27.58,0,0,0-8.64,1.88,19.43,19.43,0,0,0-11.19,11.53,26.92,26.92,0,0,0-1.58,9.57,37.32,37.32,0,0,0,.86,7.7,45.35,45.35,0,0,0,2.14,7.32Zm28.83-16.67a15.5,15.5,0,0,0,2,.3q1,.07,2,.08a12.3,12.3,0,0,0,4-.64,9.73,9.73,0,0,0,3.27-1.84,8.3,8.3,0,0,0,2.18-3,10,10,0,0,0,.79-4.05,13.56,13.56,0,0,0-1.31-6.19,12.49,12.49,0,0,0-3.49-4.28,14.82,14.82,0,0,0-5.07-2.52,23.94,23.94,0,0,0-6-.9Z"/><path class="cls-4" d="M92.74,294.87A3.43,3.43,0,0,1,95,297.35q.3,1.13.53,2.33t.37,2.33q.15,1.13.26,2.07a13.1,13.1,0,0,1,.11,1.46,1.6,1.6,0,0,1-.26,1.09.87.87,0,0,1-.64.26,4,4,0,0,1-1.28-.38L40.62,282.25q-1.28-.6-1.35-1.28-.15-.83-.26-2.29t-.11-2.14a1.78,1.78,0,0,1,.22-.86,1.83,1.83,0,0,1,1-.71l37.84-14.34L40.62,246a2.74,2.74,0,0,1-1-.6,1.45,1.45,0,0,1-.34-.68c0-.25-.1-.59-.15-1s-.09-.86-.11-1.31,0-.88-.08-1.28,0-.7,0-.9a1.78,1.78,0,0,1,.22-.86,1.83,1.83,0,0,1,1-.71L83,221.21A10.89,10.89,0,0,0,87.63,218a6.93,6.93,0,0,0,1.2-4.05q0-.75-.08-1.58c0-.55-.12-1.13-.22-1.73l3.6-.45q.9,3.08,1.65,6.23t1.31,5.86q.56,2.7.86,4.58a20.94,20.94,0,0,1,.3,2.4,2,2,0,0,1-.71,1.69,7,7,0,0,1-2,1L56.17,245.31v.3l36.64,13.74a2.91,2.91,0,0,1,1.46.9,4,4,0,0,1,.41,1.05q.07.52.15,1.24t.11,1.39c0,.45,0,.86.08,1.24s0,.66,0,.86a1.94,1.94,0,0,1-.22.94,2.37,2.37,0,0,1-1.28.79L56.17,281.66v.3Z"/><path class="cls-4" d="M90.48,312.81q1.58,3.9,2.78,7.7t2,7.13q.79,3.34,1.2,6.08a31.69,31.69,0,0,1,.41,4.54,28.76,28.76,0,0,1-1.24,9.09,12.87,12.87,0,0,1-3.94,5.93,16.38,16.38,0,0,1-6.87,3.23,42.19,42.19,0,0,1-10,.9L50.31,357a20.27,20.27,0,0,0-4.35.3q-2,.38-4,.83a1.26,1.26,0,0,1-.6.08q-1.13,0-1.35-1.5-.23-1-.41-2.21t-.3-2.52q-.11-1.28-.15-2.55t0-2.25a1.59,1.59,0,0,1,.45-1.24,3.08,3.08,0,0,1,1.35-.64l3.6-1q-1.28-2.85-2.37-5.86t-1.88-5.74q-.79-2.74-1.24-5a19.56,19.56,0,0,1-.45-3.68,15.26,15.26,0,0,1,1.46-6.91,14.68,14.68,0,0,1,8.56-7.58,15.8,15.8,0,0,1,5.07-.9,15.58,15.58,0,0,1,7.25,1.54,14.17,14.17,0,0,1,4.92,4.17,21.17,21.17,0,0,1,2.85,5.44,40,40,0,0,1,1.76,6.87q.64,3.76.94,8.11t.45,9.16l2.55.07a31.73,31.73,0,0,0,6.2-.41,11.81,11.81,0,0,0,4.62-1.77,8.08,8.08,0,0,0,2.85-3.45,13.44,13.44,0,0,0,1-5.48,42,42,0,0,0-.9-8.45,98.06,98.06,0,0,0-2.7-10ZM66.75,343.89q-.22-3.53-.41-6.61t-.56-5.63a19.73,19.73,0,0,0-1.16-4.51A7.9,7.9,0,0,0,62.4,324a8.84,8.84,0,0,0-2.63-1.5,9.61,9.61,0,0,0-3.45-.6,11.34,11.34,0,0,0-3.23.49,7.89,7.89,0,0,0-3,1.73,9.29,9.29,0,0,0-2.29,3.34,13.61,13.61,0,0,0-.9,5.33,11.27,11.27,0,0,0,.15,1.46q.15,1,.49,2.48t.94,3.27a31.69,31.69,0,0,0,1.5,3.68Z"/><path class="cls-4" d="M92.14,368.07q1.12,4.05,1.91,7.47t1.31,6q.52,2.59.75,4.24a20.48,20.48,0,0,1,.22,2.18q0,2.25-2.7,2.48l-3.15.23q1.28,3.45,2.4,6.95t2,6.65q.86,3.15,1.35,5.78a25,25,0,0,1,.49,4.43,18,18,0,0,1-1.35,7.32,13.25,13.25,0,0,1-3.75,5,15.28,15.28,0,0,1-5.82,2.85,29.53,29.53,0,0,1-7.55.9l-36.12-.38a1.93,1.93,0,0,1-2.1-1.8q-.23-1.2-.41-2.67t-.3-2.85q-.11-1.39-.15-2.55c0-.78,0-1.34,0-1.69q0-1.8,1.88-1.8l29.88.38H72a34.84,34.84,0,0,0,7.1-.64,13.54,13.54,0,0,0,5.14-2.14,9.29,9.29,0,0,0,3.15-3.91,15,15,0,0,0,1.05-6,31.36,31.36,0,0,0-.75-5.07,45.24,45.24,0,0,0-2.93-8.75H42.13a1.93,1.93,0,0,1-2.1-1.8q-.23-1.2-.41-2.67t-.3-2.85q-.11-1.39-.15-2.55c0-.78,0-1.34,0-1.69q0-1.8,1.88-1.8H81.92q4,0,5.44-1.28A5.11,5.11,0,0,0,88.83,372q0-.75,0-1.54a13.41,13.41,0,0,0-.26-1.92Z"/><path class="cls-4" d="M93.19,440.68q.15,2,.3,4.28t.3,4.58h11.56a6.34,6.34,0,0,1,2.29.3,2.12,2.12,0,0,1,1.09,1.35q.52,1.43,1.05,3t.94,2.93q.41,1.39.68,2.48a7.75,7.75,0,0,1,.26,1.69q0,1.65-1.88,1.65H94.46q.23,5,.34,9.27t.11,6.57a1.75,1.75,0,0,1-.37,1.09,1.42,1.42,0,0,1-1.2.49h-.15l-4.66-.3-.08-17.12H56.54q-5,0-7.32,2.7a10.54,10.54,0,0,0-2.29,7.06,24,24,0,0,0,.49,4.54,37,37,0,0,0,1.76,5.89l-4.58,1.58q-1.28-2.85-2.37-5.82t-1.91-5.67q-.83-2.7-1.28-4.92a18.48,18.48,0,0,1-.45-3.42,17.59,17.59,0,0,1,1.05-6.2,12.88,12.88,0,0,1,3.15-4.84,14.58,14.58,0,0,1,5.14-3.15,20.15,20.15,0,0,1,7-1.13H88.38l-.23-8.63Z"/><path class="cls-4" d="M92.74,570.13A3.18,3.18,0,0,1,95,572.61q.3,1.13.53,2.33t.37,2.33q.15,1.13.26,2.06a13.09,13.09,0,0,1,.11,1.46q0,1.35-.9,1.35a3,3,0,0,1-1.28-.37q-5.33-2.7-11.23-5.59t-11.94-5.82q-6-2.93-12.05-5.74t-11.56-5.37q-5.56-2.55-10.48-4.69t-8.75-3.72q-3.38-1.35-7.43-3.15a39.63,39.63,0,0,1-7.55-4.39,24.1,24.1,0,0,1-5.82-6.12A14.79,14.79,0,0,1,5,528.84a9.85,9.85,0,0,1,.6-3.53,8.19,8.19,0,0,1,1.65-2.7,7.38,7.38,0,0,1,2.4-1.73,7.15,7.15,0,0,1,2.93-.6,8.44,8.44,0,0,1,2.52.41,6.16,6.16,0,0,1,2.37,1.39,14,14,0,0,0-1.39,3.3,13.17,13.17,0,0,0,.26,7.43,11.86,11.86,0,0,0,2.37,4,24.58,24.58,0,0,0,4.54,3.94,47.27,47.27,0,0,0,7.28,4l9.61,4.36,42.8-18.7a11.31,11.31,0,0,0,4.73-3.15,6.59,6.59,0,0,0,1.2-4q0-.75-.08-1.58T88.53,520l3.6-.45q.9,3.08,1.65,6.23t1.31,5.86q.56,2.7.86,4.58a21,21,0,0,1,.3,2.4,1.91,1.91,0,0,1-.71,1.65,9.62,9.62,0,0,1-2,1.05L56.17,555.79v.3Z"/><path class="cls-4" d="M38.6,612.34A28,28,0,0,1,40.81,601a27,27,0,0,1,6-8.75,26.49,26.49,0,0,1,9-5.67,32.86,32.86,0,0,1,23.31.3,27.27,27.27,0,0,1,9.35,6.34,28.52,28.52,0,0,1,6,9.69,34.61,34.61,0,0,1,2.14,12.39,29.35,29.35,0,0,1-2.14,11.38,26,26,0,0,1-5.89,8.79,26.76,26.76,0,0,1-8.86,5.67,29.64,29.64,0,0,1-11,2A32.77,32.77,0,0,1,56.43,641a27.11,27.11,0,0,1-9.54-6.34,28.73,28.73,0,0,1-6.12-9.76A34.62,34.62,0,0,1,38.6,612.34Zm6.61,3.53A11.75,11.75,0,0,0,47,622.55a12.62,12.62,0,0,0,4.54,4.13,19.67,19.67,0,0,0,6.23,2.07,42,42,0,0,0,6.76.56,45.64,45.64,0,0,0,8.56-.86,29.12,29.12,0,0,0,8.3-2.89,18.8,18.8,0,0,0,6.27-5.33A13.25,13.25,0,0,0,90.11,612a11.76,11.76,0,0,0-1.76-6.68,12.54,12.54,0,0,0-4.58-4.13,20.78,20.78,0,0,0-6.23-2.1,39.1,39.1,0,0,0-6.79-.6,44,44,0,0,0-8.64.9,29.37,29.37,0,0,0-8.26,2.93,18.49,18.49,0,0,0-6.19,5.33A13.38,13.38,0,0,0,45.21,615.87Z"/><path class="cls-4" d="M81.92,699.14q4,0,5.44-1.28a5,5,0,0,0,1.46-4q0-.83,0-1.61a13.42,13.42,0,0,0-.26-1.92l3.6-.45Q93.26,694,94,697.42t1.31,6.12q.52,2.66.75,4.36a21.53,21.53,0,0,1,.22,2.21q0,2.4-2.7,2.4H50.76a30.14,30.14,0,0,0-4.69.34q-2.14.34-4.09.79l-.45.08q-1.13,0-1.5-1.5-.15-1-.3-2.21t-.3-2.55q-.15-1.32-.23-2.63c0-.88-.08-1.64-.08-2.29a1.6,1.6,0,0,1,.45-1.24,3.08,3.08,0,0,1,1.35-.64l4.21-1.13q-1.35-3.53-2.55-7t-2.06-6.65q-.86-3.15-1.39-5.78a23.32,23.32,0,0,1-.53-4.43,17.75,17.75,0,0,1,1.35-7.25,13.23,13.23,0,0,1,3.75-5,15.67,15.67,0,0,1,5.82-2.89,28.43,28.43,0,0,1,7.55-.94l24.85.38q4,.07,5.44-1.24a5.13,5.13,0,0,0,1.46-4c0-.55,0-1.09,0-1.62a13.38,13.38,0,0,0-.26-1.91l3.6-.45q1.12,4.05,1.91,7.51t1.31,6.12q.52,2.66.75,4.36a21.5,21.5,0,0,1,.22,2.21q0,2.4-2.7,2.4l-29.21-.37H63.3a34.84,34.84,0,0,0-7.1.64,13.13,13.13,0,0,0-5.11,2.14A9.36,9.36,0,0,0,48,679.62a14.77,14.77,0,0,0-1.05,5.93,17.43,17.43,0,0,0,.26,2.74q.26,1.61.75,3.45t1.16,3.75q.68,1.91,1.43,3.64Z"/><path class="cls-4" d="M46.26,744.35Q42,744.35,40,742a10.17,10.17,0,0,1-2-6.65,7,7,0,0,1,2.18-5.52,8.79,8.79,0,0,1,6-1.92q4.28,0,6.27,2.4a10.18,10.18,0,0,1,2,6.68,6.79,6.79,0,0,1-2.21,5.48A9.06,9.06,0,0,1,46.26,744.35Z"/></g></g></svg>