<svg id="圖層_1" data-name="圖層 1" xmlns="http://www.w3.org/2000/svg" xmlns:xlink="http://www.w3.org/1999/xlink" viewBox="0 0 1152.03 371.21"><defs><style>.cls-1,.cls-10,.cls-11,.cls-9{fill:none;}.cls-2{clip-path:url(#clip-path);}.cls-3{fill:url(#linear-gradient);}.cls-4{fill:#c99260;}.cls-5{fill:#fff;}.cls-6{fill:#9b5639;}.cls-7{fill:#f1c995;}.cls-8{fill:#4d4d4d;}.cls-10,.cls-9{stroke:#f1c995;}.cls-10,.cls-11,.cls-9{stroke-miterlimit:10;}.cls-9{stroke-width:5.5px;}.cls-10,.cls-11{stroke-width:1.83px;}.cls-11{stroke:#c99260;}</style><clipPath id="clip-path"><rect class="cls-1" x="137.03" y="172.53" width="1015" height="21.32"/></clipPath><linearGradient id="linear-gradient" x1="1512.8" y1="6208.92" x2="1513.8" y2="6208.92" gradientTransform="matrix(1015, -0.1, -0.1, -999.02, -1534732.99, 6203153.24)" gradientUnits="userSpaceOnUse"><stop offset="0" stop-color="#f1c995"/><stop offset="0.09" stop-color="#e9be8a"/><stop offset="0.47" stop-color="#c99260"/><stop offset="1" stop-color="#9b5639"/></linearGradient></defs><title>工作區域 8</title><rect class="cls-1" x="-597.97" y="-462.08" width="1920" height="6671"/><rect class="cls-1" x="-597.97" y="-462.08" width="1920" height="6671"/><g class="cls-2"><rect class="cls-3" x="137.03" y="172.45" width="1015" height="21.47"/></g><path class="cls-4" d="M667.75,185.82a24,24,0,1,1-24-24,24,24,0,0,1,24,24"/><path class="cls-5" d="M661.07,185.82a17.31,17.31,0,1,1-17.31-17.31,17.31,17.31,0,0,1,17.31,17.31"/><path class="cls-6" d="M1015.39,182.09a24,24,0,1,1-24-24,24,24,0,0,1,24,24"/><path class="cls-5" d="M1008.7,182.09a17.31,17.31,0,1,1-17.32-17.31,17.31,17.31,0,0,1,17.32,17.31"/><path class="cls-7" d="M316,182.09a24,24,0,1,1-24-24,24,24,0,0,1,24,24"/><path class="cls-5" d="M309.35,182.09A17.31,17.31,0,1,1,292,164.78a17.31,17.31,0,0,1,17.31,17.31"/><path class="cls-7" d="M215.15,16.73V9.84q9.74,0,14.37-9.45H237a59.13,59.13,0,0,0-.59,5.9q-.2,3.45-.2,6.49V57.86q0,1.77.1,2.85.1.59.15,1.33a10.67,10.67,0,0,0,.25,1.62q.1,1.18.3,2.66H223.52a96.74,96.74,0,0,0,.89-13.09V16.73Z"/><path class="cls-7" d="M261.3,42A16,16,0,0,1,248,35.32a22.93,22.93,0,0,1-4.72-14.46q0-9.25,5.71-15.05T264.05,0q10.43,0,16.33,7.67,5.31,7,5.31,17.71,0,13.68-9.25,25.88a58.78,58.78,0,0,1-21.65,17.61l-6.1-9.54a36.61,36.61,0,0,0,12.89-8.27A55.88,55.88,0,0,0,271,38.77a21,21,0,0,1-4.77,2.41A15,15,0,0,1,261.3,42ZM273.6,24.5a20.92,20.92,0,0,0-2.07-9.64q-2.66-5.11-7.87-5.12a7.27,7.27,0,0,0-6.2,2.9,11.59,11.59,0,0,0-2.16,7.13A14.39,14.39,0,0,0,257.71,28a7.76,7.76,0,0,0,6.84,3.59,10.71,10.71,0,0,0,4.77-1.08,15.2,15.2,0,0,0,4.08-3Z"/><path class="cls-7" d="M310,42a16,16,0,0,1-13.28-6.69A22.93,22.93,0,0,1,292,20.86q0-9.25,5.71-15.05T312.76,0q10.43,0,16.33,7.67,5.31,7,5.31,17.71,0,13.68-9.25,25.88a58.78,58.78,0,0,1-21.65,17.61l-6.1-9.54a36.61,36.61,0,0,0,12.89-8.27,55.88,55.88,0,0,0,9.45-12.3A21,21,0,0,1,315,41.18,15,15,0,0,1,310,42ZM322.3,24.5a20.92,20.92,0,0,0-2.07-9.64q-2.66-5.11-7.87-5.12a7.27,7.27,0,0,0-6.2,2.9A11.59,11.59,0,0,0,304,19.78,14.39,14.39,0,0,0,306.41,28a7.76,7.76,0,0,0,6.84,3.59A10.71,10.71,0,0,0,318,30.5a15.2,15.2,0,0,0,4.08-3Z"/><path class="cls-7" d="M375,11.81q-2.46-.3-5-.49t-5-.2h-9.25l-2,10.23a21.8,21.8,0,0,1,5.61-.79,15.13,15.13,0,0,1,11.76,5.07A17.77,17.77,0,0,1,375.73,38q0,13.19-10.72,21.55a36.5,36.5,0,0,1-23.12,7.67L340.7,55.89h1.77a24.25,24.25,0,0,0,13.87-4.33q7.18-4.82,7.18-12a8.6,8.6,0,0,0-2.21-6.05,7.46,7.46,0,0,0-5.76-2.41,11.65,11.65,0,0,0-3.89.64,17.93,17.93,0,0,0-3.79,1.92l-7-7a92.88,92.88,0,0,0,3.59-13A65.53,65.53,0,0,0,345.92.69H375Z"/><path class="cls-4" d="M610.91,318.61H572.53v-9.74q2.85-3.34,6.49-8.36t7.87-11.32q4.82-7.38,7.58-12.59t2.75-7.28a5.76,5.76,0,0,0-2.26-4.87,8.69,8.69,0,0,0-5.41-1.72,18.79,18.79,0,0,0-7.09,1.48,23.8,23.8,0,0,0-6.2,3.54V256.23a35.63,35.63,0,0,1,7.13-2.76,29.13,29.13,0,0,1,7.53-1A20.3,20.3,0,0,1,604,256.82q5.31,4.33,5.31,11.91a18.48,18.48,0,0,1-1.28,6.1,59.84,59.84,0,0,1-3.54,7.77q-1.67,3.05-4.23,6.94t-5.61,8.31q-1,1.38-1.87,2.66t-1.87,2.56q-1,1.38-1.92,2.61t-1.82,2.51h10.63q3.44,0,6.74-.15t6.35-.54Z"/><path class="cls-4" d="M639.73,319.3q-12.69,0-18.3-11-4.23-8.36-4.23-22.53t4.13-22.43q5.51-10.92,18.4-10.92t18.4,11q4.23,8.26,4.23,22.43t-4.23,22.43Q652.53,319.3,639.73,319.3Zm.1-56.67q-6.4,0-8.76,9a58.22,58.22,0,0,0-1.38,14.27q0,12.1,2.51,17.61t7.63,5.51q6.39,0,8.76-9A57.78,57.78,0,0,0,650,285.84q0-9.25-1.28-14.17Q646.33,262.62,639.83,262.62Z"/><path class="cls-4" d="M668.66,269v-6.89q9.74,0,14.37-9.45h7.48q-.39,2.46-.59,5.9t-.2,6.49v45.06q0,1.77.1,2.85.1.59.15,1.33a10.59,10.59,0,0,0,.25,1.62q.1,1.18.29,2.66H677a96.65,96.65,0,0,0,.89-13.09V269Z"/><path class="cls-4" d="M731.14,264.1q-2.46-.3-5-.49t-5-.2h-9.25l-2,10.23a21.79,21.79,0,0,1,5.61-.79,15.13,15.13,0,0,1,11.76,5.07,17.77,17.77,0,0,1,4.58,12.35q0,13.19-10.72,21.55A36.5,36.5,0,0,1,698,319.49l-1.18-11.32h1.77a24.25,24.25,0,0,0,13.87-4.33q7.18-4.82,7.18-12a8.61,8.61,0,0,0-2.21-6.05,7.46,7.46,0,0,0-5.76-2.41,11.66,11.66,0,0,0-3.89.64,18,18,0,0,0-3.79,1.92l-7-7a93,93,0,0,0,3.59-13A65.53,65.53,0,0,0,702,253h29.13Z"/><path class="cls-6" d="M942.89,66.32H904.52V56.58q2.85-3.34,6.49-8.36t7.87-11.32q4.82-7.38,7.58-12.59T929.22,17A5.76,5.76,0,0,0,927,12.15a8.69,8.69,0,0,0-5.41-1.72,18.79,18.79,0,0,0-7.09,1.48,23.8,23.8,0,0,0-6.2,3.54V3.94a35.63,35.63,0,0,1,7.13-2.76,29.13,29.13,0,0,1,7.53-1A20.3,20.3,0,0,1,936,4.53q5.31,4.33,5.31,11.91a18.48,18.48,0,0,1-1.28,6.1,59.83,59.83,0,0,1-3.54,7.77q-1.67,3.05-4.23,6.94t-5.61,8.31q-1,1.38-1.87,2.66t-1.87,2.56q-1,1.38-1.92,2.61t-1.82,2.51h10.63q3.44,0,6.74-.15t6.35-.54Z"/><path class="cls-6" d="M971.72,67Q959,67,953.42,56q-4.23-8.36-4.23-22.53T953.32,11Q958.83.1,971.72.1t18.4,11q4.23,8.26,4.23,22.43T990.12,56Q984.51,67,971.72,67Zm.1-56.67q-6.4,0-8.76,9a58.22,58.22,0,0,0-1.38,14.27q0,12.1,2.51,17.61t7.63,5.51q6.39,0,8.76-9A57.78,57.78,0,0,0,982,33.55q0-9.25-1.28-14.17Q978.31,10.33,971.82,10.33Z"/><path class="cls-6" d="M1000.65,16.73V9.84q9.74,0,14.37-9.45h7.48q-.39,2.46-.59,5.9t-.2,6.49V57.86q0,1.77.1,2.85.1.59.15,1.33a10.59,10.59,0,0,0,.25,1.62q.1,1.18.29,2.66H1009a96.66,96.66,0,0,0,.89-13.09V16.73Z"/><path class="cls-6" d="M1030.17,11.91V.69h37.39v9.94q0,.39-6.79,12.4-10,17.71-13.68,24.4-8,14.66-10.23,20.86l-11.22-6.1A188.23,188.23,0,0,0,1036,45.75q3.54-6.2,9.25-17.32,7-13.58,9-17.22h-5.07q-2.51,0-5-.1-5.71,0-7.82.15T1030.17,11.91Z"/><path class="cls-7" d="M246,104.6h-8.37c2.86,1.34,5.9,2.92,7.74,4.05L243,111.36a64.6,64.6,0,0,0-8.16-4.65l1.67-2.11h-9.08l2.65,2.14a57.11,57.11,0,0,1-9.2,4.74,30.88,30.88,0,0,0-2-2.65,38.91,38.91,0,0,0,8.16-4.23h-8.16v-3.25h2.14l-.42-15.61a32.91,32.91,0,0,0,4.94-1.88l1.49,2.89V85.09h10.81v16.26h3c.06-.83.09-1.7.15-2.62h-2.5v-2.8h2.62c0-.83.06-1.7.06-2.56h-2.44V90.54h2.53c0-1,0-1.85,0-2.77H238.7V84.91h5.75c-.06,5.21-.27,11.82-.54,16.44H246Zm-22-3.25h3V86.91c-1.13.33-2.26.66-3.4.92l.09,2.68h2.59v2.83h-2.53l.06,2.53h2.5V98.7H224Zm5.51-13.61v13.61h5.78V87.74Zm5.06,3.69h-4.38V89.26h4.41Zm-4.26,1.46h4.29v6.7h-4.29Zm1.46,4.68h1.34V94.92h-1.34Z"/><path class="cls-7" d="M257.9,88v23.53H255v-5.12c-2.11.39-4.2.77-6,1l-.66-3.07,1.55-.21V88h-1.1V84.82h10.07V88ZM255,88h-2.26v3.13H255Zm0,6h-2.26v3.16H255Zm0,9.38V100h-2.26v3.69ZM266,93a42.94,42.94,0,0,1,1.43,4.91l-2.11.66c-.09-.39-.18-.86-.27-1.37-4.85.6-5.63.8-6.11,1.07-.12-.69-.48-2.2-.74-3.07a4,4,0,0,0,1.73-1.37,13.38,13.38,0,0,0,1.25-1.52,5.06,5.06,0,0,0-2.08.45,25.93,25.93,0,0,0-.8-3.16,2.42,2.42,0,0,0,1.22-1,20.5,20.5,0,0,0,2.62-4.74l2.5,1.1a32.5,32.5,0,0,1-3.22,5.15l1.37-.06c.54-.86,1.07-1.73,1.55-2.65l2.32,1.19a42.35,42.35,0,0,1-4.94,6.73l2.74-.27c-.15-.54-.33-1.07-.48-1.55Zm-2.38,5.6h2.92V103a8.68,8.68,0,0,1-5.54,8.64,11.28,11.28,0,0,0-1.85-2.41c2.26-1,3.4-2.14,4-3.43h-3.75V98.58h2.83v4.29h1.43Zm10.84-.15c-.12-.45-.24-1-.42-1.52-4.77.8-5.57,1.07-6.08,1.37a28.38,28.38,0,0,0-.71-3c.51-.09,1-.63,1.61-1.4A17.35,17.35,0,0,0,270.2,92a7,7,0,0,0-2.62.54c-.15-.66-.51-2.11-.77-2.92a2.15,2.15,0,0,0,1.19-1,20.06,20.06,0,0,0,2.65-4.62l2.17,1.16a29,29,0,0,1-2.89,4.62l1.61-.09a26.7,26.7,0,0,0,1.22-2.44L275,88.48a43.38,43.38,0,0,1-4.2,6.67l2.53-.36c-.18-.54-.39-1-.57-1.52l2-.66c.66,1.58,1.43,3.69,1.79,4.94Zm-2.17.36h2.86v8h-2.86v-1H270.8v5.69h-3V98.61h3v4.17h1.49Z"/><path class="cls-7" d="M305.91,107.67v3h-27.7v-3h3.48V101h20.94v6.7ZM283.1,98.85h-3.22V85H290V97.39H283.1Zm0-11.08v2.14h3.69V87.77Zm3.69,6.88V92.54H283.1v2.11Zm-1.82,13h2.53v-4H285Zm9.86-12a9.54,9.54,0,0,1-3.25,5.12,13.53,13.53,0,0,0-2.47-2.23c2.83-2.2,3.13-5.36,3.13-8v-6H304V97.06c0,1.52-.3,2.29-1.37,2.77a10.22,10.22,0,0,1-4.32.57,11.94,11.94,0,0,0-1.25-2.89c1.19.06,2.5,0,2.89,0s.54-.12.54-.48V95.66Zm-4.08,8v4h2.59v-4Zm9.77-10.48V91.43h-5.06c0,.57-.06,1.19-.15,1.79Zm-5.06-5.93V89h5.06V87.29Zm1.1,16.41v4h2.59v-4Z"/><path class="cls-7" d="M340.64,94.05a34.6,34.6,0,0,1-5.12,10.22c.86,2.14,1.82,3.4,2.77,3.4.71,0,1.07-1.49,1.22-5.21a9.63,9.63,0,0,0,3,2c-.57,5.51-1.76,6.82-4.53,6.82-2.08,0-3.72-1.49-5-3.93a25.25,25.25,0,0,1-5,4.05,23.35,23.35,0,0,0-2.56-2.92,22.75,22.75,0,0,0,6.08-4.83,61.53,61.53,0,0,1-2.06-12h-8.64v3.19h7.36s0,.92,0,1.34c-.09,6.25-.27,8.91-1,9.77a2.8,2.8,0,0,1-2.06,1.19,23.44,23.44,0,0,1-3.43.09,8,8,0,0,0-1-3.31c1.07.09,2.08.12,2.56.12a1,1,0,0,0,.89-.36c.3-.42.42-1.85.51-5.6h-3.87c-.12,4.35-.74,10.16-3.19,13.79a15.51,15.51,0,0,0-3-2.41c2.26-3.57,2.47-8.76,2.47-12.63v-8.7h12.15c-.06-1.46-.12-2.92-.12-4.41h3.72c0,1.49,0,2.95.06,4.41h4.56a37.27,37.27,0,0,0-3.81-2.59l2.14-2.11a24.92,24.92,0,0,1,4.85,3.19l-1.43,1.52h3.1v3.51H333a70.31,70.31,0,0,0,1.19,8.16,30.15,30.15,0,0,0,2.86-6.61Z"/><path class="cls-7" d="M371.91,106.8v3.6h-27v-3.6h14.59a75.33,75.33,0,0,0,3.84-13.25l4,.77a123.92,123.92,0,0,1-4,12.48ZM370.66,92.6H346.23V89H357a42.52,42.52,0,0,0-1.43-4.77l3.54-.89a38.78,38.78,0,0,1,1.61,4.74l-3.19.92h13.08ZM352.4,106.09a89.65,89.65,0,0,0-2.47-11.77l3.57-.86a99,99,0,0,1,2.71,11.65Z"/><path class="cls-8" d="M162.1,250.42c-2.85,1.31-6,2.68-8.21,3.67l-.49-1.39c.8-.31,1.76-.72,2.83-1.17l-.33-12.82,1.37,0,.31,12.29c1.35-.59,2.81-1.23,4.22-1.86Zm9.09,5.8a50.72,50.72,0,0,0-4.71-5.51,14.84,14.84,0,0,1-7.17,5.63,10.77,10.77,0,0,0-1.06-1.17c7.13-2.58,9.3-7.56,10.22-16.5l1.47.14c-.49,4.44-1.29,7.92-2.74,10.69a59,59,0,0,1,5.14,5.65Zm-7.92-10.44a19.53,19.53,0,0,0-3.15-5l1.17-.59a19.24,19.24,0,0,1,3.26,4.87Z"/><path class="cls-8" d="M179.6,249v7.17h-1.31V249h-4.16v-1.19h4.16v-2.23h-4.24v-1.17h5.67a27.13,27.13,0,0,0,1.15-3.36l1.27.29c-.37,1-.78,2.17-1.19,3.07h2.68v1.17h-4v2.23h3.83V249Zm-2.46,1.47A15.9,15.9,0,0,1,175,254.6c-.23-.16-.68-.51-1-.68a12,12,0,0,0,1.95-3.71Zm6.18-9.56h-9v-1.17h4.12c-.27-.61-.61-1.33-.92-1.9l1.31-.35a21.6,21.6,0,0,1,1.17,2.25h3.3Zm-6.76,3.38a14,14,0,0,0-.82-2.95l1.09-.27a11.08,11.08,0,0,1,.88,2.91Zm5,5.77a20.42,20.42,0,0,1,1.72,3.28l-1,.53a22.41,22.41,0,0,0-1.7-3.34Zm11-4.32h-2.31v10.4h-1.31v-10.4h-3v.8c0,2.93-.27,6.92-2.15,9.58a4.5,4.5,0,0,0-1-.82c1.76-2.5,1.95-6,1.95-8.76v-7a36.65,36.65,0,0,0,6.41-1.58l1.11,1a33.11,33.11,0,0,1-6.27,1.49v4h6.61Z"/><path class="cls-8" d="M202.12,253.86c-.45-.59-1.62-1.9-2.48-2.79v5.2h-1.23V251a14,14,0,0,1-3.54,3.83,6.55,6.55,0,0,0-.61-1.19,12.42,12.42,0,0,0,3.73-3.79h-3.32v-1.19h3.75V246.8c-1.06.14-2.15.25-3.15.33a4.33,4.33,0,0,0-.35-1.06,38.93,38.93,0,0,0,7.17-1.19l.72,1.09a21.81,21.81,0,0,1-3.15.66v2h3.6v1.19h-3.6v0c.72.57,2.79,2.46,3.28,2.95Zm-4.77-9.93c-1.52,0-2-.49-2-2v-4.24h1.21v2.07h5.67v1.15h-5.67v1c0,.63.12.84.7.84h3.58a8.81,8.81,0,0,0,1.52-.1c0,.33.08.88.12,1.15a8.15,8.15,0,0,1-1.6.1Zm9.79,9.65a14.45,14.45,0,0,1-4.3,2.74,6.36,6.36,0,0,0-.9-.92,11.81,11.81,0,0,0,4-2.5Zm-.33-11.73c.16-.61.35-1.37.49-2h-4v-1.21h9.54v1.21h-4.14c-.18.68-.41,1.39-.63,2h4.26v10.61H204V241.84Zm4.26,1.11h-5.82V245h5.82Zm0,3.13h-5.82v2.11h5.82Zm0,3.15h-5.82v2.13h5.82ZM209.95,253a23.89,23.89,0,0,1,3.5,2.58l-1.06.76a22.13,22.13,0,0,0-3.44-2.66Z"/><path class="cls-8" d="M215.08,254.62a15,15,0,0,0,2.23-4.89l1.21.41a16.47,16.47,0,0,1-2.23,5.12Zm16.16-7H217v-9.09h14.21Zm-12.92-5.14h5.18v-2.74h-5.18Zm0,3.93h5.18v-2.78h-5.18Zm8.42,8.17c1,0,1.21-.35,1.31-2.68a4.47,4.47,0,0,0,1.25.51c-.18,2.76-.61,3.42-2.44,3.42H222.6c-2.11,0-2.68-.41-2.68-1.93v-4.18h1.35v4.18c0,.55.23.68,1.41.68Zm-.66-2.64a22.19,22.19,0,0,0-4.28-3l.88-.82A19.11,19.11,0,0,1,227,251Zm3.81-12.2h-5.06v2.74h5.06Zm0,3.89h-5.06v2.78h5.06Zm.49,5.84a21.13,21.13,0,0,1,2.95,5l-1.33.59a20.56,20.56,0,0,0-2.83-5.12Z"/><path class="cls-8" d="M237.48,250.87a32.5,32.5,0,0,1-1,4.91,9.4,9.4,0,0,0-1.07-.39,22.62,22.62,0,0,0,1-4.71Zm4.05-5.61a18.52,18.52,0,0,1,1.47,4l-1.06.41c-.06-.31-.14-.66-.25-1-4.77.72-5.39.88-5.75,1.06a9.36,9.36,0,0,0-.41-1.21c.41-.08.88-.59,1.47-1.37a26.26,26.26,0,0,0,1.78-2.48,10.83,10.83,0,0,0-3,.49c-.06-.29-.27-.86-.39-1.21.33-.06.68-.49,1.11-1.11a29.2,29.2,0,0,0,2.72-5.2l1.19.49a35,35,0,0,1-3.19,5.61l2.29-.23c.55-.9,1.09-1.86,1.56-2.83l1.11.61a39.49,39.49,0,0,1-4.65,6.86l3.85-.51a19.28,19.28,0,0,0-.84-2.09Zm-2,5.34a39.58,39.58,0,0,1,.55,4.32l-1.06.25a39.84,39.84,0,0,0-.51-4.36Zm2.17-.51a30.75,30.75,0,0,1,1.25,4l-1,.33a31.08,31.08,0,0,0-1.17-4Zm12.12,4.71h-8.27v1.49h-1.25v-12a22.6,22.6,0,0,1-1.33,1.84,7.66,7.66,0,0,0-.7-1.17,21.88,21.88,0,0,0,3.65-7.19l1.29.37a28.8,28.8,0,0,1-1.27,3.19h7.58v1.25H250v2.72h3.21v1.25H250v2.78h3.24v1.25H250v2.95h3.89Zm-5.14-12.23h-3.13v2.72h3.13Zm0,4h-3.13v2.78h3.13Zm-3.13,7h3.13v-2.95h-3.13Zm3.77-12.41a21.37,21.37,0,0,0-1.37-2.89l1.15-.47a20.84,20.84,0,0,1,1.39,2.81Z"/><path class="cls-8" d="M274.38,250.22v1.27H256v-1.27h2.09l-.39-10.89a31.75,31.75,0,0,0,3.77-1.58l.7,1.13c-.94.41-2.13.82-3.19,1.17l.08,2.5h2.85v1.17h-2.81l.1,2.66h2.76v1.17h-2.72l.1,2.68H271.1c0-.76.1-1.66.14-2.6h-2.78v-1.17h2.83c0-.86.08-1.76.1-2.66h-2.83v-1.17h2.85c0-.94,0-1.86,0-2.72H268.4v-1.21h4.3c0,3.6-.12,8.52-.31,11.53Zm-11.22,2.5a31.3,31.3,0,0,1-6.08,3.54c-.18-.27-.55-.74-.8-1a24.41,24.41,0,0,0,5.69-3.34Zm1.64-7.23a10.63,10.63,0,0,1-1.31,3.89,6.47,6.47,0,0,0-1-.61,7.9,7.9,0,0,0,1.19-3.44Zm1.49-1.13H263v-6.59h1.19v2h3.42v1.17h-3.42v2.31H267v0h.51v5.45c0,.59-.12.84-.55,1a7.16,7.16,0,0,1-2.13.16,3.45,3.45,0,0,0-.37-1,14.59,14.59,0,0,0,1.6,0c.2,0,.27-.08.27-.27Zm1.66,7.47a47.73,47.73,0,0,1,6,3.34l-.88,1a47.55,47.55,0,0,0-5.84-3.42Z"/><path class="cls-8" d="M284,251.94l.16,1.19-7.49,2.09-.35-1.29,1-.25v-7h1.11v6.72L280,253v-8.33H277.2v-6.14h6v6.14h-2v2.95h2.21v1.23h-2.21v3.83Zm-5.59-8.48H282v-3.73h-3.62Zm12.86-2a11.26,11.26,0,0,0,4,3.87,5.38,5.38,0,0,0-.9,1,13.13,13.13,0,0,1-4.4-4.89h-1.29a12.8,12.8,0,0,1-2.25,2.85h5.45v1.15h-5.47v-1.13a13,13,0,0,1-2.38,1.84,6.14,6.14,0,0,0-.74-1.17,11.67,11.67,0,0,0,3.93-3.54h-3v-1.21h3.71a13.66,13.66,0,0,0,.94-2.31l1.19.31a13.13,13.13,0,0,1-.78,2h5.49v1.21Zm-7.29,5.79h10.69v1.19h-6.88c-.23.72-.45,1.47-.66,2.15h6.35l-.06.59c-.29,2.91-.61,4.16-1.15,4.67a2.07,2.07,0,0,1-1.54.49,31.44,31.44,0,0,1-3.26-.06,2.76,2.76,0,0,0-.47-1.21c1.41.12,2.85.14,3.36.14s.68,0,.88-.16c.37-.31.61-1.23.84-3.3h-6.65c.37-.92.76-2.21,1.06-3.32h-2.52Z"/><path class="cls-8" d="M308.9,246.39a14.48,14.48,0,0,0,6.57,3.64,6.25,6.25,0,0,0-.92,1.17,15.05,15.05,0,0,1-7.21-4.81H305a16.55,16.55,0,0,1-7.23,4.89,5.18,5.18,0,0,0-.9-1.13,15.53,15.53,0,0,0,6.51-3.77h-4.24V238.3h13.9v8.09Zm-6.55,2.81h1.37v1.21c0,2-.47,4.4-4.4,6a5.77,5.77,0,0,0-.94-1.06c3.62-1.39,4-3.42,4-5Zm-1.82-7.43h4.87v-2.29h-4.87Zm0,3.46h4.87v-2.35h-4.87Zm11.14-5.75h-4.89v2.29h4.89Zm0,3.4h-4.89v2.35h4.89Zm-2.81,6.31h1.39v7.09h-1.39Z"/><path class="cls-8" d="M319.36,250.89a27.2,27.2,0,0,1-1.09,5c-.25-.12-.82-.33-1.11-.43a21.66,21.66,0,0,0,1-4.77Zm4-1c-.06-.31-.14-.72-.25-1.15-4.4.68-5,.82-5.39,1a12.08,12.08,0,0,0-.45-1.27c.41-.08.9-.61,1.47-1.35a27,27,0,0,0,1.78-2.46,10.85,10.85,0,0,0-2.95.51c-.08-.29-.29-.9-.41-1.23.33-.08.7-.51,1.11-1.15a26.32,26.32,0,0,0,2.74-5.2l1.23.53a32.6,32.6,0,0,1-3.19,5.53l2.23-.18a29.57,29.57,0,0,0,1.52-2.72l1.19.7a40.25,40.25,0,0,1-4.61,6.7l3.4-.45c-.23-.72-.47-1.45-.72-2.09l1.06-.29a28.27,28.27,0,0,1,1.35,4.22Zm-2.07.76a39.71,39.71,0,0,1,.55,4.32l-1.11.21a35.06,35.06,0,0,0-.51-4.34Zm1.86-.51a21.39,21.39,0,0,1,1.06,3.48l-1,.35a26.31,26.31,0,0,0-1-3.52Zm12.59,4.42v1.25H324.11v-1.25h5.3v-4.08h-4.16v-1.25H335v1.25h-4.2v4.08Zm-8.68-6.08a21.17,21.17,0,0,0-2.48-4.05,39.62,39.62,0,0,0,2.17-3.77L328,241c-.55,1-1.35,2.36-2,3.42a24,24,0,0,1,2.27,3.58Zm8.5-8.56H324.83v-1.25H335.6Zm-4,1.09c-.57,1-1.39,2.33-2.09,3.38a28.91,28.91,0,0,1,2.38,3.54l-1.13.51a23.49,23.49,0,0,0-2.62-4,31.83,31.83,0,0,0,2.23-3.75Zm2.76,7.47a20.69,20.69,0,0,0-2.76-4.05,37.25,37.25,0,0,0,2.31-3.77l1.23.33c-.59,1-1.45,2.36-2.15,3.42a23.92,23.92,0,0,1,2.5,3.52Z"/><path class="cls-8" d="M337.58,254.6a24.09,24.09,0,0,0,.94-4.5l.78.27a26.87,26.87,0,0,1-.9,4.57Zm7.9-6.7s0,.39,0,.55c-.16,5-.31,6.7-.74,7.25a1.25,1.25,0,0,1-1,.51,10.35,10.35,0,0,1-1.6,0,3,3,0,0,0-.31-1.09c.63.06,1.21.06,1.45.06a.51.51,0,0,0,.49-.21c.27-.37.41-1.84.55-5.92h-5.65v-10.5h6.8v1.17h-2.64v2H345v1.11h-2.21v1.9h2.25v1.11h-2.25v2.07Zm-5,2.48a35.33,35.33,0,0,1,.31,3.69l-.78.1a33.88,33.88,0,0,0-.27-3.69Zm-.72-10.65v2h1.95v-2Zm1.95,3.09h-1.95v1.9h1.95Zm-1.95,5.08h1.95v-2.07h-1.95Zm1.86,2.19a24.7,24.7,0,0,1,.86,3.3l-.74.18a21.9,21.9,0,0,0-.82-3.34Zm1.72,2.52a22.93,22.93,0,0,0-1.21-2.72l.63-.23a16.53,16.53,0,0,1,1.23,2.66Zm5.67-2a9,9,0,0,1-.47,1.66,15.23,15.23,0,0,1,2.35,1.82l-.76.9a14.12,14.12,0,0,0-2-1.7,9.25,9.25,0,0,1-2.13,3,6.23,6.23,0,0,0-.94-.8,9.2,9.2,0,0,0,2.78-5.12Zm-1.19-8.21a19.78,19.78,0,0,1-1.84,1.29,8.89,8.89,0,0,0-.9-.84,14.69,14.69,0,0,0,5.47-5.39l1.27.39c-.12.2-.25.43-.39.63a18,18,0,0,0,5,3.91,4.14,4.14,0,0,0-.61,1.15,21.73,21.73,0,0,1-1.88-1.27v1.06h-6.12ZM346.36,245h4v4.67h-4Zm1,3.69h2V246h-2Zm6.57-6.49a21.86,21.86,0,0,1-3.11-2.83,16.35,16.35,0,0,1-2.76,2.83Zm.27,8.25a11.87,11.87,0,0,1-.61,2.19,18.24,18.24,0,0,1,2.7,2.27l-.82.94a18.14,18.14,0,0,0-2.36-2.15,8.6,8.6,0,0,1-1.9,2.54,7.17,7.17,0,0,0-1-.82,8.4,8.4,0,0,0,2.79-5.18ZM351.38,245h4.12v4.67h-4.12Zm1,3.69h2.11V246h-2.11Z"/><path class="cls-8" d="M360.35,249.81a3.61,3.61,0,0,0,2.58-3.13,1.27,1.27,0,0,1-.39,0,1.33,1.33,0,0,1-1.45-1.39,1.36,1.36,0,0,1,1.47-1.39c1.08,0,1.66.88,1.66,2.27a4.83,4.83,0,0,1-3.44,4.59Z"/><path class="cls-8" d="M372.9,245.63a11.58,11.58,0,0,1-3.67,2.7,4.57,4.57,0,0,0-.8-.88,10.57,10.57,0,0,0,4.07-2.85h-3.09v-3.46h3.48V240h-4.1V239h4.1v-1.35h1.23V239H378V240h-3.91v1.11h3.36v3.46h-3.36v.78l.53-.64a13.6,13.6,0,0,1,2.85,1.74l-.61.82a17,17,0,0,0-2.76-1.82v2.74H372.9Zm5.55,8.93H387v1.17H368.6v-1.17H372v-3.44h1.31v3.44h3.79V250H370v-1.15h15.73V250h-7.27v1.7h6v1.09h-6Zm-7.9-10.87h2.36v-1.6h-2.36Zm3.58-1.6v1.6h2.17v-1.6Zm11.55-1a11,11,0,0,1-2.23,4.16,10.27,10.27,0,0,0,3.71,2.15,5.69,5.69,0,0,0-.78,1.06,11.21,11.21,0,0,1-3.77-2.4,13.31,13.31,0,0,1-4.05,2.33,8.15,8.15,0,0,0-.8-1,11.45,11.45,0,0,0,4.05-2.17,12.73,12.73,0,0,1-1.86-3,10.68,10.68,0,0,1-1.25,1.54,10.12,10.12,0,0,0-.94-.92,11.53,11.53,0,0,0,2.95-5.24l1.23.27a17.35,17.35,0,0,1-.74,2H387v1.15Zm-5.06,0a10.64,10.64,0,0,0,2,3.28,8.58,8.58,0,0,0,1.76-3.32h-3.73Z"/><path class="cls-8" d="M399.82,238.19a6.85,6.85,0,0,1-.66.92,25.14,25.14,0,0,0,8.6,5.73,4.38,4.38,0,0,0-.94,1.19,26.7,26.7,0,0,1-8.44-5.94,23.39,23.39,0,0,1-4.93,4.22h10v1.27H393.15v-1.06a25.5,25.5,0,0,1-3.24,1.68,6.93,6.93,0,0,0-1-1.17,21,21,0,0,0,9.69-7.43Zm-7.7,10h12.55v8h-1.43v-1.11H393.5v1.19h-1.37Zm1.37,1.23v4.4h9.75v-4.4Z"/><path class="cls-8" d="M418,246.65v9.64h-1.27v-2.09c-2.54.35-5.1.66-7,.9l-.14-1.23,2-.21v-7h-1.8v-1.15h17.9v1.15Zm-4.5-2.21h-1.31V238.3H425.4v6.14H424v-5.1H413.52Zm3.24,2.21h-4v1.52h4Zm0,2.56h-4v1.52h4Zm-4,4.34,4-.47v-1.33h-4Zm10.12-12h-8.46v-.94h8.46Zm-8.44,2.17v-.94h8.44v.94Zm12.61,4.63a11.35,11.35,0,0,1-3.05,4.75,11.5,11.5,0,0,0,4.1,1.95,5.89,5.89,0,0,0-.82,1.06,11.68,11.68,0,0,1-4.22-2.19,14.47,14.47,0,0,1-4.26,2.25,4.13,4.13,0,0,0-.74-1.06,12.94,12.94,0,0,0,4.08-2,12,12,0,0,1-2.46-3.83l.2-.06h-1.09V248H426l.25,0Zm-6.14.82a9.72,9.72,0,0,0,2.15,3.13,10.13,10.13,0,0,0,2.33-3.13Z"/><path class="cls-8" d="M156.69,277.75a14.13,14.13,0,0,1-2.33,3,8.93,8.93,0,0,0-.9-1.17,12.25,12.25,0,0,0,3.19-4.79l1.33.35c-.18.47-.39.92-.61,1.39h5.39v1.23Zm2.56,3.42a28.1,28.1,0,0,1-1.41,2.52v9.83h-1.31v-8a20.15,20.15,0,0,1-2.07,2.25,7.59,7.59,0,0,0-.94-1.09,19.06,19.06,0,0,0,4.44-5.92Zm-.9-3.24a12.28,12.28,0,0,1,1.8,2l-1,.84a12.08,12.08,0,0,0-1.76-2.13ZM169,283.2h2.85v1.25H169v7.25c0,.92-.25,1.31-.9,1.54a14.39,14.39,0,0,1-3.71.25,5.76,5.76,0,0,0-.47-1.33c1.5,0,2.85,0,3.24,0s.49-.12.49-.47v-7.25h-8.21V283.2h8.21v-2.27H169Zm-7.17,2.44c.9,1.27,2.07,3,2.62,4l-1.15.7c-.53-1-1.68-2.81-2.56-4.12Zm10.16-9.11v1.23H165a13.75,13.75,0,0,1-1.88,3.07,7,7,0,0,0-1.09-1,12,12,0,0,0,2.54-5.06l1.37.31c-.14.49-.29.94-.45,1.41Zm-4.08,4.26a12.23,12.23,0,0,0-1.95-2.15l.9-.74a11.55,11.55,0,0,1,2,2Z"/><path class="cls-8" d="M184.82,275.42a6.92,6.92,0,0,1-.66.92,25.14,25.14,0,0,0,8.6,5.73,4.38,4.38,0,0,0-.94,1.19,26.7,26.7,0,0,1-8.44-5.94,23.37,23.37,0,0,1-4.93,4.22h10v1.27H178.15v-1.06a25.51,25.51,0,0,1-3.24,1.68,6.9,6.9,0,0,0-1-1.17,21,21,0,0,0,9.69-7.43Zm-7.7,10h12.55v8h-1.43v-1.11H178.5v1.19h-1.37Zm1.37,1.23V291h9.75v-4.4Z"/><path class="cls-8" d="M204.38,279.21v2.87H211v7.23c0,.82-.21,1.25-.84,1.47a13.74,13.74,0,0,1-3.58.25,5.29,5.29,0,0,0-.47-1.35c1.43,0,2.66,0,3.05,0s.45-.12.45-.41V283.4h-5.26v10.1H203V283.4h-5v7.7h-1.37v-9H203v-2.87h-8.35v-1.33h8.85a29.31,29.31,0,0,0-1.41-2.74l1.29-.43a23.62,23.62,0,0,1,1.62,3l-.39.14h8.31v1.33Z"/><path class="cls-8" d="M221.33,286.74c-2.09,1-4.32,2.13-6,2.95l-.53-1.33c.78-.33,1.76-.76,2.83-1.25v-6.53h-2.46v-1.31h2.46V275h1.27v4.26h2.27v1.31h-2.27v5.94l2.15-1Zm3.75-2.31a11.65,11.65,0,0,1-.94,1.52H233a5.42,5.42,0,0,1-.06.57c-.31,4.26-.63,5.86-1.21,6.43a1.48,1.48,0,0,1-1.13.49c-.43,0-1.21,0-2,0a2.84,2.84,0,0,0-.33-1.13c.8.06,1.5.08,1.78.08s.49,0,.63-.21c.37-.37.68-1.7,1-5.08h-1.74a14.09,14.09,0,0,1-4.22,6.49,3.13,3.13,0,0,0-1-.78,12.32,12.32,0,0,0,4.05-5.71h-2.13a15.59,15.59,0,0,1-5,5.61,4.64,4.64,0,0,0-.92-.86,13.32,13.32,0,0,0,4.67-4.75h-2.21a14,14,0,0,1-2.7,2.4,7.6,7.6,0,0,0-.94-.84,12.18,12.18,0,0,0,4.14-4.22h-3v-1.17h12.82v1.17Zm7-2.4h-9.3v-6.55h9.3Zm-1.27-5.51H224v1.74h6.8Zm0,2.72H224V281h6.8Z"/><path class="cls-8" d="M240.94,275.09c-.33,1-.72,2.15-1.08,3h3.46v13.23h-5.73V293h-1.25V278.12h2.27a22.1,22.1,0,0,0,.88-3.32Zm1.13,4.26h-4.48v4.46h4.48Zm0,10.77V285h-4.48v5.08Zm11.28-11.32c-.33,9.4-.61,12.53-1.43,13.52a1.91,1.91,0,0,1-1.56.78,25.65,25.65,0,0,1-3,0,3.22,3.22,0,0,0-.45-1.33c1.33.12,2.56.12,3,.12s.66,0,.86-.31c.68-.72,1-3.87,1.27-12.18h-5.36a18.93,18.93,0,0,1-1.92,3.64,12.4,12.4,0,0,0-1.15-.76,20.28,20.28,0,0,0,3.13-7.47L248,275c-.27,1-.55,2-.9,3h6.2ZM249,288a36.09,36.09,0,0,0-3.17-4.75l1-.61a35.25,35.25,0,0,1,3.28,4.65Z"/><path class="cls-8" d="M265.72,285.82c-.18.55-.39,1.09-.59,1.56h7.76v4.75c0,.66-.12,1-.61,1.19a6.23,6.23,0,0,1-2.31.2,6,6,0,0,0-.45-1.15c.86,0,1.56,0,1.78,0s.29-.06.29-.27v-3.58h-3.36v4.83H267v-4.83h-3.28v4.83h-1.25v-4.83h-3.19v5h-1.31v-6.12h5.9c.16-.49.33-1,.47-1.56h-8v-1.13h17.75v1.13Zm-7.82-3.07h-1.31v-4.34h7.84v-1.62h-6.94v-1.06h15.34v1.06h-7.06v1.62h8v4.34h-1.35v-3.26h-6.66v4.57h-1.33v-4.57h-6.53Zm.47.35c1.27-.14,3-.41,4.85-.68l0,.88c-1.62.33-3.15.64-4.48.88Zm.9-3.17a21.65,21.65,0,0,1,4,1.11l-.41.86a22.13,22.13,0,0,0-4-1.21Zm12.22,4.34a29.78,29.78,0,0,0-4.79-1.11l.37-.84a25.43,25.43,0,0,1,4.75,1Zm0-3.62a22.74,22.74,0,0,1-4.05,1.17l-.49-.7c1.17-.29,2.93-.9,3.93-1.27Z"/><path class="cls-8" d="M293.64,281.48a39.07,39.07,0,0,1-4.34,4.3,14.33,14.33,0,0,0,5.82,4.89,5.46,5.46,0,0,0-1,1.15c-3.4-1.62-6-4.89-7.8-8.81v8.6c0,1-.29,1.43-.92,1.66a12.27,12.27,0,0,1-3.67.29,7.14,7.14,0,0,0-.49-1.45c1.41.06,2.76,0,3.17,0s.51-.12.51-.51v-4.73c-2.7,1.66-5.53,3.34-7.66,4.55l-.86-1.21c2.07-1.08,5.41-2.95,8.52-4.73v-5.82h-8.11v-1.33h8.11v-3.44h1.39v3.44h8.25v1.33h-8.25v.23a23.26,23.26,0,0,0,2.31,4.89,32.86,32.86,0,0,0,3.85-4.14Zm-12.29,4.1a19.31,19.31,0,0,0-3.42-3.91l1-.7a19.27,19.27,0,0,1,3.46,3.79ZM292,278.33a23.22,23.22,0,0,0-3.71-2.46l.82-.84a23.78,23.78,0,0,1,3.75,2.33Z"/><path class="cls-8" d="M298.91,287a3.61,3.61,0,0,0,2.58-3.13,1.26,1.26,0,0,1-.39,0,1.33,1.33,0,0,1-1.45-1.39,1.36,1.36,0,0,1,1.47-1.39c1.09,0,1.66.88,1.66,2.27a4.83,4.83,0,0,1-3.44,4.59Z"/><path class="cls-8" d="M313.18,285.08l-2.27.78v5.92c0,.8-.18,1.15-.66,1.37a6.34,6.34,0,0,1-2.54.25,5.43,5.43,0,0,0-.39-1.25c.9,0,1.72,0,1.95,0s.37-.08.37-.37v-5.49c-.88.31-1.72.55-2.46.8l-.37-1.31,2.83-.86v-4.63h-2.58V279h2.58v-4.14h1.27V279h2.29v1.27H310.9v4.22l2.11-.68Zm6.76,6.76a12.75,12.75,0,0,0,2,.14c.47,0,3.28,0,3.93,0a3.62,3.62,0,0,0-.41,1.23h-3.56c-3,0-5.2-.59-6.51-3.52a9.1,9.1,0,0,1-2.52,3.85,6,6,0,0,0-1-.82c1.86-1.45,2.78-3.77,3.11-6.84l1.27.16a16.66,16.66,0,0,1-.41,2.19,4.83,4.83,0,0,0,2.83,3.3v-6.68h-5v-1.15h11.61v1.15h-5.3v2.52h4.32v1.13h-4.32Zm4.16-9.73h-9.54v-6.57h9.54Zm-1.29-5.51h-7v1.72h7Zm0,2.7h-7v1.76h7Z"/><path class="cls-8" d="M333.53,275.29a32.71,32.71,0,0,1-2.13,4.44v13.74h-1.33V281.81a23.72,23.72,0,0,1-2.17,2.64,6.79,6.79,0,0,0-.78-1.33,23.13,23.13,0,0,0,5.14-8.21Zm4.32,13.41a19.22,19.22,0,0,1-3.89,4.77,5.75,5.75,0,0,0-1.09-.86,14.9,14.9,0,0,0,3.71-4.28Zm8.33-2.93v1.33H333v-1.33h3.21V280.6h-2.7v-1.31h2.7v-4.2h1.33v4.2h4.14v-4.2H343v4.2h3v1.31h-3v5.18Zm-8.68,0h4.14V280.6H337.5Zm4.77,2.6a24.63,24.63,0,0,1,3.67,4.4l-1.15.76a23.72,23.72,0,0,0-3.56-4.55Z"/><path class="cls-8" d="M353.88,282a23.94,23.94,0,0,1-1.78,7.17c2,2.09,4.87,2.56,8.44,2.56.74,0,5.2,0,6.16,0a4.07,4.07,0,0,0-.53,1.27h-5.65c-3.83,0-6.84-.53-9-2.68a10.44,10.44,0,0,1-2.58,3.07,5.47,5.47,0,0,0-1-.94,9.35,9.35,0,0,0,2.7-3.15,12.77,12.77,0,0,1-1.84-3.93l1-.41a11.42,11.42,0,0,0,1.39,3.13,20.78,20.78,0,0,0,1.29-5h-3.32c.88-1.49,2-3.73,3-5.67h-3.69v-1.23h5.65c-.86,1.8-2,4-2.89,5.67h1.64l.25,0Zm5.32-4.24h-4v-1.11h4V275h1.29v1.7h4.42v2.7h1.47v1.13h-1.47v2.74h-4.42v1.66h4.85V286h-4.85v1.78h5.63v1.13h-5.63V291H359.2v-2.15H354v-1.13h5.18V286h-4.32V284.9h4.32v-1.66H355v-1.11h4.18V280.5h-5.39v-1.13h5.39Zm1.29,0v1.6h3.19v-1.6Zm3.19,2.72h-3.19v1.64h3.19Z"/><path class="cls-8" d="M386.93,287.25v1.17h-8.5v5.08h-1.35v-5.08H368.7v-1.17h8.37v-1.76h1.35v1.76Zm-1.84-1a48.44,48.44,0,0,0-6.8-1.84,28.38,28.38,0,0,1-8.85,1.64,3.54,3.54,0,0,0-.51-1.17A32.44,32.44,0,0,0,376,284c-1.41-.29-2.91-.51-4.44-.76.66-.59,1.39-1.31,2.11-2.07h-4.73V280h5.73a19.64,19.64,0,0,0,1.62-2.13l1.35.41c-.39.55-.88,1.15-1.37,1.72h5.28a11.76,11.76,0,0,0,.61-1.43l1.31.33A8.85,8.85,0,0,1,383,280h3.71v1.13h-4.32a8,8,0,0,1-2.6,2.5c2.56.57,4.85,1.17,6.59,1.74Zm-9.79,3.11a16.7,16.7,0,0,1-5.18,3.48,6.11,6.11,0,0,0-1.08-.94,13.83,13.83,0,0,0,4.93-3Zm-4.75-10.05h-1.27v-2.91h8c-.25-.43-.53-.88-.78-1.25l1.31-.35a13.73,13.73,0,0,1,1.09,1.6h7.54v2.91H385.1v-1.74H370.54Zm4.69,1.8c-.49.49-1,1-1.41,1.41,1.39.2,2.79.45,4.12.72a8.1,8.1,0,0,0,2.87-2.13Zm5.82,7.64a28,28,0,0,1,5.45,3.15l-1,1a26.55,26.55,0,0,0-5.39-3.3Z"/><path class="cls-8" d="M393.37,282.85a11.59,11.59,0,0,1-3.67,2.7,4.56,4.56,0,0,0-.8-.88,10.57,10.57,0,0,0,4.07-2.85h-3.09v-3.46h3.48v-1.11h-4.1V276.2h4.1v-1.35h1.23v1.35h3.91v1.06H394.6v1.11H398v3.46H394.6v.78l.53-.63a13.57,13.57,0,0,1,2.85,1.74l-.61.82a17,17,0,0,0-2.76-1.82v2.74h-1.23Zm5.55,8.93h8.6v1.17H389.07v-1.17h3.42v-3.44h1.31v3.44h3.79v-4.59h-7.13V286h15.73v1.15h-7.27v1.7h6V290h-6ZM391,280.91h2.36v-1.6H391Zm3.58-1.6v1.6h2.17v-1.6Zm11.55-1a11,11,0,0,1-2.23,4.16,10.28,10.28,0,0,0,3.71,2.15,5.69,5.69,0,0,0-.78,1.06,11.21,11.21,0,0,1-3.77-2.4,13.31,13.31,0,0,1-4.05,2.33,8.16,8.16,0,0,0-.8-1,11.45,11.45,0,0,0,4.05-2.17,12.7,12.7,0,0,1-1.86-3,10.68,10.68,0,0,1-1.25,1.54,10,10,0,0,0-.94-.92,11.53,11.53,0,0,0,2.95-5.24l1.23.27a17.35,17.35,0,0,1-.74,2h5.77v1.15Zm-5.06,0a10.63,10.63,0,0,0,2,3.28,8.57,8.57,0,0,0,1.76-3.32h-3.73Z"/><path class="cls-8" d="M416.47,281.23h.88v2.87h-.94V292c0,.61-.12.92-.57,1.13a6.68,6.68,0,0,1-2.29.21,3.72,3.72,0,0,0-.39-1.06c.84,0,1.58,0,1.78,0s.31-.08.31-.29V289.2c-1,.61-2,1.23-2.89,1.74l-.55-1c.9-.39,2.15-1,3.44-1.72v-3.56h-3.38v2.85c0,1.84-.21,4.3-1.43,6.06a3.46,3.46,0,0,0-1-.74,9.36,9.36,0,0,0,1.23-5.32V284.1h-1v-2.87h.84V275.6h5.94Zm-.23,1h-5.49v1.43h5.49Zm-4.59-1H413v-3.17h2.27v-1.39h-3.65Zm2.62,6.76a16.72,16.72,0,0,0-2.23-1.82l.68-.66a15.22,15.22,0,0,1,2.27,1.72Zm1-6.76V279h-1.41v2.27ZM428,292v1.09H417.47V292h3a16.91,16.91,0,0,0-.74-2l1.06-.31c.31.72.7,1.64.9,2.31h2a20.43,20.43,0,0,0,.92-2.4l1.25.37c-.35.68-.72,1.41-1,2Zm-.16-7.25H417.72v-1.06h10.16Zm-.55-2.17h-9.13v-6.12h2.54v-1.58h1.13v1.58h1.6v-1.58h1.13v1.58h2.74Zm-8.58,7V285.8h8.09v3.75Zm.53-10.55h1.64v-1.54h-1.64Zm0,2.58h1.64V280h-1.64Zm.68,7h5.61v-1.84H420Zm3.54-9.58v-1.54h-1.62V279Zm-1.62,1v1.62h1.62V280Zm4.34-2.5h-1.76V279h1.76Zm0,2.5h-1.76v1.62h1.76Z"/><path class="cls-8" d="M160.56,327.94c-.49-.8-1.8-2.56-2.74-3.75a10.8,10.8,0,0,1-3.44,6.29,4.62,4.62,0,0,0-.94-1c2.56-2.07,3.28-5.24,3.46-8h-3.36v-1.27H157c0-.45,0-.9,0-1.31v-2.15h-3v-1.23h3v-3.24h1.29v3.24h2.89v1.23h-2.89v2.15c0,.41,0,.86,0,1.31h3.34v1.27h-3.4c0,.41-.06.84-.12,1.27.82.88,3,3.52,3.44,4.16Zm10,1.23c.41,0,.49-.2.55-1.68a4.07,4.07,0,0,0,1.13.49c-.12,1.9-.49,2.4-1.54,2.4h-1.78c-1.31,0-1.64-.37-1.64-1.7v-4.53h-1.58c-.41,3.11-1.47,5.32-4.91,6.55a3.1,3.1,0,0,0-.78-1c3.13-1,4.05-2.95,4.38-5.55h-2V312.89H171v11.26h-2.48v4.53c0,.41.06.49.51.49Zm-6.92-12.88h6.1v-2.15h-6.1Zm0,3.32h6.1v-2.17h-6.1Zm0,3.32h6.1v-2.19h-6.1Z"/><path class="cls-8" d="M173.93,329.1c2.85-.12,7.41-.35,11.79-.57l0,1.06c-4.24.25-8.72.49-11.63.63Zm10.5-13.68h1.33v1h-1.33v2.07h-4.05v1h4.38v.9h-4.38v1h5.24v1H174.09v-1h5.06v-1h-4.07v-.9h4.07v-1h-3.93v-.9h3.93v-1.17H174v-1h5.18v-1.09H175.3v-.88h3.85v-1.37h1.23v1.37h4.05Zm0,7.82v4.48h-9.05v-4.48Zm-7.92,1.82h2.81v-1h-2.81Zm0,1.84h2.81v-1h-2.81Zm3.89-11.49h2.87v-1.09h-2.87Zm2.87,1h-2.87v1.17h2.87Zm0,7.66h-2.79v1h2.79Zm0,1.82h-2.79v1h2.79Zm4.57-.12h-1.25V314.52h1.25Zm3.91-13.27V329c0,.88-.25,1.29-.8,1.52a10,10,0,0,1-3.13.25,4.26,4.26,0,0,0-.43-1.31c1.23,0,2.29,0,2.58,0s.49-.12.49-.45v-16.5Z"/><path class="cls-8" d="M202.12,317q-.09,1.69-.31,3.38h8.7s0,.47,0,.68c-.43,5.82-.82,8-1.64,8.81a2.2,2.2,0,0,1-1.66.66c-.7,0-2,0-3.4-.08a3.26,3.26,0,0,0-.47-1.33c1.45.14,2.89.16,3.42.16a1.35,1.35,0,0,0,1-.25c.59-.53,1-2.54,1.35-7.33h-7.43c-.66,3.65-2.19,7.06-6.08,9.09a4,4,0,0,0-1-1.06c5.3-2.62,5.84-8,6.08-12.72H195v-1.33h17.53V317Zm1.92-1.37a25.4,25.4,0,0,0-1.43-3.13l1.31-.51a22.37,22.37,0,0,1,1.45,3.05Z"/><path class="cls-8" d="M232.45,328.84c0,.94-.23,1.41-.9,1.66a17.23,17.23,0,0,1-3.83.23,5.21,5.21,0,0,0-.51-1.39c1.54.06,2.95,0,3.38,0s.51-.12.51-.51v-11.9H217.44v13.78h-1.35V315.61h5.63A33.68,33.68,0,0,0,223,312l1.66.29c-.47,1.08-1,2.31-1.52,3.3h9.26Zm-11-2.38v1.47h-1.25v-8.17h8v6.7Zm0-5.47v4.24h5.45V321Z"/><path class="cls-8" d="M237.5,324.25a3.61,3.61,0,0,0,2.58-3.13,1.27,1.27,0,0,1-.39,0,1.33,1.33,0,0,1-1.45-1.39,1.36,1.36,0,0,1,1.47-1.39c1.09,0,1.66.88,1.66,2.27a4.83,4.83,0,0,1-3.44,4.59Z"/><path class="cls-8" d="M264,328.45v1.37H245.9v-1.37h6.16V317.55h-5.61v-1.31h11.9l-1-.37a24.48,24.48,0,0,0,2.11-3.79l1.43.45a34.2,34.2,0,0,1-2.31,3.71h4.87v1.31h-5.77v10.89Zm-15.4-8.83a22.8,22.8,0,0,1,2.11,6.49l-1.31.33a22.37,22.37,0,0,0-2-6.49Zm2.58-3.42a14.92,14.92,0,0,0-2-3.62l1.19-.47a14.15,14.15,0,0,1,2.09,3.52Zm2.19,12.25h3V317.55h-3Zm5.43-2.35a44.87,44.87,0,0,0,2.31-6.68l1.41.37a66.83,66.83,0,0,1-2.52,6.7Z"/><path class="cls-8" d="M273.7,319.68s0,.47,0,.63c-.25,6.49-.49,8.68-1.06,9.42a1.52,1.52,0,0,1-1.15.59,13.36,13.36,0,0,1-1.82,0,3.78,3.78,0,0,0-.35-1.25c.72.06,1.31.06,1.6.06a.58.58,0,0,0,.59-.27c.41-.49.66-2.46.88-7.92h-2.78c-.23,4.1-.8,7.47-2.64,9.69a3.92,3.92,0,0,0-1-1c2.23-2.64,2.42-7.31,2.5-12.92h-2.13v-1.27h8.23v1.27h-4.77c0,1,0,2-.08,2.93Zm-3.24-4.28a13.7,13.7,0,0,0-1.74-2.93l1.19-.47a13.09,13.09,0,0,1,1.8,2.87Zm9.77-3.05a6.25,6.25,0,0,1-.35,1,14,14,0,0,0,5.1,5.71,5.32,5.32,0,0,0-1,1.13,15.41,15.41,0,0,1-4.67-5.45,13.36,13.36,0,0,1-4.48,5.57,5.26,5.26,0,0,0-1-1.09A12.5,12.5,0,0,0,279,312Zm-3.4,13.29A30.32,30.32,0,0,1,282.4,329l-.92,1.19a29.23,29.23,0,0,0-5.49-3.54Zm3.89-2a27.12,27.12,0,0,0-3.52-2.81l.88-.9a27.65,27.65,0,0,1,3.58,2.68Z"/><path class="cls-8" d="M286.58,328.18c4.79-4.18,6.92-7.21,6.92-9.81,0-1.76-.92-3.09-2.85-3.09a4.38,4.38,0,0,0-3.19,1.78l-1-.94a5.69,5.69,0,0,1,4.36-2.19,4,4,0,0,1,4.3,4.38c0,3-2.38,6.12-6,9.56.8-.08,1.7-.12,2.46-.12h4.3v1.43h-9.28Z"/><path class="cls-8" d="M297.92,321.63c0-5.2,1.78-7.7,4.61-7.7s4.57,2.52,4.57,7.7-1.76,7.82-4.57,7.82S297.92,326.87,297.92,321.63Zm7.56,0c0-4.38-1.19-6.35-2.95-6.35s-3,2-3,6.35,1.21,6.47,3,6.47S305.48,326.09,305.48,321.63Z"/><path class="cls-8" d="M309.16,321.63c0-5.2,1.78-7.7,4.61-7.7s4.57,2.52,4.57,7.7-1.76,7.82-4.57,7.82S309.16,326.87,309.16,321.63Zm7.56,0c0-4.38-1.19-6.35-2.95-6.35s-3,2-3,6.35,1.21,6.47,3,6.47S316.72,326.09,316.72,321.63Z"/><path class="cls-8" d="M328.51,316.47a3.24,3.24,0,0,0-2.42-1.15c-2.11,0-3.89,1.62-4,6.41a4.75,4.75,0,0,1,3.46-1.82c2.54,0,4.14,1.58,4.14,4.71,0,2.87-1.95,4.83-4.22,4.83-2.89,0-5-2.5-5-7.39,0-5.92,2.62-8.13,5.49-8.13a4.57,4.57,0,0,1,3.42,1.49Zm-.39,8.15c0-2.09-.88-3.46-2.81-3.46a4.05,4.05,0,0,0-3.15,2c.2,3.17,1.35,5,3.34,5C327,328.12,328.12,326.69,328.12,324.62Z"/><path class="cls-8" d="M333.85,319.75v11h-1.33V313h7.35v6.78Zm0-5.71v1.76h4.73V314Zm4.73,4.65V316.8h-4.73v1.88Zm4.91,7v4.63h-1.21V325.7h-3.05a6.61,6.61,0,0,1-2.81,4.89,5.06,5.06,0,0,0-.9-.82,5.25,5.25,0,0,0,2.5-4.07h-2.66v-1.15h2.68v-2.33h-2.27v-1.15h10.14v1.15H343.5v2.33h2.87v1.15Zm-1.21-1.15v-2.33h-3v2.33Zm7,4.34c0,.86-.2,1.31-.78,1.56a10.65,10.65,0,0,1-3.15.25,4.42,4.42,0,0,0-.43-1.37c1.17,0,2.27,0,2.58,0s.45-.12.45-.45v-9.13h-6.2V313h7.54ZM343.07,314v1.76H348V314ZM348,318.7v-1.9h-4.89v1.9Z"/><path class="cls-8" d="M358.75,317.68a18,18,0,0,1-1.47,7.74,27.2,27.2,0,0,1,2.42,2.31l-.84,1.09a22.38,22.38,0,0,0-2.21-2.23,14.2,14.2,0,0,1-3.91,4.14,3.85,3.85,0,0,0-.92-.9,13.05,13.05,0,0,0,3.85-4.1c-1-.88-2.13-1.76-3.13-2.5A51.33,51.33,0,0,0,354,318l-1.9.12-.14-1.27,2.31-.1c.33-1.58.61-3.19.78-4.57l1.25.1c-.18,1.37-.47,2.89-.76,4.42l2-.1V315h1.23v1.52l1-.06,0,1.17Zm-3.54.25c-.37,1.76-.82,3.48-1.23,4.87.74.55,1.54,1.17,2.29,1.78a16.7,16.7,0,0,0,1.25-6.8Zm12.14-2.87a26.72,26.72,0,0,1,3.48,5.71l-1.17.57c-.16-.41-.39-.92-.66-1.43-7.64.55-8.5.63-9.05.86a9.08,9.08,0,0,0-.45-1.31c.39-.08.78-.57,1.31-1.33a34.21,34.21,0,0,0,3.34-6.08l1.39.43a41.9,41.9,0,0,1-3.91,6.66l6.72-.41a32.19,32.19,0,0,0-2.07-3.15Zm-6.74,7.45h8.93v8.17h-1.31v-.84h-6.35v.9h-1.27Zm1.27,1.23v4.87h6.35v-4.87Z"/><path class="cls-8" d="M374.56,325.32a33.45,33.45,0,0,1-1.06,5.1c-.27-.1-.8-.31-1.13-.39a24.32,24.32,0,0,0,1-4.91Zm4.16-5.55a25,25,0,0,1,1.37,4.22l-1.11.37c-.06-.35-.16-.76-.29-1.23-4.71.7-5.34.84-5.71,1-.08-.27-.27-.9-.43-1.27.41-.08.9-.59,1.49-1.33a22.28,22.28,0,0,0,1.88-2.48,12.21,12.21,0,0,0-3.09.53c-.08-.29-.27-.9-.41-1.25.33-.08.7-.53,1.15-1.13a28.57,28.57,0,0,0,2.85-5.22l1.27.53a32.77,32.77,0,0,1-3.38,5.57l2.42-.21c.53-.86,1.07-1.78,1.54-2.68l1.17.7a40.21,40.21,0,0,1-4.71,6.61l3.67-.49c-.23-.68-.47-1.39-.72-2Zm-2,5.28a46.2,46.2,0,0,1,.59,4.63l-1.11.23a46.18,46.18,0,0,0-.55-4.65Zm2-.47a26.49,26.49,0,0,1,1.21,4l-1,.37a28.8,28.8,0,0,0-1.17-4Zm7.35-8.46v3.38h4.28v1.27h-9.58V319.5h3.93v-3.38h-4.55v-1.27h4.55v-2.79h1.37v2.79h4.85v1.27ZM381.17,323h8.6v7.66h-1.31v-.78h-6v.86h-1.29Zm1.29,1.25v4.38h6v-4.38Z"/><path class="cls-8" d="M403.84,312.64a6.86,6.86,0,0,1-.66.92,25.14,25.14,0,0,0,8.6,5.73,4.38,4.38,0,0,0-.94,1.19,26.69,26.69,0,0,1-8.44-5.94,23.39,23.39,0,0,1-4.93,4.22h10V320H397.16V319a25.49,25.49,0,0,1-3.24,1.68,6.94,6.94,0,0,0-1-1.17,21,21,0,0,0,9.69-7.43Zm-7.7,10h12.55v8h-1.43v-1.11h-9.75v1.19h-1.37Zm1.37,1.23v4.4h9.75v-4.4Z"/><path class="cls-8" d="M413.66,326.67h18.16v.9H421.18a24.62,24.62,0,0,1-3.28,1.9l9.19-.39c-.59-.33-1.19-.61-1.76-.86l.92-.61a22.32,22.32,0,0,1,4.85,2.78l-.94.7a11.58,11.58,0,0,0-1.6-1.15c-11.43.55-12.51.61-13.21.84a8.18,8.18,0,0,0-.41-1.09,4.19,4.19,0,0,0,1.41-.47,20.44,20.44,0,0,0,2.89-1.66h-5.59Zm3.71-7.84c-.33,1.17-1.15,1.8-3,2.19a1.79,1.79,0,0,0-.57-.72c1.56-.29,2.29-.68,2.58-1.47h-2.31V318h3.79v-.88H415v-.84h2.81v-.68H419v.68h2.76v.84H419V318h3.69v.86H420v.45c0,.43,0,.53.31.53h1.27a4,4,0,0,0,.86-.06c0,.25.06.55.08.78a3.94,3.94,0,0,1-.92.08h-1.45c-.9,0-1.09-.39-1.09-1.35v-.43Zm1.31-4.3h-4.81v-1h4.81v-1.41H420v1.41h2.48v1H420v1h-1.31Zm11.86,8.42a.9.9,0,0,0,.39-.06.7.7,0,0,0,.21-.43c0-.27.06-.84.08-1.6a2.57,2.57,0,0,0,.84.45,9.18,9.18,0,0,1-.18,1.86.9.9,0,0,1-.45.59,1.7,1.7,0,0,1-.8.16h-.82a1.34,1.34,0,0,1-.94-.31c-.27-.2-.33-.49-.33-1.56v-3.87h-1.82a8.07,8.07,0,0,1-.33,2.13,9.45,9.45,0,0,1,1.64,1.25l-.72.86a11.84,11.84,0,0,0-1.33-1.09,7.3,7.3,0,0,1-2.87,3,4.51,4.51,0,0,0-.78-.72c-3,.25-6.08.47-8.27.61l-.08-.94,3.87-.23v-1h-3v-.84h3v-1H419v1h3.07V322H419v1l3.67-.25,0,.55a6.37,6.37,0,0,0,2.33-2.6c-.66-.37-1.31-.74-1.95-1l.68-.78c.51.23,1.08.51,1.64.8a6.78,6.78,0,0,0,.23-1.52h-2.37v-1h2.4v-1.41h1.11v1.41h2.93v5c0,.39,0,.64.1.7a.37.37,0,0,0,.29.08Zm-1.15,1.72v.9H416.24v-.9Zm-3.91-10.14h-2.33v-1h2.33v-1.41h1.33v1.41h4.89v1h-4.89v1h-1.33Z"/><path class="cls-8" d="M168.75,354.26a21.24,21.24,0,0,1-4.91,8,20.44,20.44,0,0,0,8.4,4.3,6.89,6.89,0,0,0-.92,1.23,20.86,20.86,0,0,1-8.5-4.55,23.75,23.75,0,0,1-8.58,4.63,6.35,6.35,0,0,0-.84-1.25,22.38,22.38,0,0,0,8.44-4.34,23.36,23.36,0,0,1-5-8h-3.17v-1.33H172v1.33Zm-10.55,0a21.34,21.34,0,0,0,4.63,7.08,19.44,19.44,0,0,0,4.38-7.08Zm4.61-1.45a15.61,15.61,0,0,0-1.56-3.19l1.39-.41a16,16,0,0,1,1.64,3.13Z"/><path class="cls-8" d="M177.72,358.32c-.84-.57-2.5-1.54-3.75-2.21l.74-1c1.21.61,2.91,1.52,3.79,2.09Zm-3.24,8.44a62.13,62.13,0,0,0,3.87-6.59l1,.9c-1.09,2.15-2.54,4.73-3.75,6.61Zm4.3-14a44.19,44.19,0,0,0-3.83-2.25l.76-1a35.76,35.76,0,0,1,3.85,2.13Zm8,3.81v3.52h4.3v7.72h-1.31v-.76h-7.49v.88h-1.25V360.1h4.44v-3.52h-6v-1.31h6v-3.48c-1.54.23-3.11.43-4.59.57a7,7,0,0,0-.37-1.17,54.15,54.15,0,0,0,10-1.8l1.11,1.06a36.6,36.6,0,0,1-4.81,1.13v3.69h5.69v1.31Zm3,4.77h-7.49v4.46h7.49Z"/><path class="cls-8" d="M212.61,354.8c-.25,8.62-.43,11.45-1.13,12.31a1.56,1.56,0,0,1-1.33.72,16.56,16.56,0,0,1-2.48,0,3.39,3.39,0,0,0-.41-1.29c1,.08,2,.1,2.35.1a.75.75,0,0,0,.72-.31c.49-.61.76-3.36,1-11h-3.11c-.25,5.45-1.17,10-4.83,12.7a3.84,3.84,0,0,0-1-1,9.37,9.37,0,0,0,1.09-.9c-3.17.39-6.43.76-8.76,1l-.18-1.21c1.23-.12,2.79-.27,4.48-.45v-1.86H195v-1.06h3.93v-1.33h-3.87v-6.06h3.87v-1.37h-4.5v-1.06h4.5v-1.47c-1.33.12-2.68.2-3.91.25a4.31,4.31,0,0,0-.35-1,63.84,63.84,0,0,0,8.85-1l.7,1a38.57,38.57,0,0,1-4,.61v1.6h4.42v1.06H200.2v1.37h4v6.06h-4v1.33h4.05v1.06H200.2v1.74c1.35-.14,2.76-.29,4.16-.45v.12c1.82-2.48,2.38-5.86,2.56-9.75h-2.48v-1.27H207c0-1.45,0-3,0-4.55h1.29c0,1.56,0,3.09-.06,4.55h4.38Zm-16.4,3h2.74v-1.56h-2.74Zm2.74,2.56v-1.6h-2.74v1.6Zm1.25-4.12v1.56H203v-1.56Zm2.85,2.52H200.2v1.6H203Z"/><path class="cls-8" d="M217,361.47a3.61,3.61,0,0,0,2.58-3.13,1.26,1.26,0,0,1-.39,0,1.33,1.33,0,0,1-1.45-1.39,1.36,1.36,0,0,1,1.47-1.39c1.09,0,1.66.88,1.66,2.27a4.83,4.83,0,0,1-3.44,4.59Z"/><path class="cls-8" d="M235.39,359.44s0,.45,0,.63c-.37,4.63-.72,6.43-1.39,7.11a2,2,0,0,1-1.56.61,30.8,30.8,0,0,1-3.24-.06,2.72,2.72,0,0,0-.49-1.37c1.37.12,2.74.12,3.24.12s.68,0,.88-.21c.51-.41.82-1.95,1.13-5.57h-7.78c.39-1.56.84-4,1.11-5.84H234v-3.44h-7.52v-1.29h8.85v6h-6.86c-.2,1.13-.41,2.29-.63,3.3Zm6.27-10V368h-1.35V349.49Z"/><path class="cls-8" d="M253.29,356.11a28.84,28.84,0,0,0-3.32-4.2,21.87,21.87,0,0,1-3.71,5.2,6,6,0,0,0-.8-1.23,19,19,0,0,0,4.48-6.74l1,.61c-.14.35-.29.7-.45,1a28.29,28.29,0,0,1,3.56,4.24Zm.47,3.22a25.75,25.75,0,0,1-3.21,5.75,17.61,17.61,0,0,1,1.52,1.76l-.9.88a26.18,26.18,0,0,0-4.16-4.3l.84-.8c.55.45,1.19,1,1.78,1.56a20.53,20.53,0,0,0,2.5-4.16h-5.77v-1.21h6.35l.23-.06Zm-6.12-2.52V355.6h4.83v1.21Zm10.57,8.46a13.29,13.29,0,0,1-4,2.74,7.59,7.59,0,0,0-.9-.92,10,10,0,0,0,3.71-2.54ZM258,353.53c.16-.63.33-1.39.45-2h-4.28v-1.21h10v1.21h-4.22c-.18.7-.39,1.43-.59,2h4.24v10.61h-8.64V353.53Zm4.28,1.09h-6.14v2.09h6.14Zm0,3.13h-6.14v2.13h6.14Zm0,3.15h-6.14V363h6.14Zm-1.19,3.75a24.65,24.65,0,0,1,3.32,2.58l-1.06.76a21.06,21.06,0,0,0-3.28-2.62Z"/><path class="cls-8" d="M270.53,357.29a11.59,11.59,0,0,1-3.67,2.7,4.59,4.59,0,0,0-.8-.88,10.57,10.57,0,0,0,4.08-2.85H267v-3.46h3.48V351.7h-4.1v-1.06h4.1v-1.35h1.23v1.35h3.91v1.06h-3.91v1.11h3.36v3.46h-3.36V357l.53-.63a13.59,13.59,0,0,1,2.85,1.74l-.61.82a17,17,0,0,0-2.76-1.82v2.74h-1.23Zm5.55,8.93h8.6v1.17H266.23v-1.17h3.42v-3.44H271v3.44h3.79v-4.59h-7.13v-1.15h15.73v1.15h-7.27v1.7h6v1.09h-6Zm-7.9-10.87h2.36v-1.6h-2.36Zm3.58-1.6v1.6h2.17v-1.6Zm11.55-1a11,11,0,0,1-2.23,4.16,10.28,10.28,0,0,0,3.71,2.15,5.69,5.69,0,0,0-.78,1.06,11.21,11.21,0,0,1-3.77-2.4,13.31,13.31,0,0,1-4.05,2.33,8.16,8.16,0,0,0-.8-1,11.45,11.45,0,0,0,4.05-2.17,12.73,12.73,0,0,1-1.86-3,10.67,10.67,0,0,1-1.25,1.54,10,10,0,0,0-.94-.92,11.53,11.53,0,0,0,2.95-5.24l1.23.27a17.28,17.28,0,0,1-.74,2h5.77v1.15Zm-5.06,0a10.65,10.65,0,0,0,2,3.28,8.58,8.58,0,0,0,1.76-3.32h-3.73Z"/><path class="cls-8" d="M291.9,349.74a33.87,33.87,0,0,1-1.66,4V368h-1.31V356.11a23.3,23.3,0,0,1-2.09,2.89,7.47,7.47,0,0,0-.76-1.35,23.24,23.24,0,0,0,4.55-8.23Zm12.61.84v17.18h-1.29v-1H294v1.21h-1.27V350.58Zm-1.29,14.93V351.77H294v13.74Zm-4-9.6v2.33h2.42v5.45h-5.86v-5.45h2.31V355.9h-3.21v-1.09h3.21v-2.33h1.13v2.33h3.3v1.09Zm1.33,3.38h-3.71v3.38h3.71Z"/><path class="cls-8" d="M316.41,360.63a12.93,12.93,0,0,1-.33,1.68h7.29a4.4,4.4,0,0,1-.06.55c-.29,2.95-.61,4.16-1.13,4.65a1.82,1.82,0,0,1-1.31.45,18.67,18.67,0,0,1-2.56,0,2.78,2.78,0,0,0-.37-1.17c1,.1,2,.12,2.42.12a1,1,0,0,0,.74-.18c.35-.31.57-1.19.82-3.28h-6.16c-.8,2.11-2.35,3.64-5.47,4.59a3.41,3.41,0,0,0-.76-1c4-1.11,5.14-3.3,5.55-6.33h-4.61A15.36,15.36,0,0,1,308,368a5.29,5.29,0,0,0-1-.92c2.09-2.89,2.29-6.92,2.29-10v-6.35a96.22,96.22,0,0,0,13-1.5l1.08,1a94.3,94.3,0,0,1-12.78,1.49v1.21H324v4.4H310.64c0,.63,0,1.33-.08,2h6.74a11.54,11.54,0,0,0-1-1.6l1.25-.37a9.85,9.85,0,0,1,1.25,2h6.7v1.13Zm-5.77-6.47v2.17h12v-2.17Z"/><path class="cls-8" d="M333.88,360.51l.27,1.21c-2.15,1-4.42,2-6.23,2.79l-.51-1.35c.78-.31,1.78-.7,2.87-1.15v-6.49h-2.52v-1.29h2.52v-4.69h1.27v4.69h2.27v1.29h-2.27v6Zm9.58,5.73c1.21,0,1.41-.55,1.56-3a3.13,3.13,0,0,0,1.23.53c-.23,2.78-.66,3.67-2.74,3.67h-5.16c-2.27,0-2.91-.51-2.91-2.62V358.2l-1.72.74-.53-1.19,2.25-.94v-5.63h1.29v5.08l2.95-1.25v-5.71H341v5.18l3.28-1.39,1,.35-.08.25a72.52,72.52,0,0,1-1.11,9l-1.11-.33a70.91,70.91,0,0,0,.82-7.66L341,355.86v7.58h-1.29v-7l-2.95,1.25v7.23c0,1.11.27,1.37,1.64,1.37Z"/><path class="cls-8" d="M351,357.46v3.3c0,2.27-.33,5.32-2.17,7.39a3.89,3.89,0,0,0-1-.88c1.68-1.88,1.88-4.5,1.88-6.53v-4.42h2.54a4.64,4.64,0,0,0-.7-.72c1.66-.33,3.54-.76,5.34-1.27-1.6-.49-3.24-.9-4.71-1.25l.86-.72H349.8v-1.15h7.64a18.56,18.56,0,0,0-1.17-1.58l1-.51a14.72,14.72,0,0,1,1.58,2.09h6.84v1.15h-3.11l.76.47a25.42,25.42,0,0,1-3.24,1.41c1.56.49,3,.94,4.05,1.35l-.74.72h2.93v1.15Zm15.64,8.64v1.17H351.42V366.1h6.8v-2.23h-4.85v-1.13h4.85v-2H353.8a13.81,13.81,0,0,1-1.93,2.52,6.1,6.1,0,0,0-.76-1.09,11.75,11.75,0,0,0,2.74-4.36l1.19.33c-.18.51-.41,1-.63,1.47h3.81v-1.82h1.33v1.82h5.61v1.13h-5.61v2h5.18v1.13h-5.18v2.23ZM363,356.31c-1.21-.47-2.79-1-4.48-1.52-1.86.61-3.87,1.11-5.63,1.52Zm-9.75-4c1.66.41,3.52.9,5.34,1.45a25.57,25.57,0,0,0,3.48-1.45Z"/><path class="cls-8" d="M375.38,349.92a28.51,28.51,0,0,1-2.25,4.2V367.9h-1.37V356.07a22.53,22.53,0,0,1-2.87,3.13,8.82,8.82,0,0,0-.8-1.29,23.14,23.14,0,0,0,6-8.4Zm5.37,6.88c.74,5.55,2.13,9.36,4.42,9.54.57,0,.94-1.19,1.17-3.58a4.43,4.43,0,0,0,1.13.7c-.43,3.44-1.19,4.53-2.25,4.48-3.38-.25-5-4.57-5.77-11l-5.08.66-.21-1.29,5.12-.63c-.18-1.88-.33-3.93-.43-6.08h1.37c.06,2.09.2,4.1.39,5.92l6.21-.76L387,356Zm4.81-3a22.08,22.08,0,0,0-3.4-3.38l1-.63a23.43,23.43,0,0,1,3.46,3.26Z"/><path class="cls-8" d="M396.4,365.61c-2.54.55-5.22,1.17-7.17,1.6l-.35-1.23c.92-.16,2.11-.37,3.42-.63v-6.12h-3.19V358h3.19v-2.35h-2v-.82c-.31.29-.59.57-.9.84a8.91,8.91,0,0,0-.7-1.29,14.65,14.65,0,0,0,4-5.08l1.21.41c-.12.25-.25.49-.39.76,1.21,1,2.62,2.27,3.38,3.05l-.78,1c-.72-.78-2-2-3.19-3.05a17.3,17.3,0,0,1-2.23,3h4.83v1.19h-2V358h2.68v1.21h-2.68v5.88l2.83-.55Zm-6.08-5.26a33.26,33.26,0,0,1,.88,3.81l-1,.27a30.9,30.9,0,0,0-.82-3.83Zm3.89,3.56a29.08,29.08,0,0,0,1-3.81l1.11.35c-.39,1.25-.86,2.79-1.27,3.75Zm12.45,2.25c0,.8-.16,1.21-.74,1.43a10.52,10.52,0,0,1-3.11.23,4.55,4.55,0,0,0-.43-1.29c1.21,0,2.27,0,2.58,0s.41-.1.41-.41v-3.77c-2.13.57-4.3,1.09-6,1.5l-.47-1.19c1.66-.35,4.1-.88,6.49-1.45v-4.87h-6.55v4.3c0,2.25-.18,5.28-1.41,7.37a5.21,5.21,0,0,0-1-.84c1.09-1.9,1.19-4.51,1.19-6.55v-5.51h3.87v-5.82h1.31v5.82h3.93Zm-7.56-11.82a15,15,0,0,0-2-3.85l1.11-.51a14.4,14.4,0,0,1,2.11,3.77Zm.68,3.52a21.29,21.29,0,0,1,4.89,1.49l-.53,1a23.11,23.11,0,0,0-4.89-1.66Zm7.52-7.47a31.31,31.31,0,0,1-2.33,3.85l-1.11-.49a24.73,24.73,0,0,0,2.17-3.87Z"/><path class="cls-8" d="M421.53,358.05a14.48,14.48,0,0,0,6.57,3.64,6.28,6.28,0,0,0-.92,1.17,15.06,15.06,0,0,1-7.21-4.81h-2.31a16.54,16.54,0,0,1-7.23,4.89,5.19,5.19,0,0,0-.9-1.13,15.53,15.53,0,0,0,6.51-3.77H411.8V350h13.9v8.09ZM415,360.86h1.37v1.21c0,2-.47,4.4-4.4,6A5.75,5.75,0,0,0,411,367c3.63-1.39,4-3.42,4-5Zm-1.82-7.43H418v-2.29h-4.87Zm0,3.46H418v-2.35h-4.87Zm11.14-5.75H419.4v2.29h4.89Zm0,3.4H419.4v2.35h4.89Zm-2.81,6.31h1.39v7.08h-1.39Z"/><path class="cls-8" d="M434.16,355.55a3.09,3.09,0,1,1-3.09,3.09A3.1,3.1,0,0,1,434.16,355.55Zm0,5.2a2.11,2.11,0,1,0,0-4.22,2.11,2.11,0,1,0,0,4.22Z"/><path class="cls-4" d="M594.45,345.77c2.74,2.56,6.28,6.23,7.83,8.73l-3,2.17a25.85,25.85,0,0,0-1.55-2.26c-15.82.77-17.93.83-19.51,1.37a27.26,27.26,0,0,0-1.16-3.4,6.14,6.14,0,0,0,2.47-1.73,39.76,39.76,0,0,0,6.31-8.1l3.57,1.52a48.93,48.93,0,0,1-6.49,7.6l12.21-.39c-1.16-1.31-2.35-2.56-3.45-3.66Zm-15.25,12h20.07v13h-3.81V369.3H582.83v1.52H579.2Zm3.63,3.4v4.77h12.63v-4.77Z"/><path class="cls-4" d="M623.51,358.4v2.44h6.76v10h-3.54V370h-10.1v.89h-3.4v-10H620V358.4H611.6c-.33,4.32-1.28,9.14-3.54,12.57a14.48,14.48,0,0,0-3.16-1.88c3.07-4.5,3.34-11.14,3.34-15.88v-8.73h22.49v8.22h-7.21v2.53h8.67v3.16ZM620,355.25v-2.53h-8.16v.51c0,.63,0,1.31,0,2Zm-8.16-7.65v2h15.31v-2Zm14.92,16.35h-10.1v2.95h10.1Z"/><path class="cls-4" d="M661.16,358.17s-.06,1-.12,1.4c-.62,6.43-1.31,9.14-2.29,10.13a3.47,3.47,0,0,1-2.41,1.13,35.06,35.06,0,0,1-3.72.06,6.69,6.69,0,0,0-.92-3c1.25.12,2.41.12,2.95.12s.8,0,1.1-.36c.57-.54,1.16-2.35,1.58-6.37h-2.56a24.5,24.5,0,0,1-6.82,9.8,18.93,18.93,0,0,0-2.8-2.17,18.25,18.25,0,0,0,6-7.62h-2.56a27.36,27.36,0,0,1-8.87,8.94,19.24,19.24,0,0,0-2.62-2.53,20.81,20.81,0,0,0,7.51-6.4h-2.59a28.12,28.12,0,0,1-4.62,3.6,23.81,23.81,0,0,0-2.68-2.5,21.82,21.82,0,0,0,7.15-6h-2.62V344.29h19.6v12.06H645.94c-.39.63-.8,1.22-1.25,1.82ZM642.66,349h12.51v-1.85H642.66Zm0,4.53h12.51v-1.88H642.66Z"/><path class="cls-4" d="M697.37,353.4a34.59,34.59,0,0,1-5.12,10.22c.86,2.14,1.82,3.4,2.77,3.4.71,0,1.07-1.49,1.22-5.21a9.63,9.63,0,0,0,3,2c-.57,5.51-1.76,6.82-4.53,6.82-2.09,0-3.72-1.49-5-3.93a25.21,25.21,0,0,1-5,4.05,23.31,23.31,0,0,0-2.56-2.92,22.78,22.78,0,0,0,6.08-4.83,61.5,61.5,0,0,1-2.06-12h-8.64v3.19h7.36s0,.92,0,1.34c-.09,6.25-.27,8.91-1,9.77a2.8,2.8,0,0,1-2.06,1.19,23.41,23.41,0,0,1-3.42.09,8,8,0,0,0-1-3.31c1.07.09,2.09.12,2.56.12a1,1,0,0,0,.89-.36c.3-.42.42-1.85.51-5.6h-3.87c-.12,4.35-.74,10.16-3.19,13.79a15.47,15.47,0,0,0-3-2.41c2.26-3.57,2.47-8.76,2.47-12.63v-8.7H685.9c-.06-1.46-.12-2.92-.12-4.41h3.72c0,1.49,0,2.95.06,4.41h4.56a37.39,37.39,0,0,0-3.81-2.59l2.14-2.11a24.92,24.92,0,0,1,4.85,3.19l-1.43,1.52H699V351h-9.2a70.54,70.54,0,0,0,1.19,8.16,30.12,30.12,0,0,0,2.86-6.61Z"/><path class="cls-4" d="M728.64,366.15v3.6h-27v-3.6h14.59a75.25,75.25,0,0,0,3.84-13.25l4,.77a123.14,123.14,0,0,1-4,12.48Zm-1.25-14.21H703v-3.57h10.81a43,43,0,0,0-1.43-4.77l3.54-.89a38.74,38.74,0,0,1,1.61,4.74l-3.19.92h13.08Zm-18.26,13.49a89.67,89.67,0,0,0-2.47-11.77l3.57-.86a99.11,99.11,0,0,1,2.71,11.65Z"/><path class="cls-8" d="M559.48,37.61c-2.85,1.31-6,2.68-8.21,3.67l-.49-1.39c.8-.31,1.76-.72,2.83-1.17l-.33-12.82,1.37,0L555,38.15c1.35-.59,2.81-1.23,4.22-1.86Zm9.09,5.79a50.84,50.84,0,0,0-4.71-5.51,14.84,14.84,0,0,1-7.17,5.63,10.8,10.8,0,0,0-1.07-1.17c7.13-2.58,9.3-7.56,10.22-16.5l1.47.14c-.49,4.44-1.29,7.92-2.74,10.69a59.13,59.13,0,0,1,5.14,5.65ZM560.65,33a19.56,19.56,0,0,0-3.15-5l1.17-.59a19.23,19.23,0,0,1,3.26,4.87Z"/><path class="cls-8" d="M589.81,37.35v1.27H571.46V37.35h1.68l-.33-11a30.85,30.85,0,0,0,3.5-1.29l.66,1.17c-.86.33-1.95.66-2.93.92l.08,2.52h2.4v1.15h-2.38l.1,2.68h2.38v1.15h-2.36l.08,2.66h2.81V25.88h7V37.35H587c0-.78.08-1.66.12-2.6h-2.4V33.6h2.44c0-.88.06-1.78.08-2.68h-2.44V29.77h2.46c0-1,0-2,0-2.87h-2.58V25.76h3.81c0,3.56-.18,8.46-.35,11.59Zm-11.26,2.56a32.39,32.39,0,0,1-6.08,3.54,7.17,7.17,0,0,0-.82-1,24,24,0,0,0,5.69-3.34Zm-.35-2.56h4.87V27H578.2Zm4.18-8.87v1h-3.58v-1Zm-3.3,2.42h3.15v4.71h-3.15Zm.76,3.79h1.62V31.82h-1.62Zm3.6,4.26a47.34,47.34,0,0,1,5.94,3.34l-.88,1a47,47,0,0,0-5.82-3.42Z"/><path class="cls-8" d="M597.83,27V43.49h-1.19V39.64l-4.61.82-.29-1.23L593,39V27H592V25.72h6.74V27Zm-1.19,0h-2.48v3h2.48Zm0,4.18h-2.48V34.2h2.48Zm0,7.33V35.36h-2.48v3.5Zm6.66-7.37a27.45,27.45,0,0,1,1.06,3.32l-.92.33c-.08-.29-.18-.7-.29-1.13-3.62.47-4.16.57-4.44.74a8.84,8.84,0,0,0-.33-1.25c.33-.06.72-.47,1.19-1a24.82,24.82,0,0,0,1.49-2,7.58,7.58,0,0,0-2.19.31,8.07,8.07,0,0,0-.33-1.25c.27-.06.51-.33.82-.72a15.57,15.57,0,0,0,1.9-3.46l1,.49A22.43,22.43,0,0,1,600,29.24l1.68-.1a18.53,18.53,0,0,0,1-1.76l1,.51A32.34,32.34,0,0,1,600.1,33l2.76-.29c-.14-.47-.31-1-.47-1.39Zm-.76,3.77h1.19v3.19a5.8,5.8,0,0,1-3.48,5.61,3.54,3.54,0,0,0-.78-.94,4.66,4.66,0,0,0,2.95-3.42h-2.87V34.87h1.13v3.26h1.86V34.87Zm6.7-4.05a34.54,34.54,0,0,1,1.35,3.42l-.9.37c-.08-.31-.22-.7-.37-1.13-3.65.49-4.2.59-4.5.76a7.86,7.86,0,0,0-.33-1.23c.31,0,.68-.43,1.11-1,.22-.31.78-1.06,1.37-2a9.9,9.9,0,0,0-2.25.31,10.76,10.76,0,0,0-.35-1.19c.29-.06.51-.31.8-.68A16.29,16.29,0,0,0,607,25.08l1,.47a18.58,18.58,0,0,1-2.11,3.56l1.7-.08c.29-.53.59-1.11.86-1.66l1,.51a30.71,30.71,0,0,1-3.21,5l2.78-.29c-.18-.53-.39-1-.59-1.5Zm-.94,4.24h1.15v5h-1.15v-.78h-1.86v4.24h-1.21V34.85h1.21v3.24h1.86Z"/><path class="cls-8" d="M630.82,41.69V42.9H612.33V41.69h2.38V36.63h13.86v5.06Zm-16.07-6.84h-1.25V25.78h6.43v7.95h-5.18Zm0-7.95v2.31h3.93V26.91Zm3.93,5.71V30.3h-3.93v2.31ZM616,41.69h2.91V37.76H616Zm6.94-9.13a6.5,6.5,0,0,1-2.33,3.67,4,4,0,0,0-.94-.9A6.49,6.49,0,0,0,622,29.71V25.47h7.62v8.95c0,.76-.14,1.11-.7,1.31A9.27,9.27,0,0,1,626,36a5.24,5.24,0,0,0-.49-1.17c1.11,0,2.09,0,2.36,0s.39-.1.39-.37V32.56Zm-2.78,5.2v3.93H623V37.76Zm8.13-6.23v-2h-5v.18a11.1,11.1,0,0,1-.12,1.8Zm-5-4.94v1.92h5V26.6Zm1.06,11.16v3.93h2.95V37.76Z"/><path class="cls-8" d="M635.85,32.37c0,3.24-.27,7.8-2.15,10.91a5.22,5.22,0,0,0-1.13-.7c1.8-3,2-7.17,2-10.22V26.62h7.92c-.16-.51-.39-1.09-.57-1.56l1.37-.31c.25.57.51,1.31.7,1.86h7.19v1.19H635.85Zm6.25,8.87c-1.74.8-4,1.7-5.65,2.29a5.59,5.59,0,0,0-.72-1A55,55,0,0,0,641,40.4Zm9.24-8.52v.9H636.44v-.9ZM639.58,32V30.26H637v-.9h2.62V28.11h1.31v1.25h5.53V28.11h1.35v1.25h2.62v.9h-2.62V32Zm10.24,8.17H637.57V34.4h12.25Zm-11-3.38H643V35.32h-4.22Zm0,2.46H643V37.74h-4.22Zm2.07-9v1h5.53v-1Zm7.62,5.06h-4.2v1.52h4.2Zm0,2.42h-4.2v1.56h4.2Zm-2.74,2.64c2,.7,4.05,1.54,5.41,2.17l-.68,1c-1.29-.63-3.36-1.54-5.3-2.25Z"/><path class="cls-8" d="M671.56,32.45v1.27H653.62V32.45h8.66V29.08h-5.14a17.52,17.52,0,0,1-2,2.83c-.27-.18-.88-.55-1.23-.74a16.64,16.64,0,0,0,3.6-6.12l1.35.31c-.31.86-.68,1.68-1,2.46h4.44v-3h1.41v3H670v1.27H663.7v3.38Zm-15.38,3.38H669.1v7.84h-1.39V42.51H657.53V43.7h-1.35Zm1.35,1.27v4.14h10.18V37.1Z"/><path class="cls-8" d="M680.89,28.79c-.41.84-.86,1.7-1.33,2.5h10V41.71c0,.86-.2,1.27-.84,1.49a13.39,13.39,0,0,1-3.54.23,5.67,5.67,0,0,0-.45-1.33c1.41.06,2.66,0,3,0s.49-.14.49-.45V39.42h-9a7.59,7.59,0,0,1-2.09,4.18,4.24,4.24,0,0,0-.94-1.06c1.7-1.66,1.88-3.93,1.88-5.88V33.4a17.16,17.16,0,0,1-3.46,3.32,5.94,5.94,0,0,0-.86-1.07,17.6,17.6,0,0,0,5.65-6.86h-5.24V27.5H680a19.79,19.79,0,0,0,.94-2.66l1.35.31c-.25.8-.51,1.58-.84,2.35H692v1.29Zm7.31,9.44V35.94h-8.74v.74c0,.49,0,1-.06,1.56Zm0-5.71h-8.74v2.23h8.74Z"/><path class="cls-8" d="M701.25,26.15c-.61,1.66-1.37,3.64-2.07,5.28a6.54,6.54,0,0,1,1.88,4.5,2.83,2.83,0,0,1-.78,2.31,2.2,2.2,0,0,1-1,.37,6.31,6.31,0,0,1-1.39,0,2.84,2.84,0,0,0-.37-1.21,6.51,6.51,0,0,0,1.25,0,1.24,1.24,0,0,0,.66-.18,1.83,1.83,0,0,0,.45-1.45,6.17,6.17,0,0,0-1.92-4.24c.63-1.5,1.27-3.3,1.72-4.65h-3.15V43.47h-1.23V25.68h4.91l.21-.06ZM712.47,36.3a28,28,0,0,1-3.65,2.5,9,9,0,0,0,4.08,3.36,6.63,6.63,0,0,0-.92,1.17c-3.24-1.5-5.18-4.65-6.2-8.7h-2.11v6.92l3.75-.92a7.55,7.55,0,0,0,.06,1.23c-4.26,1.17-4.85,1.37-5.24,1.64a4.44,4.44,0,0,0-.61-1.15,1.38,1.38,0,0,0,.72-1.37V25.74h8.93v8.89H707a14.1,14.1,0,0,0,1.29,3.22,25.93,25.93,0,0,0,3.32-2.48Zm-8.81-9.36v2.62h6.27V26.95Zm0,6.47h6.27v-2.7h-6.27Z"/><path class="cls-8" d="M721.78,25.92a26.78,26.78,0,0,1-6,8.68,9,9,0,0,0-1.21-1.08,21.33,21.33,0,0,0,5.73-8.07Zm5.77,9.83a63.87,63.87,0,0,1,4.61,6.84l-1.35.72c-.29-.55-.68-1.21-1.11-1.92-10.77.72-11.86.78-12.57,1A9.84,9.84,0,0,0,716.6,41c.49-.12,1.11-.82,1.9-1.8a48.55,48.55,0,0,0,5.2-8.13l1.47.63a53.48,53.48,0,0,1-6.08,9l9.81-.53c-.86-1.31-1.8-2.7-2.64-3.85Zm.45-10.4a14.91,14.91,0,0,0,5.47,8,7.09,7.09,0,0,0-1.06,1.27A17.09,17.09,0,0,1,727,26.74h-3.93V25.35Z"/><path class="cls-8" d="M752.27,41.36c0,1-.2,1.45-.88,1.7a14.29,14.29,0,0,1-3.79.27,5.48,5.48,0,0,0-.47-1.5c1.45.06,2.85,0,3.28,0s.49-.12.49-.49V27.48H736.09V26.17h16.18ZM748.54,31H736.21V29.73h12.33Zm-1.47,8.76H738.9v1.52h-1.33V33.29h9.5ZM738.9,34.5v4h6.84v-4Z"/><path class="cls-8" d="M568.94,73a5.15,5.15,0,0,1-.06.59c-.37,4.26-.76,5.94-1.39,6.57a1.73,1.73,0,0,1-1.29.51,18,18,0,0,1-2.52,0,2.68,2.68,0,0,0-.37-1.21c1,.08,2,.08,2.38.08a1.1,1.1,0,0,0,.74-.16c.43-.45.8-1.8,1.13-5.14H555.22a21.61,21.61,0,0,1-3.71,2.56,6.87,6.87,0,0,0-.74-1.15,21.68,21.68,0,0,0,8.76-8.78h-7.41V65.64h4.18a14.17,14.17,0,0,0-1.66-3.05l1.17-.45a13.12,13.12,0,0,1,1.72,3l-1.11.49h3.73a26,26,0,0,0,1.47-3.6l1.31.41c-.39,1.09-.82,2.15-1.31,3.19h4.22c-.18,1.21-.43,2.62-.66,3.67h2.33c-.18,1.21-.41,2.64-.63,3.71Zm-17.16,6.76a7.38,7.38,0,0,0,2.38-4.26l1.17.37a8.36,8.36,0,0,1-2.48,4.61ZM565.67,73c.14-.72.29-1.64.43-2.52H558.7A25.15,25.15,0,0,1,556.53,73Zm-7.74,2.91a12.57,12.57,0,0,1,.59,3.71l-1.21.18a13.38,13.38,0,0,0-.51-3.75ZM561,66.85q-.68,1.26-1.47,2.46h4.38c.16-.72.35-1.6.49-2.46Zm0,8.72a13.36,13.36,0,0,1,1.15,3.28l-1.13.31a14.54,14.54,0,0,0-1.08-3.32Zm3.48,2.66a12.5,12.5,0,0,0-1.56-2.79l.94-.37a10.56,10.56,0,0,1,1.6,2.7Z"/><path class="cls-8" d="M583,67.79a18,18,0,0,0,7.08,8.44,7.82,7.82,0,0,0-1,1.15c-3.07-1.9-5.78-5.57-7.37-9.58h-.33v7.66h4.87v1.37h-4.87v3.89h-1.41V76.82h-4.85V75.45h4.85V67.79h-.37a21.67,21.67,0,0,1-7.27,9.64,8.24,8.24,0,0,0-1-1.08,19.54,19.54,0,0,0,6.88-8.56h-6.37V66.42h8.11V62.08h1.41v4.34h8.19v1.37Z"/><path class="cls-8" d="M593.94,74.22a3.61,3.61,0,0,0,2.58-3.13,1.28,1.28,0,0,1-.39,0,1.33,1.33,0,0,1-1.45-1.39,1.36,1.36,0,0,1,1.47-1.39c1.09,0,1.66.88,1.66,2.27a4.83,4.83,0,0,1-3.44,4.59Z"/><path class="cls-8" d="M620.46,78.46v1.37h-18.1V78.46h9.91a67.79,67.79,0,0,0,3.11-10l1.56.29c-.9,3.09-2.11,7.06-3.21,9.71Zm-.8-11.18H603.21V65.93h16.44ZM608.09,77.52a69.69,69.69,0,0,0-2-8.72l1.35-.31a71.68,71.68,0,0,1,2,8.68ZM611,65.62a21.09,21.09,0,0,0-1-3.3l1.31-.37a23.9,23.9,0,0,1,1.07,3.26Z"/><path class="cls-8" d="M632.66,78.79a18.28,18.28,0,0,0,3.63.31c.61,0,4.18,0,5,0a5.11,5.11,0,0,0-.51,1.31h-4.55c-4.36,0-7.5-.8-9.4-4.44a10.31,10.31,0,0,1-3.21,4.77,7,7,0,0,0-1-.94c2.48-1.86,3.46-5.34,3.77-8.29l1.43.16a23.41,23.41,0,0,1-.49,2.56,6.49,6.49,0,0,0,3.91,4.18V69.92h-6.08V63.06H639v6.86h-6.37V73.2h6.92v1.27h-6.92Zm-6.12-10.18h11.08V64.37H626.54Z"/><path class="cls-8" d="M650.63,69.66s0,.47,0,.63c-.25,6.49-.49,8.68-1.06,9.42a1.52,1.52,0,0,1-1.15.59,13.35,13.35,0,0,1-1.82,0,3.81,3.81,0,0,0-.35-1.25c.72.06,1.31.06,1.6.06a.58.58,0,0,0,.59-.27c.41-.49.66-2.46.88-7.92h-2.79c-.22,4.1-.8,7.47-2.64,9.69a3.91,3.91,0,0,0-1-1c2.23-2.64,2.42-7.31,2.5-12.92H643.2V65.46h8.23v1.27h-4.77c0,1,0,2-.08,2.93Zm-3.24-4.28a13.72,13.72,0,0,0-1.74-2.93l1.19-.47a13.09,13.09,0,0,1,1.8,2.87Zm9.77-3.05a6.33,6.33,0,0,1-.35,1,14,14,0,0,0,5.1,5.71,5.33,5.33,0,0,0-1,1.13,15.42,15.42,0,0,1-4.67-5.45,13.35,13.35,0,0,1-4.48,5.57,5.22,5.22,0,0,0-1-1.09,12.5,12.5,0,0,0,5.12-7.31Zm-3.4,13.29A30.33,30.33,0,0,1,659.34,79l-.92,1.19a29.22,29.22,0,0,0-5.49-3.54Zm3.89-2a27.14,27.14,0,0,0-3.52-2.81l.88-.9a27.66,27.66,0,0,1,3.58,2.68Z"/><path class="cls-8" d="M676,64.46a32.46,32.46,0,0,1,5.45,5.94l-1.17.82a17.12,17.12,0,0,0-1.29-1.8c-11.9.68-13,.72-13.78,1a10.1,10.1,0,0,0-.43-1.33,4.75,4.75,0,0,0,1.66-1.23A37.81,37.81,0,0,0,671.21,62l1.33.61a43.25,43.25,0,0,1-5.41,6.14L678,68.24a39.88,39.88,0,0,0-3.07-3.09Zm-9.62,7.74H679.3v8.46h-1.43V79.57H667.73v1.13h-1.37Zm1.37,1.31v4.75h10.14V73.51Z"/><path class="cls-8" d="M686.85,70.82a12.92,12.92,0,0,0-2.95-2.15l.8-.92a12.57,12.57,0,0,1,3,2Zm-2.56,8.91a63.79,63.79,0,0,0,2.56-6.51l1.07.74c-.68,2.11-1.6,4.65-2.4,6.49Zm2.91-14.21a14,14,0,0,0-2.83-2.31l.8-.88A12.69,12.69,0,0,1,688,64.52Zm2.21,4a12.24,12.24,0,0,1-.9,2.85,4.52,4.52,0,0,0-.74-.47,8.47,8.47,0,0,0,.8-2.58Zm2.79-.82a6.53,6.53,0,0,0-.25-.63,15.49,15.49,0,0,0-3.58.61A3.39,3.39,0,0,0,688,68a1.83,1.83,0,0,0,1-.7,13.77,13.77,0,0,0,1.31-1.6,7.59,7.59,0,0,0-1.95.29,5.79,5.79,0,0,0-.33-.74,1.07,1.07,0,0,0,.61-.51,10.63,10.63,0,0,0,1.27-2.52l.9.33a12,12,0,0,1-1.39,2.42l1.41-.08a8.87,8.87,0,0,0,.57-.94l.88.37a18.82,18.82,0,0,1-2.56,3.32l1.9-.2a7.6,7.6,0,0,0-.43-.72l.74-.27a10.74,10.74,0,0,1,1,2Zm9.44,7.95a2.68,2.68,0,0,1-.08.55c-.41,1.78-.82,2.68-1.39,3.09a2.17,2.17,0,0,1-1.47.37c-.59,0-1.82,0-3.11-.08a2.64,2.64,0,0,0-.41-1.09c1.33.14,2.68.16,3.17.16a1.39,1.39,0,0,0,.88-.16c.35-.23.66-.8.92-1.9H689.29a27.77,27.77,0,0,0,.88-2.95h9.32V73.51h-10.1v-.9h11.37v3h-9.56c-.1.39-.21.74-.33,1.11Zm-11.3-4.63a9,9,0,0,0-.47-2.56l.78-.18a10.35,10.35,0,0,1,.49,2.48ZM692.09,69a9,9,0,0,1,.76,2.23l-.72.33a11.61,11.61,0,0,0-.74-2.33Zm5.47-4h-4.92v-.86h2.23a9.87,9.87,0,0,0-.84-1.68l.94-.25a9.38,9.38,0,0,1,.9,1.62l-.94.31h2.62Zm-4.36,3.85H697v3H693.2ZM697,66.54h-3.77v-.8H697Zm0,1.5h-3.77v-.82H697Zm-2.91,3h2V69.59h-2Zm4.75-1.58a11,11,0,0,1-.9,2.85,7.66,7.66,0,0,0-.74-.49,7.68,7.68,0,0,0,.8-2.54Zm2.89-.66a8.16,8.16,0,0,0-.31-.78,20.64,20.64,0,0,0-3.6.61,6.9,6.9,0,0,0-.33-.76c.31,0,.57-.29.94-.7a15.67,15.67,0,0,0,1.31-1.58,9.23,9.23,0,0,0-1.95.29,3.34,3.34,0,0,0-.33-.76c.25,0,.41-.21.61-.49a10.19,10.19,0,0,0,1.27-2.52l.9.33a13.09,13.09,0,0,1-1.37,2.42l1.43-.1q.31-.46.55-.92l.88.39a22.89,22.89,0,0,1-2.58,3.3l1.9-.23c-.14-.25-.27-.47-.41-.7l.7-.27a8.94,8.94,0,0,1,1.11,2.15Zm-1.92,3.42a11.17,11.17,0,0,0-.51-2.76l.76-.21a11.58,11.58,0,0,1,.53,2.7Zm1.72-3.3a11.42,11.42,0,0,1,.92,2.6l-.74.35a12.88,12.88,0,0,0-.88-2.7Z"/><path class="cls-8" d="M706.57,74.22a3.61,3.61,0,0,0,2.58-3.13,1.28,1.28,0,0,1-.39,0,1.33,1.33,0,0,1-1.45-1.39,1.36,1.36,0,0,1,1.47-1.39c1.09,0,1.66.88,1.66,2.27A4.83,4.83,0,0,1,707,75.21Z"/><path class="cls-8" d="M724.07,77.87c-3.3.63-6.78,1.27-9.19,1.7l-.22-1.37,4.14-.68V74h-3.58V72.79h3.58v-2.4h1.35v2.4h3.46V74h-3.46v3.24L724,76.6Zm-1.45-7.62a11.09,11.09,0,0,0-.49-1c-5.61.51-6.33.61-6.76.8a10,10,0,0,0-.41-1.27c.31-.06.59-.39.92-.88a18.44,18.44,0,0,0,1.86-3.24h-2.83V63.41H724v1.25h-4.75a31.17,31.17,0,0,1-2.33,3.87l4.61-.37c-.41-.68-.86-1.37-1.27-1.95l1-.51a26.53,26.53,0,0,1,2.44,3.93Zm10.12-4.18A22.45,22.45,0,0,1,729.15,76a12.1,12.1,0,0,0,4.2,3.64,5.92,5.92,0,0,0-.94,1.06A12.73,12.73,0,0,1,728.35,77a14,14,0,0,1-4.69,3.73,5.27,5.27,0,0,0-.9-1.23,12.46,12.46,0,0,0,4.77-3.73,21.91,21.91,0,0,1-2-4.36,18,18,0,0,1-.9,1.68,8.19,8.19,0,0,0-.84-1.23,13,13,0,0,0,1.15-2.25q-.52-1.81-.92-3.81l1.07-.23c.14.76.31,1.5.51,2.21a39.57,39.57,0,0,0,1.23-5.71l1.29.2c-.21,1.21-.43,2.4-.7,3.52h4.28l.22-.06Zm-5.67,1c-.29,1-.57,1.92-.9,2.81a22,22,0,0,0,2.15,4.81,20.72,20.72,0,0,0,2.95-7.62Z"/><path class="cls-8" d="M752.74,66.54s0,.55,0,.74c-.49,8.5-.9,11.51-1.82,12.51a2.09,2.09,0,0,1-1.68.78,23,23,0,0,1-3.24-.08,3.34,3.34,0,0,0-.47-1.37c1.41.12,2.72.14,3.24.14a1.17,1.17,0,0,0,.94-.31c.74-.72,1.19-3.65,1.6-11H744.1a15.22,15.22,0,0,1-7.62,12.88,4.31,4.31,0,0,0-1-1.06,14,14,0,0,0,7.25-11.82H736V66.54h6.72c0-.37,0-.7,0-1V62.08h1.41V65.5c0,.35,0,.68,0,1Z"/><path class="cls-8" d="M558.46,106.88s0,.47,0,.63c-.25,6.49-.49,8.68-1.06,9.42a1.52,1.52,0,0,1-1.15.59,13.52,13.52,0,0,1-1.82,0,3.81,3.81,0,0,0-.35-1.25c.72.06,1.31.06,1.6.06a.58.58,0,0,0,.59-.27c.41-.49.66-2.46.88-7.92h-2.79c-.22,4.1-.8,7.47-2.64,9.69a3.9,3.9,0,0,0-1-1c2.23-2.64,2.42-7.31,2.5-12.92H551v-1.27h8.23V104h-4.77c0,1,0,2-.08,2.93Zm-3.24-4.28a13.72,13.72,0,0,0-1.74-2.93l1.19-.47a13.09,13.09,0,0,1,1.8,2.87ZM565,99.55a6.33,6.33,0,0,1-.35,1,14,14,0,0,0,5.1,5.71,5.32,5.32,0,0,0-1,1.13,15.42,15.42,0,0,1-4.67-5.45,13.35,13.35,0,0,1-4.48,5.57,5.23,5.23,0,0,0-1-1.09,12.5,12.5,0,0,0,5.12-7.31Zm-3.4,13.29a30.32,30.32,0,0,1,5.57,3.38l-.92,1.19a29.23,29.23,0,0,0-5.49-3.54Zm3.89-2A27.14,27.14,0,0,0,562,108l.88-.9a27.66,27.66,0,0,1,3.58,2.68Z"/><path class="cls-8" d="M581.19,101.84v2.7h7.6v11.71c0,.78-.18,1.19-.76,1.39a11.22,11.22,0,0,1-3.05.23,5.05,5.05,0,0,0-.47-1.23c1.17,0,2.23,0,2.56,0s.39-.1.39-.41V105.81h-6.27v12H579.9v-12H574v12.06h-1.31V104.54h7.25v-2.7h-8v-1.33H589.5v1.33Zm-3.36,5.61c0,2.09.14,4.75,2,6.82a3,3,0,0,0-.78.61,8.14,8.14,0,0,1-1.76-3.85,9.28,9.28,0,0,1-2.13,3.89,4.88,4.88,0,0,0-.8-.61,9.64,9.64,0,0,0,2.46-5.86h-1.33v-1Zm7.21,0c0,2.11.16,4.75,2.13,6.8a4,4,0,0,0-.82.59,8.06,8.06,0,0,1-1.9-4,9.44,9.44,0,0,1-2.11,3.91,5.08,5.08,0,0,0-.8-.61,9.72,9.72,0,0,0,2.42-5.71h-1.39v-1Z"/><path class="cls-8" d="M594.8,106.86v2.72c0,2.38-.31,5.69-2,8a4.48,4.48,0,0,0-1.08-.88c1.58-2.11,1.76-5,1.76-7.11v-3.93H610v1.23Zm14-2.93H593.57v-3.85h1.37v2.6h5.47V99.26h1.41v3.42h5.61v-2.6h1.41Zm1.41,9.52h-6.82v4.48H602v-4.48h-6.51v-1.23H602v-2.31h-5.47v-1.19h12.59v1.19h-5.71v2.31h6.82Z"/><path class="cls-8" d="M621.64,110.61a12.85,12.85,0,0,1-.33,1.68h7.29a4.33,4.33,0,0,1-.06.55c-.29,2.95-.61,4.16-1.13,4.65a1.82,1.82,0,0,1-1.31.45,18.66,18.66,0,0,1-2.56,0,2.77,2.77,0,0,0-.37-1.17c1,.1,2,.12,2.42.12a1,1,0,0,0,.74-.18c.35-.31.57-1.19.82-3.28H621c-.8,2.11-2.35,3.65-5.47,4.59a3.43,3.43,0,0,0-.76-1c4-1.11,5.14-3.3,5.55-6.33H615.7a15.36,15.36,0,0,1-2.48,7.41,5.33,5.33,0,0,0-1-.92c2.09-2.89,2.29-6.92,2.29-10V100.8a96.2,96.2,0,0,0,13-1.5l1.09,1a94.32,94.32,0,0,1-12.78,1.49V103h13.35v4.4H615.87c0,.63,0,1.33-.08,2h6.74a11.52,11.52,0,0,0-1-1.6l1.25-.37a9.89,9.89,0,0,1,1.25,2h6.7v1.13Zm-5.77-6.47v2.17h12v-2.17Z"/><path class="cls-8" d="M635.77,107.43v3.3c0,2.27-.33,5.32-2.17,7.39a3.88,3.88,0,0,0-1-.88c1.68-1.88,1.88-4.5,1.88-6.53v-4.42H637a4.66,4.66,0,0,0-.7-.72c1.66-.33,3.54-.76,5.34-1.27-1.6-.49-3.24-.9-4.71-1.25l.86-.72h-3.24v-1.15h7.64A18.52,18.52,0,0,0,641,99.61l1-.51a14.62,14.62,0,0,1,1.58,2.09h6.84v1.15h-3.11l.76.47a25.44,25.44,0,0,1-3.24,1.41c1.56.49,3,.94,4.05,1.35l-.74.72h2.93v1.15Zm15.64,8.64v1.17H636.18v-1.17H643v-2.23h-4.85v-1.13H643v-2h-4.42a13.8,13.8,0,0,1-1.92,2.52,6.16,6.16,0,0,0-.76-1.08,11.75,11.75,0,0,0,2.74-4.36l1.19.33c-.18.51-.41,1-.63,1.47H643V107.8h1.33v1.82h5.61v1.13h-5.61v2h5.18v1.13h-5.18v2.23Zm-3.66-9.79c-1.21-.47-2.79-1-4.48-1.52-1.86.61-3.87,1.11-5.63,1.52Zm-9.75-4c1.66.41,3.52.9,5.34,1.45a25.56,25.56,0,0,0,3.48-1.45Z"/><path class="cls-8" d="M658.13,106.88c.7.7,2.62,2.93,3.05,3.48l-.86,1.11a33.05,33.05,0,0,0-2.19-3v9.44h-1.29v-10.1a21.94,21.94,0,0,1-3.09,6.29,9.29,9.29,0,0,0-.74-1.23,22.91,22.91,0,0,0,3.66-7.88h-3.21v-1.27h3.38V99.26h1.29v4.42h3V105h-3Zm13-6.39v17.22h-1.33v-1.19h-6.47v1.25H662V100.49Zm-7.8,1.29v3.58h6.47v-3.58Zm0,8.52h6.47v-3.69h-6.47Zm6.47,5v-3.73h-6.47v3.73Z"/><path class="cls-8" d="M681.65,109.68a19.63,19.63,0,0,1,1.17,2.21l-.68.29h.14V114c0,1.54-.37,2.91-2.91,3.81a3.69,3.69,0,0,0-.68-.84,3.38,3.38,0,0,0,2.31-1.64h-2.78v-2.83h1v1.92h2a3.3,3.3,0,0,0,0-.45v-1.78H682c-.08-.21-.18-.41-.29-.68a21.1,21.1,0,0,0-4.07.53v0a6.2,6.2,0,0,0-.31-.94,2.38,2.38,0,0,0,1.11-.57,15.6,15.6,0,0,0,1.27-1.13,6.16,6.16,0,0,0-2,.27v0a5.93,5.93,0,0,0-.33-1,1.24,1.24,0,0,0,.68-.37,10.26,10.26,0,0,0,1.5-1.95H676V118h-1.31V100.16H682v6.18h-2.13l.68.35a13.25,13.25,0,0,1-1.64,1.95l1.62-.08c.31-.35.63-.7.9-1.06l.84.55a21.42,21.42,0,0,1-3.15,2.87l2.21-.14-.47-.86Zm-5.69-8.5v1.62h4.79v-1.62Zm0,4.14h4.79v-1.56H676Zm15.56,10.83c0,.82-.14,1.23-.66,1.47a7.21,7.21,0,0,1-2.64.27,6.66,6.66,0,0,0-.45-1.37c.94,0,1.82,0,2.07,0s.37-.1.37-.39v-9.81h-4.73l.72.37a12.9,12.9,0,0,1-1.64,1.93l1.6-.06a11.7,11.7,0,0,0,.94-1.11l.82.55a20.07,20.07,0,0,1-3.19,2.91l2.21-.16c-.16-.29-.31-.59-.47-.86l.74-.25c.45.72,1,1.66,1.23,2.21l-.78.35c-.08-.21-.2-.43-.33-.7a21.9,21.9,0,0,0-4.05.51,8.52,8.52,0,0,0-.31-1,2.18,2.18,0,0,0,1.09-.55,15.79,15.79,0,0,0,1.31-1.15,6.86,6.86,0,0,0-2,.27,5.69,5.69,0,0,0-.35-1,1.07,1.07,0,0,0,.68-.37,10.1,10.1,0,0,0,1.52-1.95h-1.27v-6.18h7.58Zm-4.71-.21v-.63H684.7v2.29h-1v-5.43h1v2.23h2.11v-1.9h1v3.44Zm-1.56-14.76v1.62h5v-1.62Zm5,4.14v-1.56h-5v1.56Z"/><path class="cls-8" d="M712.71,112.1H710.6v3.62h-1.37v-.92h-5.1v1.52c0,.92-.27,1.25-.86,1.45a13.4,13.4,0,0,1-3.4.23,4.46,4.46,0,0,0-.49-1.17c1.29,0,2.52,0,2.87,0s.51-.12.51-.51V114.8h-6.7v-1.06h6.7V112.1h-8.44V111h8.44v-1.54h-6.51v-1h6.51V106.9h-5.92v-3.52h5.92v-1.27h-8.07V101h8.07V99.28h1.37V101h8.21v1.15h-8.21v1.27h6.16v3.52h-6.16v1.52h6.47V111h2.11Zm-10-6.18v-1.56h-4.61v1.56Zm1.37-1.56v1.56h4.77v-1.56Zm0,6.63h5.1v-1.54h-5.1Zm5.1,1.11h-5.1v1.64h5.1Z"/><path class="cls-8" d="M731.43,102.62a9.41,9.41,0,0,1-2.52,3.54,14.27,14.27,0,0,0,4.59,1.9,6.25,6.25,0,0,0-.88,1.17,14.23,14.23,0,0,1-4.73-2.25,15.58,15.58,0,0,1-4.5,2.17,4.73,4.73,0,0,0-.55-.8,19.45,19.45,0,0,1-1.25,3.15l-1-.47a22.12,22.12,0,0,0,1.21-3.38h-2.15v8.66c0,.7-.14,1.09-.63,1.31a7.67,7.67,0,0,1-2.5.21,4.41,4.41,0,0,0-.43-1.23c.9,0,1.72,0,2,0s.33-.06.33-.31v-7a16.94,16.94,0,0,1-3.09,5.26,7.48,7.48,0,0,0-.72-1.23,16.23,16.23,0,0,0,3.36-5.71h-3.2v-1.23h5.59a20.2,20.2,0,0,0-4.61-2.89l.84-.88c.66.29,1.37.63,2.07,1a15.64,15.64,0,0,0,2.31-2.19h-6v-1.19h7l.23-.06.88.57a16,16,0,0,1-3.38,3.48,14.34,14.34,0,0,1,1.78,1.31l-.76.82h1.58l.18-.06.86.31c-.1.39-.22.8-.35,1.21a13.76,13.76,0,0,0,3.89-1.72,11.84,11.84,0,0,1-2.23-2.64,14.29,14.29,0,0,1-1.58,1.58,7.58,7.58,0,0,0-1.13-.82,12.51,12.51,0,0,0,3.89-5l1.31.35a14.3,14.3,0,0,1-1,1.82h6.94v1.19Zm1.19,8.09s0,.39,0,.59c-.37,3.87-.76,5.41-1.35,6a1.68,1.68,0,0,1-1.25.49,17.29,17.29,0,0,1-2.27,0,3.22,3.22,0,0,0-.37-1.27,20.2,20.2,0,0,0,2.09.12,1,1,0,0,0,.7-.2c.39-.41.74-1.62,1-4.59h-3.64a8.24,8.24,0,0,1-5.43,6.06,4.94,4.94,0,0,0-.82-1,7.17,7.17,0,0,0,4.85-5h-3.34v-1.15h3.63a16.92,16.92,0,0,0,.29-2.07h1.37c-.08.72-.16,1.39-.29,2.07Zm-7.15-8.09a9.34,9.34,0,0,0,2.4,2.78,8,8,0,0,0,2.09-2.78Z"/><path class="cls-8" d="M739.41,105.53a3.09,3.09,0,1,1-3.09,3.09A3.1,3.1,0,0,1,739.41,105.53Zm0,5.2a2.11,2.11,0,1,0,0-4.22,2.11,2.11,0,1,0,0,4.22Z"/><path class="cls-8" d="M879.78,245.61a11.59,11.59,0,0,1-3.67,2.7,4.57,4.57,0,0,0-.8-.88,10.57,10.57,0,0,0,4.07-2.85H876.3v-3.46h3.48V240h-4.1V239h4.1v-1.35H881V239h3.91V240H881v1.11h3.36v3.46H881v.78l.53-.63a13.57,13.57,0,0,1,2.85,1.74l-.61.82a17,17,0,0,0-2.76-1.82v2.74h-1.23Zm5.55,8.93h8.6v1.17H875.48v-1.17h3.42V251.1h1.31v3.44H884V250h-7.13v-1.15H892.6V250h-7.27v1.7h6v1.09h-6Zm-7.9-10.87h2.36v-1.6h-2.36Zm3.58-1.6v1.6h2.17v-1.6Zm11.55-1a11,11,0,0,1-2.23,4.16,10.27,10.27,0,0,0,3.71,2.15,5.69,5.69,0,0,0-.78,1.06,11.21,11.21,0,0,1-3.77-2.4,13.31,13.31,0,0,1-4.05,2.33,8.17,8.17,0,0,0-.8-1,11.45,11.45,0,0,0,4.05-2.17,12.7,12.7,0,0,1-1.86-3,10.68,10.68,0,0,1-1.25,1.54,10,10,0,0,0-.94-.92,11.53,11.53,0,0,0,2.95-5.24l1.23.27a17.36,17.36,0,0,1-.74,2h5.77v1.15Zm-5.06,0a10.63,10.63,0,0,0,2,3.28,8.57,8.57,0,0,0,1.76-3.32h-3.73Z"/><path class="cls-8" d="M906.71,238.18a6.91,6.91,0,0,1-.66.92,25.14,25.14,0,0,0,8.6,5.73,4.38,4.38,0,0,0-.94,1.19,26.7,26.7,0,0,1-8.44-5.94,23.39,23.39,0,0,1-4.93,4.22h10v1.27H900v-1.06a25.57,25.57,0,0,1-3.24,1.68,6.94,6.94,0,0,0-1-1.17,21,21,0,0,0,9.69-7.43Zm-7.7,10h12.55v8h-1.43v-1.11h-9.75v1.19H899Zm1.37,1.23v4.4h9.75v-4.4Z"/><path class="cls-8" d="M921.18,247.43a24.36,24.36,0,0,1-1.72,5.3c.45.2.92.63,1.74,1.11,1.45.88,3.3,1,5.73,1,2.68,0,5.94-.18,8.23-.39a4.3,4.3,0,0,0-.41,1.41c-1.51.08-5.45.23-7.86.23-2.7,0-4.5-.23-6-1.15-.86-.51-1.62-1.21-2.07-1.21s-1.15,1.29-1.76,2.58l-.94-1.19a9.14,9.14,0,0,1,2-2.35,18.2,18.2,0,0,0,1.49-4.36H917c.57-1.23,1.25-3,1.8-4.61h-2.36V242.6h4.1c-.53,1.45-1.19,3.21-1.74,4.63h1.51l.25,0Zm-2.66-6c-.22-.9-.68-2.29-1-3.34l1.21-.35c.33,1.06.82,2.4,1.06,3.28Zm5.14,12h-1.23v-8.83H924v-6.29h8.31v6.29H934v7.43c0,.68-.12,1-.63,1.19a7.33,7.33,0,0,1-2.48.21,4.75,4.75,0,0,0-.39-1.11c.9,0,1.7,0,1.9,0s.33-.08.33-.31v-6.33h-9Zm1.58-8.83h2.07v-3.46h3.79v-1.74h-5.86Zm5.55,6.78h-4.22v.84H925.5v-5.1h5.28Zm-1.08-3.28h-3.13v2.31h3.13Zm1.39-3.5v-2.5h-2.7v2.5Z"/><path class="cls-8" d="M942.66,242.66a24.26,24.26,0,0,1-1.68,2.58v11h-1.37V246.9a22.93,22.93,0,0,1-2.27,2.21,7.94,7.94,0,0,0-.76-1.31,19.1,19.1,0,0,0,4.89-5.61Zm-.29-4.53a19.69,19.69,0,0,1-4.79,4.87,6.76,6.76,0,0,0-.72-1.11,15.57,15.57,0,0,0,4.2-4.24Zm13,16.18v1.31h-13v-1.31h5.82v-5.45h-4.5v-1.29h4.5v-4.75H943v-1.31h11.9v1.31h-5.24v4.75h4.59v1.29h-4.59v5.45Zm-6.55-12.92a18,18,0,0,0-1.76-3.4l1.23-.45a17.7,17.7,0,0,1,1.84,3.32Z"/><path class="cls-8" d="M959.34,250.88a27.17,27.17,0,0,1-1.09,5c-.25-.12-.82-.33-1.11-.43a21.66,21.66,0,0,0,1-4.77Zm4-1c-.06-.31-.14-.72-.25-1.15-4.4.68-5,.82-5.39,1a12.31,12.31,0,0,0-.45-1.27c.41-.08.9-.61,1.47-1.35a26.9,26.9,0,0,0,1.78-2.46,10.87,10.87,0,0,0-2.95.51c-.08-.29-.29-.9-.41-1.23.33-.08.7-.51,1.11-1.15a26.36,26.36,0,0,0,2.74-5.2l1.23.53a32.63,32.63,0,0,1-3.19,5.53l2.23-.18a29.34,29.34,0,0,0,1.52-2.72l1.19.7a40.22,40.22,0,0,1-4.61,6.7l3.4-.45c-.23-.72-.47-1.45-.72-2.09l1.07-.29a28.32,28.32,0,0,1,1.35,4.22Zm-2.07.76a39.58,39.58,0,0,1,.55,4.32l-1.11.21a35,35,0,0,0-.51-4.34Zm1.86-.51a21.42,21.42,0,0,1,1.06,3.48l-1,.35a26.38,26.38,0,0,0-1-3.52Zm12.59,4.42v1.25H964.09v-1.25h5.3v-4.08h-4.16v-1.25h9.71v1.25h-4.2v4.08Zm-8.68-6.08a21.19,21.19,0,0,0-2.48-4.05,39.46,39.46,0,0,0,2.17-3.77L968,241c-.55,1-1.35,2.36-2,3.42a24,24,0,0,1,2.27,3.58Zm8.5-8.56H964.81v-1.25h10.77Zm-4,1.09c-.57,1-1.39,2.33-2.09,3.38a28.78,28.78,0,0,1,2.38,3.54l-1.13.51a23.52,23.52,0,0,0-2.62-4,32,32,0,0,0,2.23-3.75Zm2.76,7.47a20.76,20.76,0,0,0-2.76-4.05,37.17,37.17,0,0,0,2.31-3.77l1.23.33c-.59,1-1.45,2.36-2.15,3.42a23.91,23.91,0,0,1,2.5,3.52Z"/><path class="cls-8" d="M977.57,254.58a24,24,0,0,0,.94-4.5l.78.27a27,27,0,0,1-.9,4.57Zm7.9-6.7s0,.39,0,.55c-.16,5-.31,6.7-.74,7.25a1.25,1.25,0,0,1-1,.51,10.19,10.19,0,0,1-1.6,0,3,3,0,0,0-.31-1.08c.63.06,1.21.06,1.45.06a.5.5,0,0,0,.49-.21c.27-.37.41-1.84.55-5.92h-5.65v-10.5h6.8v1.17h-2.64v2H985v1.11h-2.21v1.9h2.25v1.11h-2.25v2.07Zm-5,2.48a35.21,35.21,0,0,1,.31,3.69l-.78.1a34.12,34.12,0,0,0-.27-3.69Zm-.72-10.65v2h1.95v-2Zm1.95,3.09h-1.95v1.9h1.95Zm-1.95,5.08h1.95v-2.07h-1.95Zm1.86,2.19a24.61,24.61,0,0,1,.86,3.3l-.74.18a21.84,21.84,0,0,0-.82-3.34Zm1.72,2.52a23,23,0,0,0-1.21-2.72l.63-.23a16.58,16.58,0,0,1,1.23,2.66Zm5.67-2a9,9,0,0,1-.47,1.66,15.26,15.26,0,0,1,2.36,1.82l-.76.9a14.16,14.16,0,0,0-2-1.7,9.24,9.24,0,0,1-2.13,3,6.21,6.21,0,0,0-.94-.8,9.2,9.2,0,0,0,2.79-5.12Zm-1.19-8.21a19.78,19.78,0,0,1-1.84,1.29,8.88,8.88,0,0,0-.9-.84,14.68,14.68,0,0,0,5.47-5.39l1.27.39c-.12.2-.25.43-.39.63a18,18,0,0,0,5,3.91,4.13,4.13,0,0,0-.61,1.15,21.76,21.76,0,0,1-1.88-1.27v1.07h-6.12ZM986.35,245h4v4.67h-4Zm1,3.69h2V246h-2Zm6.57-6.49a21.84,21.84,0,0,1-3.11-2.83,16.39,16.39,0,0,1-2.76,2.83Zm.27,8.25a11.75,11.75,0,0,1-.61,2.19,18.18,18.18,0,0,1,2.7,2.27l-.82.94a18.18,18.18,0,0,0-2.36-2.15,8.6,8.6,0,0,1-1.9,2.54,7.21,7.21,0,0,0-1-.82,8.4,8.4,0,0,0,2.78-5.18Zm-2.8-5.45h4.12v4.67h-4.12Zm1,3.69h2.11V246h-2.11Z"/><path class="cls-8" d="M1000.31,249.79a3.61,3.61,0,0,0,2.58-3.13,1.26,1.26,0,0,1-.39,0,1.33,1.33,0,0,1-1.45-1.39,1.36,1.36,0,0,1,1.47-1.39c1.09,0,1.66.88,1.66,2.27a4.83,4.83,0,0,1-3.44,4.59Z"/><path class="cls-8" d="M1021.51,242.73c-.1.14-.21.29-.29.43a20.51,20.51,0,0,0,6,4,4.14,4.14,0,0,0-.59,1.21,26.24,26.24,0,0,1-6.06-4.36,21.1,21.1,0,0,1-2.85,2.72h6.16v1.17h-6.27v-1.09a22,22,0,0,1-2.64,1.76,10.09,10.09,0,0,0-.76-1.15l-1.68.78v6.31c0,.8-.18,1.17-.66,1.41a6.47,6.47,0,0,1-2.56.27,5.15,5.15,0,0,0-.43-1.31c.92,0,1.74,0,2,0s.37-.08.37-.37v-5.73l-2.23,1-.39-1.33c.72-.27,1.62-.66,2.62-1.09v-4.34h-2.56v-1.27h2.56v-4.16h1.31v4.16h1.95v1.27h-1.95v3.79l1.58-.7.27,1.23a16.65,16.65,0,0,0,6.08-5.14Zm-4.67-1.92h-2.42v-1.21h2.42v-1.95h1.23v1.95h2.25v1.21h-2.25V243h-1.23Zm-.61,8.85h9.11v6.59H1024v-.74h-6.57v.74h-1.25Zm1.25,1.17v3.52H1024v-3.52Zm5.65-10h-2.25v-1.21h2.25v-1.95h1.25v1.95h2.52v1.21h-2.52V243h-1.25Z"/><path class="cls-8" d="M1029,238.51h9.63v1.19h-2.95v2.74h2.52v13.49h-1.15v-1.19h-6.53v1.45h-1.11V242.44H1032v-2.74H1029Zm8,15.11v-5.51h-1.29c-.88,0-1.15-.2-1.15-1.23v-3.28h-1.56v1.56a4.73,4.73,0,0,1-1.84,4,3.25,3.25,0,0,0-.7-.59v5.08Zm-6.53-10v4.91a3.85,3.85,0,0,0,1.64-3.38v-1.54Zm.9,6.72h4.75v1.11h-4.75Zm3.13-10.63h-1.52v2.74h1.52Zm2.5,3.91h-1.54v3.26c0,.29,0,.31.33.31h.88a1,1,0,0,0,.33,0Zm8.21,11.2c.94,0,1.11-.53,1.19-3.5a4,4,0,0,0,1.25.55c-.16,3.32-.57,4.22-2.37,4.22h-3.44c-1.78,0-2.34-.43-2.34-2.17v-8.66h6.08v-5.41h-6.16v-1.29H1047v8h-6.06v7.39c0,.72.18.88,1.13.88Z"/><path class="cls-8" d="M1052.19,249.81a13.27,13.27,0,0,1-1.76,5.59,6.2,6.2,0,0,0-1.15-.61c1.6-2.46,1.82-5.75,1.82-8v-2.85h8.23v5.92Zm4.05-11.55c-.1.16-.21.33-.31.51a50.62,50.62,0,0,1,4.57,3l-.74,1.11a48.13,48.13,0,0,0-4.55-3.17,18,18,0,0,1-5.14,4.22,7.31,7.31,0,0,0-.78-1.23,13.45,13.45,0,0,0,5.67-4.91Zm-4,12.55h7.56v5.26h-1.23v-.84h-5.16v.88h-1.17Zm5.82-2v-1.49h-5.69c0,.47,0,1-.08,1.49Zm-5.69-3.83v1.39h5.69v-1.39Zm5.18-3.05v.92h-4.32v-.92Zm-4.14,10v2.29h5.16v-2.29Zm9.65-.74h-1.29v-11.2h1.29Zm3.91-13.39V254.4c0,.92-.25,1.33-.8,1.58a10.77,10.77,0,0,1-3.26.27,6.32,6.32,0,0,0-.47-1.35c1.27,0,2.4,0,2.7,0s.49-.1.49-.47V237.73Z"/><path class="cls-8" d="M1075.54,249v7.17h-1.31V249h-4.16v-1.19h4.16v-2.23H1070v-1.17h5.67a27.21,27.21,0,0,0,1.15-3.36l1.27.29c-.37,1-.78,2.17-1.19,3.07h2.68v1.17h-4v2.23h3.83V249Zm-2.46,1.47a15.92,15.92,0,0,1-2.11,4.07c-.23-.16-.68-.51-1-.68a12,12,0,0,0,1.95-3.71Zm6.18-9.56h-9v-1.17h4.12c-.27-.61-.61-1.33-.92-1.9l1.31-.35a21.46,21.46,0,0,1,1.17,2.25h3.3Zm-6.76,3.38a14,14,0,0,0-.82-2.95l1.08-.27a11.07,11.07,0,0,1,.88,2.91Zm5,5.77a20.36,20.36,0,0,1,1.72,3.28l-1,.53a22.42,22.42,0,0,0-1.7-3.34Zm11-4.32h-2.31v10.4h-1.31v-10.4h-3v.8c0,2.93-.27,6.92-2.15,9.58a4.5,4.5,0,0,0-1-.82c1.76-2.5,1.95-6,1.95-8.76v-7A36.6,36.6,0,0,0,1087,238l1.11,1a33.1,33.1,0,0,1-6.27,1.49v4h6.61Z"/><path class="cls-8" d="M1097.81,253.93c-2.54.55-5.22,1.17-7.17,1.6l-.35-1.23c.92-.16,2.11-.37,3.42-.63v-6.12h-3.19v-1.21h3.19V244h-2v-.82c-.31.29-.59.57-.9.84a8.91,8.91,0,0,0-.7-1.29,14.65,14.65,0,0,0,4-5.08l1.21.41c-.12.25-.25.49-.39.76,1.21,1,2.62,2.27,3.38,3.05l-.78,1c-.72-.78-2-2-3.19-3.05a17.3,17.3,0,0,1-2.23,3h4.83V244h-2v2.36h2.68v1.21h-2.68v5.88l2.83-.55Zm-6.08-5.26a33.09,33.09,0,0,1,.88,3.81l-1,.27a30.71,30.71,0,0,0-.82-3.83Zm3.89,3.56a29.08,29.08,0,0,0,1-3.81l1.11.35c-.39,1.25-.86,2.79-1.27,3.75Zm12.45,2.25c0,.8-.16,1.21-.74,1.43a10.52,10.52,0,0,1-3.11.23,4.51,4.51,0,0,0-.43-1.29c1.21,0,2.27,0,2.58,0s.41-.1.41-.41v-3.77c-2.13.57-4.3,1.09-6,1.5l-.47-1.19c1.66-.35,4.1-.88,6.49-1.45v-4.87h-6.55V249c0,2.25-.18,5.28-1.41,7.37a5.21,5.21,0,0,0-1-.84c1.09-1.9,1.19-4.51,1.19-6.55v-5.51h3.87v-5.82h1.31v5.82h3.93Zm-7.56-11.82a15,15,0,0,0-2-3.85l1.11-.51a14.4,14.4,0,0,1,2.11,3.77Zm.68,3.52a21.29,21.29,0,0,1,4.89,1.49l-.53,1a23.11,23.11,0,0,0-4.89-1.66Zm7.52-7.47a31.32,31.32,0,0,1-2.34,3.85l-1.11-.49a24.72,24.72,0,0,0,2.17-3.87Z"/><path class="cls-8" d="M1128.26,247.54v1.09h-13.35v.84h-1.33v-7a16.23,16.23,0,0,1-1.95,2.11,6.2,6.2,0,0,0-1-1,17,17,0,0,0,4.4-6l1.29.39c-.31.66-.66,1.31-1,1.95h5.16a19.29,19.29,0,0,0-1-1.95l1.25-.37a21.07,21.07,0,0,1,1.23,2.31h5.84v1h-6.16v1.47h5.18v1h-5.18v1.5h5.26v1h-5.26v1.62Zm-14.7,2.66h13.52v6.1h-1.39v-1h-10.77v1h-1.35Zm6.76-9.24h-5.41v1.47h5.41Zm0,2.48h-5.41v1.5h5.41Zm-5.41,4.1h5.41v-1.62h-5.41Zm0,3.79v2.85h10.77v-2.85Z"/><path class="cls-8" d="M881.05,285.91c-.25-.7-.9-2-1.43-3.11v10.67h-1.25V283.31a23.39,23.39,0,0,1-2.42,5.86,6.23,6.23,0,0,0-.74-1.29,24.15,24.15,0,0,0,3-7.8h-2.54v-1.29h2.66v-3.93h1.25v3.93H882v1.29h-2.36V281c.51.8,2,3.34,2.31,4Zm6.57,3c-.8,2.23-2.44,3.71-6,4.59a4.74,4.74,0,0,0-.72-1.08c3.05-.68,4.55-1.82,5.3-3.5h-4.85v-1.17h5.26a14,14,0,0,0,.31-1.78h-4.18v-6.23h9.93V286h-4.4c-.08.63-.16,1.23-.29,1.78h5.69v1.17Zm-3.21-11.18h-2.62v-1.15h2.62v-1.72h1.23v1.72h1.68v1.15h-1.68v1.52h-1.23Zm-.41,4.63h7.35v-1.58H884Zm0,2.56h7.35v-1.56H884Zm4.51,4.18c1.8,1,4.24,2.42,5.49,3.3l-.84,1a57,57,0,0,0-5.45-3.44Zm1.35-11.39h-1.78v-1.17h1.78v-1.68h1.25v1.68h2.83v1.17h-2.83v1.54h-1.25Z"/><path class="cls-8" d="M908.14,280c.51,7.09,2.19,12.1,4.32,12.1.57,0,.82-1.13,1-3.89a3.82,3.82,0,0,0,1.19.74c-.25,3.52-.76,4.57-2.25,4.57-3.3,0-5.06-5.88-5.61-13.52H896.1V278.7h10.57c-.08-1.23-.1-2.5-.12-3.77H908c0,1.29,0,2.56.08,3.77h6.16V280Zm-6.23,10.32,4.46-1,.12,1.21c-3.48.82-7.27,1.7-9.87,2.27l-.43-1.31c1.15-.23,2.68-.55,4.36-.9v-6.14h-3.75V283.2h9v1.31h-3.91Zm10.44-12a16.83,16.83,0,0,0-3-2.6l.92-.76a18.56,18.56,0,0,1,3,2.5Z"/><path class="cls-8" d="M918.44,287a3.61,3.61,0,0,0,2.58-3.13,1.27,1.27,0,0,1-.39,0,1.33,1.33,0,0,1-1.45-1.39,1.36,1.36,0,0,1,1.47-1.39c1.09,0,1.66.88,1.66,2.27a4.83,4.83,0,0,1-3.44,4.59Z"/><path class="cls-8" d="M935.21,287.63c-2.85,1.31-6,2.68-8.21,3.67l-.49-1.39c.8-.31,1.76-.72,2.83-1.17L929,275.91l1.37,0,.31,12.29c1.35-.59,2.81-1.23,4.22-1.86Zm9.09,5.8a50.79,50.79,0,0,0-4.71-5.51,14.84,14.84,0,0,1-7.17,5.63,10.8,10.8,0,0,0-1.07-1.17c7.13-2.58,9.3-7.56,10.22-16.5L943,276c-.49,4.44-1.29,7.92-2.74,10.69a59.11,59.11,0,0,1,5.14,5.65ZM936.37,283a19.53,19.53,0,0,0-3.15-5l1.17-.59a19.24,19.24,0,0,1,3.26,4.87Z"/><path class="cls-8" d="M955.66,283.86v9.64h-1.27v-2.09c-2.54.35-5.1.66-7,.9l-.14-1.23,2-.21v-7h-1.8v-1.15h17.9v1.15Zm-4.5-2.21h-1.31V275.5H963v6.14h-1.35v-5.1H951.15Zm3.24,2.21h-4v1.52h4Zm0,2.56h-4v1.52h4Zm-4,4.34,4-.47V289h-4Zm10.12-12H952.1v-.94h8.46Zm-8.44,2.17V280h8.44v.94Zm12.61,4.63a11.34,11.34,0,0,1-3.05,4.75,11.5,11.5,0,0,0,4.1,1.95,5.89,5.89,0,0,0-.82,1.06,11.68,11.68,0,0,1-4.22-2.19,14.47,14.47,0,0,1-4.26,2.25,4.13,4.13,0,0,0-.74-1.06,12.94,12.94,0,0,0,4.08-2,12.05,12.05,0,0,1-2.46-3.83l.21-.06h-1.09v-1.13h7.19l.25,0Zm-6.14.82a9.72,9.72,0,0,0,2.15,3.13,10.13,10.13,0,0,0,2.33-3.13Z"/><path class="cls-8" d="M983.88,291.91c.8,0,.92-.37,1-2.74a4.27,4.27,0,0,0,1.25.53c-.16,2.78-.57,3.46-2.15,3.46h-3.21c-1.78,0-2.27-.41-2.27-1.92v-5.32h-3.71c-.33,4.32-1.45,6.51-6.47,7.62a3.21,3.21,0,0,0-.72-1.11c4.63-.94,5.51-2.76,5.79-6.51h-5.55v-1.29h18v1.29h-6v5.3c0,.59.16.7,1,.7Zm-14.15-10.28h-1.35v-4.4h8a15.55,15.55,0,0,0-1.11-2.17l1.35-.37a18.06,18.06,0,0,1,1.35,2.54h7.27v4.4h-1.39v-3.09H969.72Zm1.52.47v-1.27h11.18v1.27Z"/><path class="cls-8" d="M1006.46,285.58v1.13h-18.2v-1.13h4.24a7.93,7.93,0,0,0-1.15-1.86l1.21-.37a8,8,0,0,1,1.29,1.95l-.88.29h7.78a21.65,21.65,0,0,0,1.21-2.21l1.35.33a18.45,18.45,0,0,1-1.17,1.88Zm-.51-2.25h-17.1v-1.08h7.74v-1.52h-6v-1.06h6v-1.47H989.4v-1.06h4.08a8.11,8.11,0,0,0-1.23-1.86l1.19-.43a8.22,8.22,0,0,1,1.33,1.84l-1,.45h6a19.88,19.88,0,0,0,1.27-2.31l1.37.35c-.41.68-.84,1.39-1.25,2h4.16v1.06H998v1.47h6.08v1.06H998v1.52h8ZM991.08,288h12.63v5.47h-1.37v-.66h-9.93v.72h-1.33Zm1.33,1.13v2.58h9.93v-2.58Z"/><path class="cls-8" d="M1014.05,275.07c-.33,1-.72,2.15-1.08,3h3.46v13.23h-5.73V293h-1.25V278.1h2.27a22,22,0,0,0,.88-3.32Zm1.13,4.26h-4.48v4.46h4.48Zm0,10.77V285h-4.48v5.08Zm11.28-11.32c-.33,9.4-.61,12.53-1.43,13.52a1.91,1.91,0,0,1-1.56.78,25.76,25.76,0,0,1-3,0,3.21,3.21,0,0,0-.45-1.33c1.33.12,2.56.12,3,.12s.66,0,.86-.31c.68-.72,1-3.87,1.27-12.18h-5.37a18.87,18.87,0,0,1-1.92,3.65,12.21,12.21,0,0,0-1.15-.76,20.28,20.28,0,0,0,3.13-7.47l1.31.29c-.27,1-.55,2-.9,3h6.2ZM1022.1,288a36.13,36.13,0,0,0-3.17-4.75l1-.61a35.25,35.25,0,0,1,3.28,4.65Z"/><path class="cls-8" d="M1036.41,291.15c-2.54.55-5.22,1.17-7.17,1.6l-.35-1.23c.92-.16,2.11-.37,3.42-.63v-6.12h-3.19v-1.21h3.19V281.2h-2v-.82c-.31.29-.59.57-.9.84a8.9,8.9,0,0,0-.7-1.29,14.65,14.65,0,0,0,4-5.08l1.21.41c-.12.25-.25.49-.39.76,1.21,1,2.62,2.27,3.38,3.05l-.78,1c-.72-.78-2-2-3.19-3.05a17.3,17.3,0,0,1-2.23,3h4.83v1.19h-2v2.36h2.68v1.21h-2.68v5.88l2.83-.55Zm-6.08-5.26a33.12,33.12,0,0,1,.88,3.81l-1,.27a30.73,30.73,0,0,0-.82-3.83Zm3.89,3.56a29.08,29.08,0,0,0,1-3.81l1.11.35c-.39,1.25-.86,2.79-1.27,3.75Zm12.45,2.25c0,.8-.16,1.21-.74,1.43a10.52,10.52,0,0,1-3.11.23,4.51,4.51,0,0,0-.43-1.29c1.21,0,2.27,0,2.58,0s.41-.1.41-.41v-3.77c-2.13.57-4.3,1.09-6,1.5l-.47-1.19c1.66-.35,4.1-.88,6.49-1.45v-4.87h-6.55v4.3c0,2.25-.18,5.28-1.41,7.37a5.22,5.22,0,0,0-1-.84c1.09-1.9,1.19-4.51,1.19-6.55v-5.51h3.87v-5.82h1.31v5.82h3.93Zm-7.56-11.82a15,15,0,0,0-2-3.85l1.11-.51a14.4,14.4,0,0,1,2.11,3.77Zm.68,3.52a21.26,21.26,0,0,1,4.89,1.5l-.53,1a23.1,23.1,0,0,0-4.89-1.66Zm7.52-7.47a31.3,31.3,0,0,1-2.33,3.85l-1.11-.49a24.72,24.72,0,0,0,2.17-3.87Z"/><path class="cls-8" d="M1066.86,284.76v1.09H1053.5v.84h-1.33v-7a16.25,16.25,0,0,1-1.95,2.11,6.2,6.2,0,0,0-1-1,17,17,0,0,0,4.4-6l1.29.39c-.31.66-.66,1.31-1,1.95h5.16a19.3,19.3,0,0,0-1-1.95l1.25-.37a21.08,21.08,0,0,1,1.23,2.31h5.84v1h-6.16v1.47h5.18v1h-5.18v1.5h5.26v1h-5.26v1.62Zm-14.7,2.66h13.52v6.1h-1.39v-1H1053.5v1h-1.35Zm6.76-9.24h-5.41v1.47h5.41Zm0,2.48h-5.41v1.5h5.41Zm-5.41,4.1h5.41v-1.62h-5.41Zm0,3.79v2.85h10.77v-2.85Z"/><path class="cls-8" d="M1080,286.83a17.21,17.21,0,0,0,8.7,4.71,11.62,11.62,0,0,0-.86,1.19,18.31,18.31,0,0,1-7.84-4.36v5.12h-1.41v-5.14a18,18,0,0,1-7.78,4.46,5.12,5.12,0,0,0-.86-1.13c3.38-.82,6.84-2.72,8.64-5v-1.8h-5.24v4h-1.41v-5.2h6.66V282h-8.15v-1.21h8.15v-1.31H1080v1.31h7.92V282H1080v1.68h6.74v3.85c0,.68-.12,1-.66,1.17a8,8,0,0,1-2.42.18,4.58,4.58,0,0,0-.47-1.08c.86,0,1.64,0,1.86,0s.31-.08.31-.29v-2.64H1080Zm-6.92-9.38a15,15,0,0,1-2.09,2.66,10.7,10.7,0,0,0-1-.9,12.2,12.2,0,0,0,3.09-4.5l1.23.33c-.18.45-.39.86-.59,1.29h5.39v1.13h-4a18.65,18.65,0,0,1,1.9,1.92l-.9.76a20,20,0,0,0-2-2.11l.76-.57Zm8.44,0a11.11,11.11,0,0,1-1.58,1.86,7.3,7.3,0,0,0-1-.8,8.82,8.82,0,0,0,2.58-3.79l1.25.29a8.43,8.43,0,0,1-.57,1.33h6.33v1.11Zm3.6,2.72a16.83,16.83,0,0,0-2.11-2l.88-.72a14.54,14.54,0,0,1,2.15,1.95Z"/><path class="cls-8" d="M1097.63,289.9h-5.43v1.52h-1.09V276.47h6.51Zm-5.43-12.22v4.75h1.72v-4.75Zm0,11h1.72v-5.18h-1.72Zm4.36-11h-1.7v4.75h1.7Zm0,11v-5.18h-1.7v5.18Zm12-11.32a14.4,14.4,0,0,1-3.73,5.14,14,14,0,0,0,4.5,2.4,5.55,5.55,0,0,0-.47,1.27,16,16,0,0,1-5-2.91,20,20,0,0,1-5.43,2.95,5.38,5.38,0,0,0-.59-1.25,18.33,18.33,0,0,0,5.1-2.56,12.71,12.71,0,0,1-2.17-3,18.13,18.13,0,0,1-1.95,2.25,11.55,11.55,0,0,0-.84-1,16,16,0,0,0,4-6l1.19.35a17.36,17.36,0,0,1-.88,1.88h5.16l.25-.06Zm-8.66,8.52h8v7.37h-1.27v-1h-5.53v1h-1.21Zm1.21,1.23v4h5.53v-4Zm.45-8.78a11.27,11.27,0,0,0,2.35,3.34,12,12,0,0,0,2.85-3.5h-5.1Z"/><path class="cls-8" d="M1118,286l-1.25,1.06a31.93,31.93,0,0,0-4.55-4.57l1.17-1.06A40.47,40.47,0,0,1,1118,286Z"/><path class="cls-8" d="M1129.71,283.86v9.64h-1.27v-2.09c-2.54.35-5.1.66-7,.9l-.14-1.23,2-.21v-7h-1.8v-1.15h17.9v1.15Zm-4.5-2.21h-1.31V275.5h13.19v6.14h-1.35v-5.1h-10.53Zm3.24,2.21h-4v1.52h4Zm0,2.56h-4v1.52h4Zm-4,4.34,4-.47V289h-4Zm10.12-12h-8.46v-.94h8.46Zm-8.44,2.17V280h8.44v.94Zm12.61,4.63a11.34,11.34,0,0,1-3.05,4.75,11.49,11.49,0,0,0,4.1,1.95,5.88,5.88,0,0,0-.82,1.06,11.68,11.68,0,0,1-4.22-2.19,14.47,14.47,0,0,1-4.26,2.25,4.13,4.13,0,0,0-.74-1.06,12.94,12.94,0,0,0,4.08-2,12.05,12.05,0,0,1-2.46-3.83l.21-.06h-1.09v-1.13h7.19l.25,0Zm-6.14.82a9.72,9.72,0,0,0,2.15,3.13,10.13,10.13,0,0,0,2.33-3.13Z"/><path class="cls-8" d="M882.71,317.7a18.11,18.11,0,0,1-1.78,7.92,25.67,25.67,0,0,1,2.58,2.46l-.88,1.15a26.1,26.1,0,0,0-2.4-2.42,15.6,15.6,0,0,1-3.87,4,5.23,5.23,0,0,0-1-.92,14,14,0,0,0,3.85-4c-1.11-.94-2.29-1.9-3.36-2.68.43-1.37.88-3.21,1.29-5.18l-1.7.1-.14-1.33c.61,0,1.31-.06,2.11-.08.27-1.58.51-3.19.66-4.61l1.35.06c-.16,1.39-.43,2.95-.7,4.5l2.68-.14V315h1.29v1.45l1.19-.06v1.23Zm-4.24.27c-.35,1.72-.74,3.42-1.11,4.79.82.61,1.68,1.29,2.54,2a16.54,16.54,0,0,0,1.51-6.94ZM894,322h-4.59v7c0,.84-.23,1.23-.84,1.45a10.69,10.69,0,0,1-3.13.23,6.76,6.76,0,0,0-.51-1.29c1.23,0,2.33,0,2.66,0s.43-.12.43-.41v-7H883.2v-1.29H888v-2.42a17.29,17.29,0,0,0,3.09-3.46h-7v-1.25H892l.33-.08.94.68a22.32,22.32,0,0,1-3.91,4.46v2.07H894Z"/><path class="cls-8" d="M901.4,312.3c-.33,1-.72,2.15-1.08,3h3.46v13.23H898v1.64H896.8V315.33h2.27a22,22,0,0,0,.88-3.32Zm1.13,4.26H898V321h4.48Zm0,10.77v-5.08H898v5.08ZM913.81,316c-.33,9.4-.61,12.53-1.43,13.52a1.91,1.91,0,0,1-1.56.78,25.64,25.64,0,0,1-3,0,3.21,3.21,0,0,0-.45-1.33c1.33.12,2.56.12,3,.12s.66,0,.86-.31c.68-.72,1-3.87,1.27-12.18h-5.37a18.88,18.88,0,0,1-1.92,3.64,12.21,12.21,0,0,0-1.15-.76A20.28,20.28,0,0,0,907.2,312l1.31.29c-.27,1-.55,2-.9,3h6.2Zm-4.36,9.21a36.13,36.13,0,0,0-3.17-4.75l1-.61a35.24,35.24,0,0,1,3.28,4.65Z"/><path class="cls-8" d="M923.54,329c0,.78-.18,1.19-.68,1.43a7.69,7.69,0,0,1-2.7.25,4.82,4.82,0,0,0-.41-1.31c1,0,1.86,0,2.11,0s.39-.1.39-.41V323.8h-3.42a19.7,19.7,0,0,1-1.54,6.94,3.53,3.53,0,0,0-1.11-.66c1.41-2.89,1.51-6.94,1.51-10v-7.31h5.84Zm-1.29-6.53v-3.62h-3.3v1.23c0,.74,0,1.56,0,2.4Zm-3.3-8.42v3.52h3.3V314.1ZM934.53,320a17.57,17.57,0,0,1-2.89,6.9,11.64,11.64,0,0,0,3.5,2.78,4.78,4.78,0,0,0-.88,1,12.07,12.07,0,0,1-3.4-2.85,13,13,0,0,1-3.19,2.68,4.08,4.08,0,0,0-.8-1,11.28,11.28,0,0,0,3.24-2.7,20.64,20.64,0,0,1-2.79-5.86h-.59v9.71h-1.29V312.89H934v3.93c0,.74-.16,1.08-.76,1.29a12.09,12.09,0,0,1-3.15.2,4.18,4.18,0,0,0-.45-1.19c1.29,0,2.33,0,2.64,0s.41-.1.41-.35v-2.64h-5.92v5.61h6.78l.23,0Zm-6,1a17.52,17.52,0,0,0,2.35,4.85,16.21,16.21,0,0,0,2.19-4.85Z"/><path class="cls-8" d="M953.55,315.41A9.41,9.41,0,0,1,951,319a14.27,14.27,0,0,0,4.59,1.9,6.24,6.24,0,0,0-.88,1.17,14.23,14.23,0,0,1-4.73-2.25,15.58,15.58,0,0,1-4.5,2.17,4.73,4.73,0,0,0-.55-.8,19.45,19.45,0,0,1-1.25,3.15l-1-.47a22.11,22.11,0,0,0,1.21-3.38H941.8v8.66c0,.7-.14,1.09-.63,1.31a7.67,7.67,0,0,1-2.5.21,4.41,4.41,0,0,0-.43-1.23c.9,0,1.72,0,2,0s.33-.06.33-.31v-7a16.94,16.94,0,0,1-3.09,5.26,7.48,7.48,0,0,0-.72-1.23,16.23,16.23,0,0,0,3.36-5.71h-3.2v-1.23h5.59a20.2,20.2,0,0,0-4.61-2.89l.84-.88c.66.29,1.37.63,2.07,1a15.64,15.64,0,0,0,2.31-2.19h-6v-1.19h7l.23-.06.88.57a16,16,0,0,1-3.38,3.48,14.34,14.34,0,0,1,1.78,1.31l-.76.82h1.58l.18-.06.86.31c-.1.39-.22.8-.35,1.21A13.76,13.76,0,0,0,949,319a11.84,11.84,0,0,1-2.23-2.64,14.29,14.29,0,0,1-1.58,1.58,7.58,7.58,0,0,0-1.13-.82,12.51,12.51,0,0,0,3.89-5l1.31.35a14.3,14.3,0,0,1-1,1.82h6.94v1.19Zm1.19,8.09s0,.39,0,.59c-.37,3.87-.76,5.41-1.35,6a1.68,1.68,0,0,1-1.25.49,17.29,17.29,0,0,1-2.27,0,3.22,3.22,0,0,0-.37-1.27,20.18,20.18,0,0,0,2.09.12,1,1,0,0,0,.7-.2c.39-.41.74-1.62,1-4.59h-3.64a8.24,8.24,0,0,1-5.43,6.06,4.94,4.94,0,0,0-.82-1,7.17,7.17,0,0,0,4.85-5h-3.34V323.5h3.63a16.93,16.93,0,0,0,.29-2.07h1.37c-.08.72-.16,1.39-.29,2.07Zm-7.15-8.09a9.34,9.34,0,0,0,2.4,2.78,8,8,0,0,0,2.09-2.78Z"/><path class="cls-8" d="M958.14,321.86h7.15v8.66h-1.35v-.92h-4.5v1.13h-1.29Zm1.29,1.31v5.12h4.5v-5.12Zm12.72-3.54h-11v-6.7h11Zm-1.37-5.39h-8.31v4.07h8.31Zm4.4,7.62v8.72h-1.35v-1h-4.91v1.13H967.6v-8.87Zm-1.35,6.43v-5.12h-4.91v5.12Z"/><path class="cls-8" d="M980.6,316.17a5.21,5.21,0,0,1-1.82,3.13,4,4,0,0,0-.9-.86,4.38,4.38,0,0,0,1.64-3.69v-1.7a36.06,36.06,0,0,0,6-.92l.88.84a27.1,27.1,0,0,1-5.69.92v1.21h6v1.06h-2.31v2.54H983.2v-2.54Zm4.53,12.1a36,36,0,0,1-6.35,2.56,10.75,10.75,0,0,0-.72-1.19,28.69,28.69,0,0,0,6-1.95Zm-4.44-9.13h12.72v8.38H980.68Zm1.31,2.48H992v-1.54H982Zm0,2.44H992v-1.54H982Zm0,2.5H992V325H982Zm14.15-11.45v1.06H992.9v2.62h-1.25v-2.62h-2.83a5.25,5.25,0,0,1-1.45,2.81,3,3,0,0,0-1-.72,4.87,4.87,0,0,0,1.43-3.73V313a36.57,36.57,0,0,0,6.37-.86l1,.82a33.8,33.8,0,0,1-6.16.92v.66a5,5,0,0,1,0,.55Zm-6.49,12.57a56.17,56.17,0,0,1,6.27,2.07l-.68,1a55.4,55.4,0,0,0-6.14-2.17Z"/><path class="cls-8" d="M1000.31,324.23a3.61,3.61,0,0,0,2.58-3.13,1.26,1.26,0,0,1-.39,0,1.33,1.33,0,0,1-1.45-1.39,1.36,1.36,0,0,1,1.47-1.39c1.09,0,1.66.88,1.66,2.27a4.83,4.83,0,0,1-3.44,4.59Z"/><path class="cls-8" d="M1026.13,319.26a15.17,15.17,0,0,1-4.59,7.68,15.53,15.53,0,0,0,5.63,2.5,6.06,6.06,0,0,0-.94,1.27,16.22,16.22,0,0,1-5.84-2.87,19,19,0,0,1-6.59,3,3.75,3.75,0,0,0-.76-1.23,17.71,17.71,0,0,0,6.27-2.7,17.15,17.15,0,0,1-4.2-6.74h-.84a16.19,16.19,0,0,1-4.94,10.16,5.17,5.17,0,0,0-1-1.13c4.42-4.16,4.73-9.26,4.73-12.94v-1.9h-3.65V313H1022c-.43,1.86-1,4.22-1.43,5.86h4.4l.27-.06Zm-11.65-3c0,.82,0,1.7-.08,2.62h4.69c.39-1.31.82-3,1.17-4.53h-5.78Zm1.95,3.91a15,15,0,0,0,4,5.88,13.06,13.06,0,0,0,4-5.88Z"/><path class="cls-8" d="M1037.54,321.08v9.64h-1.27v-2.09c-2.54.35-5.1.66-7,.9l-.14-1.23,2-.21v-7h-1.8v-1.15h17.9v1.15Zm-4.5-2.21h-1.31v-6.14h13.19v6.14h-1.35v-5.1H1033Zm3.24,2.21h-4v1.52h4Zm0,2.56h-4v1.52h4Zm-4,4.34,4-.47v-1.33h-4Zm10.12-12H1034V315h8.46Zm-8.44,2.17v-.94h8.44v.94Zm12.61,4.63a11.35,11.35,0,0,1-3.05,4.75,11.5,11.5,0,0,0,4.1,1.95,5.89,5.89,0,0,0-.82,1.06,11.68,11.68,0,0,1-4.22-2.19,14.48,14.48,0,0,1-4.26,2.25,4.13,4.13,0,0,0-.74-1.06,12.94,12.94,0,0,0,4.08-2,12,12,0,0,1-2.46-3.83l.21-.06h-1.09v-1.13h7.19l.25,0Zm-6.14.82a9.71,9.71,0,0,0,2.15,3.13,10.12,10.12,0,0,0,2.33-3.13Z"/><path class="cls-8" d="M1059.89,319.36c1.45,4.61,4.16,8.4,8.11,10.05a6.85,6.85,0,0,0-1,1.27c-4-1.88-6.68-5.67-8.25-10.46a14.51,14.51,0,0,1-8.25,10.48,5.31,5.31,0,0,0-1-1.13c5.14-2.23,7.19-6.29,8-10.22h-7.66V318h7.9a42.24,42.24,0,0,0,.33-5.88h1.43a45.48,45.48,0,0,1-.35,5.88h8.54v1.39Z"/><path class="cls-8" d="M1075.45,312.3c-.33,1-.72,2.15-1.09,3h3.46v13.23h-5.73v1.64h-1.25V315.33h2.27A22,22,0,0,0,1074,312Zm1.13,4.26h-4.48V321h4.48Zm0,10.77v-5.08h-4.48v5.08ZM1087.86,316c-.33,9.4-.61,12.53-1.43,13.52a1.91,1.91,0,0,1-1.56.78,25.65,25.65,0,0,1-3,0,3.21,3.21,0,0,0-.45-1.33c1.33.12,2.56.12,3,.12s.66,0,.86-.31c.68-.72,1-3.87,1.27-12.18h-5.37a18.89,18.89,0,0,1-1.92,3.64,12.22,12.22,0,0,0-1.15-.76,20.29,20.29,0,0,0,3.13-7.47l1.31.29c-.27,1-.55,2-.9,3h6.2Zm-4.36,9.21a36.13,36.13,0,0,0-3.17-4.75l1-.61a35.25,35.25,0,0,1,3.28,4.65Z"/><path class="cls-8" d="M1094.35,317.31c-.29,1.74-1.11,2.74-3.28,3.36a2.52,2.52,0,0,0-.66-.86c1.86-.45,2.58-1.19,2.79-2.5h-2.42v-1h3.81v-1.64h-3v-1h3v-1.43h1.25v1.43h3.09v1h-3.09v1.64h3.79v1h-2.5v1.13c0,.45,0,.57.31.57h1.31a4.13,4.13,0,0,0,.88-.08,6.68,6.68,0,0,0,.08.92,3.9,3.9,0,0,1-.94.08h-1.47c-1,0-1.23-.43-1.23-1.52v-1.11Zm-3.79,12.88a9,9,0,0,0,2.54-3.54l1.25.33a10.33,10.33,0,0,1-2.56,3.77Zm17.16-5.55a.43.43,0,0,0,.33-.12,1.23,1.23,0,0,0,.16-.66c0-.43.06-1.33.06-2.52a2.31,2.31,0,0,0,1,.51,25.2,25.2,0,0,1-.16,2.79,1.29,1.29,0,0,1-.45.88,1.42,1.42,0,0,1-.86.25H1107a1.44,1.44,0,0,1-1-.35c-.27-.25-.35-.55-.35-1.95v-7.23h-2.11a30.92,30.92,0,0,1-.41,3.69,26.26,26.26,0,0,1,2.17,1.66l-.66,1.13c-.45-.41-1.09-.94-1.78-1.47a8.68,8.68,0,0,1-3.05,4.89,3.85,3.85,0,0,0-.92-.9c.14-.1.27-.2.39-.31-3.11.31-6.33.66-8.6.9l-.12-1.17c1.11-.08,2.5-.23,4-.37v-2h-3.3v-1.06h3.3v-1.54h1.25v1.54h3.26v1.06h-3.26v1.86l3.77-.37v.84a8.14,8.14,0,0,0,2.21-4.22c-.68-.51-1.35-1-1.95-1.41l.61-1c.49.33,1,.7,1.56,1.09.14-.9.22-1.86.29-2.89H1100V315h2.38c0-.94,0-1.92.06-3h1.25c0,1,0,2-.06,3h3.3v8.58a2.86,2.86,0,0,0,.08,1,.43.43,0,0,0,.29.08Zm-10,2.38a18.49,18.49,0,0,1,.49,3.34l-1.33.18a22.63,22.63,0,0,0-.41-3.42Zm4.22-.16a17.58,17.58,0,0,1,1.19,3.36l-1.31.31a19.36,19.36,0,0,0-1.15-3.44Zm4.24-.27a21.39,21.39,0,0,1,2.64,3.67l-1.35.49A20,20,0,0,0,1105,327Z"/><path class="cls-8" d="M1117.22,316.6h-6.51v-1.13h6.51Zm-4.59,12.94v1h-1.13v-6.84h5.2v5.88Zm4.1-10.24h-5.2v-1.11h5.2Zm-5.2,1.62h5.2V322h-5.2Zm2.66-5.59a10.41,10.41,0,0,0-1.62-2.66l1.11-.51a10.66,10.66,0,0,1,1.68,2.54Zm-1.56,9.46v3.6h2.93v-3.6Zm16.18-5.51a27.12,27.12,0,0,1-2.58,6.78c.41,1.95.92,3.09,1.62,3.13.37,0,.66-1.23.8-3.26a3.59,3.59,0,0,0,1,.66c-.39,3.26-1.06,4.14-1.8,4.12-1.15,0-1.92-1.19-2.48-3.19a16.66,16.66,0,0,1-2.68,3.09,5.5,5.5,0,0,0-.9-.7,14.91,14.91,0,0,0,3.21-4,70.2,70.2,0,0,1-.8-8.87h-4.75V320h3.71v.57c-.12,4.93-.21,6.66-.61,7.17a1.29,1.29,0,0,1-1,.55,12.7,12.7,0,0,1-1.78,0,3.32,3.32,0,0,0-.33-1.25c.7.06,1.31.08,1.56.08a.59.59,0,0,0,.55-.23c.21-.33.31-1.74.41-5.73h-2.5v.1c0,2.79-.25,6.78-1.76,9.52a4.49,4.49,0,0,0-1-.84c1.39-2.56,1.54-6.1,1.54-8.68v-5.41h6c0-1.21-.06-2.46-.08-3.73h1.23c0,1.27,0,2.52.06,3.73h3.85v1.25h-3.81c.1,2.72.29,5.12.53,7.08a25.57,25.57,0,0,0,1.72-5.34Zm-.55-4.14a13.23,13.23,0,0,0-2.15-2.4l.92-.51a12.48,12.48,0,0,1,2.17,2.29Z"/><path class="cls-8" d="M1133.44,324.23a3.61,3.61,0,0,0,2.58-3.13,1.26,1.26,0,0,1-.39,0,1.33,1.33,0,0,1-1.45-1.39,1.36,1.36,0,0,1,1.47-1.39c1.09,0,1.66.88,1.66,2.27a4.83,4.83,0,0,1-3.44,4.59Z"/><path class="cls-8" d="M882.12,359.53s0,.43,0,.63c-.31,4.67-.59,6.39-1.17,7a1.6,1.6,0,0,1-1.27.55,15.23,15.23,0,0,1-2.35,0,2.86,2.86,0,0,0-.39-1.25c1,.08,1.86.1,2.19.1a.87.87,0,0,0,.72-.23c.37-.39.68-1.86.9-5.55h-5.18c.27-1.49.57-3.89.74-5.69h4.36v-3.44h-4.89V350.4h6.16v5.94h-4.51c-.12,1.08-.29,2.21-.43,3.19Zm10.81,8.54a11.35,11.35,0,0,0-.63-1.39c-3.54.29-7.27.55-9.85.74l-.21-1.31,5-.31v-3.17h-4.16V357.3h4.16v-2.07h1.31v2.07h4.32v5.32h-4.32v3.09c1-.06,2-.12,3-.2a22.48,22.48,0,0,0-1.31-1.9l1.13-.49a18.45,18.45,0,0,1,2.68,4.38Zm-.25-12a13.92,13.92,0,0,0-.94-1.41c-7.27.61-8.07.72-8.58.9a11,11,0,0,0-.43-1.21,2.32,2.32,0,0,0,1.07-.86,21.51,21.51,0,0,0,2.68-4.07l1.41.37a30.76,30.76,0,0,1-3.15,4.34l6.23-.51c-.53-.66-1.07-1.29-1.6-1.84l1-.59a25.72,25.72,0,0,1,3.36,4.2Zm-5.41,5.43v-3h-2.95v3Zm1.31-3v3h3.05v-3Z"/><path class="cls-8" d="M904.84,359.92c-3.19.27-6.49.51-8.81.7l-.08-1.06c1.13-.06,2.54-.16,4.1-.27v-1.47h-3.17v-.94h3.17v-1.19h1.25v1.19h3.24v.94H901.3v1.37l3.54-.25Zm-5-6.33c-.33,1.56-1.56,2.46-3.26,2.91a3,3,0,0,0-.55-.88c1.39-.31,2.42-.9,2.68-2h-2.6v-1h4v-1.17h-3.11v-.94h3.11v-1.23h1.25v1.23h3.15v.94H901.3v1.17h4v1h-2.79v.82c0,.45,0,.57.31.57H904a4.4,4.4,0,0,0,.88-.08c0,.27,0,.61.06.88a2.94,2.94,0,0,1-.92.08h-1.37c-1,0-1.19-.43-1.19-1.47v-.8Zm12.82,9c-.33,3.05-.68,4.34-1.21,4.85a2.07,2.07,0,0,1-1.41.49c-.55,0-1.7,0-2.87-.06a2.73,2.73,0,0,0-.41-1.23c1.19.1,2.38.12,2.79.12s.61,0,.8-.18c.37-.29.63-1.25.88-3.48h-6.1c-1,2.58-3.17,4.14-8.35,4.89a4.68,4.68,0,0,0-.61-1.13c4.59-.59,6.59-1.78,7.54-3.77h-6.43V362h6.84c.1-.41.18-.82.27-1.29h1.37c-.08.45-.16.88-.27,1.29h7.25Zm0-10.81c0,4.59,0,7.94.86,7.94.27,0,.37-1.11.39-2.58a6.76,6.76,0,0,0,.84.74c-.12,2.21-.35,3-1.33,3-1.84,0-2-3.21-2-8h-2.21a20.66,20.66,0,0,1-.47,3.07c.86.55,1.66,1.08,2.17,1.49l-.63,1c-.47-.37-1.15-.86-1.86-1.35a6.68,6.68,0,0,1-2.72,3.38,3.62,3.62,0,0,0-.82-.86,5.91,5.91,0,0,0,2.52-3.24c-.68-.43-1.33-.86-1.92-1.23l.63-.86,1.58,1a16.15,16.15,0,0,0,.35-2.4H905.8v-1.15h2.31c0-.8,0-1.62.06-2.5h1.21c0,.88,0,1.7-.08,2.5Z"/><path class="cls-8" d="M934.1,350.13v17.77h-1.43v-1.08H918.54v1.08h-1.37V350.13Zm-1.43,15.4v-14H918.54v14Zm-3.17-10.69v7.33h-7.82v-7.33Zm-1.35,1.21H923v4.89h5.18Z"/><path class="cls-8" d="M944.77,364.57l.06,1.17c-2.83.53-5.77,1.06-7.9,1.45l-.18-1.27,1-.16V361h1.11v4.57l1.58-.27v-5.49H937.8V351h1.82c.16-.57.37-1.23.47-1.72l1.37.23c-.2.53-.43,1-.63,1.49h3.28v3.83H939v1.09h5.22v3.91h-2.6v1.9h2.87v1.13h-2.87v2.27ZM939,352v1.74h4V352Zm0,6.72h4V357h-4Zm16.46-6.33v1H953.7v2.4h-7.56v-1h6.31v-1.35h-7.72v-1h7.72v-1.33h-6.27v-1h7.52v2.38ZM945.14,357H955v2.76H953.8v-1.7H950.6v2h3.66v4.83c0,.57-.1.88-.53,1.06a5.68,5.68,0,0,1-2.07.18,4,4,0,0,0-.35-1c.72,0,1.29,0,1.47,0s.25-.06.25-.25v-3.71H950.6v6.63h-1.25v-6.63H947v5.14h-1.19V360.1h3.54v-2h-3.07v1.7h-1.15Z"/><path class="cls-8" d="M959.92,364.94a1.56,1.56,0,1,1,1.56,1.54A1.5,1.5,0,0,1,959.92,364.94Zm.49-11.55,0-2.31h2.21l0,2.31-.45,8.11h-1.21Z"/><path class="cls-6" d="M926.1,99.06v2.44h6.76v10h-3.54v-.86h-10.1v.89h-3.4v-10h6.73V99.06h-8.37c-.33,4.32-1.28,9.14-3.54,12.57a14.51,14.51,0,0,0-3.16-1.88c3.07-4.5,3.34-11.14,3.34-15.88V85.15h22.49v8.22H926.1V95.9h8.67v3.16Zm-3.54-3.16V93.37h-8.16v.51c0,.63,0,1.31,0,2Zm-8.16-7.65v2H929.7v-2Zm14.92,16.35h-10.1v2.95h10.1Z"/><path class="cls-6" d="M956.59,86.43c2.74,2.56,6.29,6.23,7.83,8.73l-3,2.17a26.28,26.28,0,0,0-1.55-2.26c-15.82.77-17.93.83-19.51,1.37A27,27,0,0,0,939.2,93a6.13,6.13,0,0,0,2.47-1.73,39.73,39.73,0,0,0,6.31-8.1l3.57,1.52a49,49,0,0,1-6.49,7.6l12.21-.39c-1.16-1.31-2.35-2.56-3.46-3.66Zm-15.25,12h20.08v13h-3.81V110H945v1.52h-3.63Zm3.63,3.4v4.77h12.63V101.8Z"/><path class="cls-6" d="M993.52,98.82s-.06,1-.12,1.4c-.62,6.43-1.31,9.14-2.29,10.13a3.47,3.47,0,0,1-2.41,1.13,35.06,35.06,0,0,1-3.72.06,6.69,6.69,0,0,0-.92-3c1.25.12,2.41.12,2.95.12s.8,0,1.1-.36c.57-.54,1.16-2.35,1.58-6.37h-2.56a24.5,24.5,0,0,1-6.82,9.8,18.92,18.92,0,0,0-2.8-2.17,18.25,18.25,0,0,0,6-7.62h-2.56a27.35,27.35,0,0,1-8.87,8.94,19.24,19.24,0,0,0-2.62-2.53,20.81,20.81,0,0,0,7.51-6.4h-2.59a28.12,28.12,0,0,1-4.62,3.6A23.82,23.82,0,0,0,967,103a21.81,21.81,0,0,0,7.15-6h-2.62V84.94h19.6V97H978.3c-.39.63-.8,1.22-1.25,1.82ZM975,89.65h12.51V87.8H975Zm0,4.53h12.51V92.3H975Z"/><path class="cls-6" d="M1029.74,94.05a34.58,34.58,0,0,1-5.12,10.22c.86,2.14,1.82,3.4,2.77,3.4.71,0,1.07-1.49,1.22-5.21a9.63,9.63,0,0,0,3,2c-.57,5.51-1.76,6.82-4.53,6.82-2.09,0-3.72-1.49-5-3.93a25.21,25.21,0,0,1-5,4.05,23.3,23.3,0,0,0-2.56-2.92,22.78,22.78,0,0,0,6.08-4.83,61.49,61.49,0,0,1-2.06-12h-8.64v3.19h7.36s0,.92,0,1.34c-.09,6.25-.27,8.91-1,9.77a2.8,2.8,0,0,1-2.06,1.19,23.43,23.43,0,0,1-3.42.09,8,8,0,0,0-1-3.31c1.07.09,2.09.12,2.56.12a1,1,0,0,0,.89-.36c.3-.42.42-1.85.51-5.6h-3.87c-.12,4.35-.74,10.16-3.19,13.79a15.47,15.47,0,0,0-3-2.41c2.26-3.57,2.47-8.76,2.47-12.63v-8.7h12.15c-.06-1.46-.12-2.92-.12-4.41h3.72c0,1.49,0,2.95.06,4.41h4.56a37.38,37.38,0,0,0-3.81-2.59l2.14-2.11a24.92,24.92,0,0,1,4.85,3.19l-1.43,1.52h3.1v3.51h-9.2a70.53,70.53,0,0,0,1.19,8.16,30.13,30.13,0,0,0,2.86-6.61Z"/><path class="cls-6" d="M1061,106.8v3.6h-27v-3.6h14.59a75.25,75.25,0,0,0,3.84-13.25l4,.77a123.19,123.19,0,0,1-4,12.48Zm-1.25-14.21h-24.42V89h10.81a42.94,42.94,0,0,0-1.43-4.77l3.54-.89a38.74,38.74,0,0,1,1.61,4.74l-3.19.92h13.08Zm-18.26,13.49A89.65,89.65,0,0,0,1039,94.32l3.57-.86a99.11,99.11,0,0,1,2.71,11.65Z"/><path class="cls-7" d="M36.8,193.57a18.49,18.49,0,0,0,6.53.87c1.21,0,9.92,0,11.52-.06a6.19,6.19,0,0,0-.78,1.82H43.39c-6.11,0-9.42-1-11.41-4.93a18,18,0,0,1-1.77,5.89,13.21,13.21,0,0,0-1.54-.93c1.65-2.8,2-7.23,2.07-12.22l1.77.11c-.06,1.37-.11,2.72-.2,4a8.7,8.7,0,0,0,2.75,4.51V181.71H29.23V180h5.38V176.3H30v-1.65h4.65v-3.22h1.77v3.22h4.09v1.65H36.38V180h4.77v1.68H36.8v4.34H40.9v1.68H36.8Zm9.25-1.07c-2.58,0-3.39-.64-3.39-3.2V172.79H53v10H44.46v6.48c0,1.21.28,1.49,1.71,1.49h5.21c1.23,0,1.46-.73,1.63-4a5,5,0,0,0,1.68.73c-.28,3.76-.81,4.93-3.22,4.93Zm-1.6-18.05v6.73h6.78v-6.73Z"/><path class="cls-7" d="M61.75,183.56c-1.09-.81-3.17-2.13-4.74-3l1-1.29a53.41,53.41,0,0,1,4.79,2.8Zm1.65,4c-1.18,2.94-2.8,6.42-4.15,9l-1.63-1a80.54,80.54,0,0,0,4.29-9ZM63,176.24C62,175.37,59.9,174,58.36,173l1.09-1.26a44.42,44.42,0,0,1,4.71,3Zm4.12,4.18c0,4.85-.45,11.72-3.76,16.4a6.25,6.25,0,0,0-1.54-1c3.2-4.51,3.5-10.82,3.5-15.42v-7.68h17v1.71H67.16Zm4.51,9.08a25.77,25.77,0,0,1-3.62,5.75,7.37,7.37,0,0,0-1.51-1A19.11,19.11,0,0,0,70,189.05Zm4.15-2.1v7.54c0,1-.2,1.46-.9,1.74a12.11,12.11,0,0,1-3.78.25,6,6,0,0,0-.56-1.6c1.4,0,2.63,0,3,0s.48-.14.48-.45V187.4h-5.1v-9.56h4.32c.28-.93.62-2.07.81-2.89l2,.42c-.36.84-.76,1.71-1.12,2.47h6.25v9.56Zm-5.21-5.49h8.89V179.3H70.61Zm0,4h8.89v-2.66H70.61Zm8.86,2.92c1.15,1.71,2.58,4,3.31,5.33l-1.71.78a58.8,58.8,0,0,0-3.2-5.49Z"/><circle class="cls-9" cx="56.38" cy="186.46" r="53.63"/><line class="cls-10" x1="205.85" y1="58.32" x2="148.09" y2="185.77"/><line class="cls-11" x1="591.84" y1="185.77" x2="534.08" y2="313.21"/><line class="cls-11" x1="889.81" y1="48.24" x2="832.05" y2="175.68"/><rect class="cls-1" x="-597.97" y="-462.08" width="1920" height="6671"/></svg>